<svg xmlns="http://www.w3.org/2000/svg" width="70" height="70" viewBox="0 0 70 70">
  <g id="Grupo_1102966" data-name="Grupo 1102966" transform="translate(-825 -1304)">
    <g id="Grupo_1102557" data-name="Grupo 1102557" transform="translate(602.5 -617.5)">
      <circle id="Elipse_11549" data-name="Elipse 11549" cx="35" cy="35" r="35" transform="translate(222.5 1921.5)" fill="#3a1d71"/>
    </g>
    <g id="Grupo_1102965" data-name="Grupo 1102965" transform="translate(836.391 1315.392)">
      <path id="Trazado_878650" data-name="Trazado 878650" d="M69.732,0C56.276-.1,44.628,7.107,36.5,17.948a9.24,9.24,0,0,0-10.423,1.838.922.922,0,0,0,0,1.3l7.444,7.444L32.14,33.457a.922.922,0,0,0,.236.9l3.913,3.913a.922.922,0,0,0,.9.236l4.923-1.386,7.444,7.444a.923.923,0,0,0,1.3,0A9.238,9.238,0,0,0,52.7,34.143,50.114,50.114,0,0,0,63.242,23.487a.922.922,0,0,0-1.5-1.077A48.437,48.437,0,0,1,50.97,33.126a36.532,36.532,0,0,1-6.416,3.829l-4.778-4.778,5.217-5.217a.922.922,0,0,0-1.3-1.3l-5.217,5.217c-3.45-3.45.3.3-4.778-4.778,2.935-6.608,12.243-18.9,26.127-22.9a9.214,9.214,0,0,0,7.627,7.629,35.713,35.713,0,0,1-1.655,4.553.922.922,0,1,0,1.687.746A36.662,36.662,0,0,0,70.647.916.922.922,0,0,0,69.732,0ZM51.168,35.245a7.394,7.394,0,0,1-1,7.324l-4.224-4.224a40.25,40.25,0,0,0,5.223-3.1ZM35.021,30.03l5.6,5.6-3.407.959-3.149-3.149ZM32.3,24.7l-4.224-4.224a7.4,7.4,0,0,1,7.323-1A40.262,40.262,0,0,0,32.3,24.7ZM67.915,9.033a7.375,7.375,0,0,1-6.3-6.3A34.868,34.868,0,0,1,68.8,1.85,34.878,34.878,0,0,1,67.915,9.033Z" transform="translate(-23.431 0)" fill="#00ffdf"/>
      <path id="Trazado_878651" data-name="Trazado 878651" d="M249.484,126.316a6.455,6.455,0,1,0,9.129,0A6.457,6.457,0,0,0,249.484,126.316Zm7.825,7.825a4.611,4.611,0,1,1,0-6.521A4.613,4.613,0,0,1,257.309,134.141Z" transform="translate(-224.76 -112.952)" fill="#00ffdf"/>
      <circle id="Elipse_11649" data-name="Elipse 11649" cx="0.922" cy="0.922" r="0.922" transform="translate(40.234 18.441)" fill="#00ffdf"/>
      <path id="Trazado_878652" data-name="Trazado 878652" d="M5.032,390.226C3.9,391.359.719,397.858.093,399.149a.922.922,0,0,0,1.232,1.232c1.291-.626,7.79-3.806,8.924-4.939h0a3.689,3.689,0,1,0-5.217-5.217Zm3.913,3.912a45.3,45.3,0,0,1-5.979,3.37,45.324,45.324,0,0,1,3.37-5.979,1.845,1.845,0,0,1,2.609,2.608Z" transform="translate(0 -353.258)" fill="#00ffdf"/>
    </g>
  </g>
</svg>
