<svg xmlns="http://www.w3.org/2000/svg" width="74" height="74" viewBox="0 0 74 74">
  <g id="Grupo_1102932" data-name="Grupo 1102932" transform="translate(-192 -474)">
    <g id="Grupo_1102549" data-name="Grupo 1102549" transform="translate(-28.5 -1445.5)">
      <circle id="Elipse_11549" data-name="Elipse 11549" cx="35" cy="35" r="35" transform="translate(222.5 1921.5)" fill="#fff" stroke="#8722e2" stroke-width="4"/>
    </g>
    <g id="Grupo_1102931" data-name="Grupo 1102931" transform="translate(206.839 432.051)">
      <g id="Grupo_1102926" data-name="Grupo 1102926" transform="translate(0 59.201)">
        <g id="Grupo_1102925" data-name="Grupo 1102925">
          <path id="Trazado_878592" data-name="Trazado 878592" d="M46.32,91.487c0-.007,0-.013,0-.02a.664.664,0,0,0-.012-.079l0-.008a.657.657,0,0,0-.02-.069l-.007-.018a.652.652,0,0,0-.026-.06l0-.01L42.62,84.065V60.515A1.315,1.315,0,0,0,41.306,59.2H5.016A1.315,1.315,0,0,0,3.7,60.515v23.55L.073,91.223l0,.01c-.009.019-.018.039-.026.06l-.007.018a.689.689,0,0,0-.02.07l0,.007A.669.669,0,0,0,0,91.467c0,.007,0,.013,0,.02s0,.028,0,.042v1.721a1.562,1.562,0,0,0,1.56,1.56h43.2a1.562,1.562,0,0,0,1.56-1.56V91.53C46.322,91.515,46.321,91.5,46.32,91.487ZM5.06,60.558h36.2v22.99H5.06ZM4.8,84.905H41.524l3.014,5.946H29.631l-.748-2.713a1.281,1.281,0,0,0-1.232-.938H18.671a1.281,1.281,0,0,0-1.232.938l-.748,2.713H1.783Zm23.425,5.946H18.1l.633-2.294H27.59Zm16.742,2.4a.2.2,0,0,1-.2.2H1.56a.2.2,0,0,1-.2-.2V92.208H44.965Z" transform="translate(0 -59.201)" fill="#a854f3"/>
        </g>
      </g>
      <g id="Grupo_1102928" data-name="Grupo 1102928" transform="translate(6.507 73.184)">
        <g id="Grupo_1102927" data-name="Grupo 1102927">
          <path id="Trazado_878593" data-name="Trazado 878593" d="M104.553,213.756a.678.678,0,0,0-.679.679v6.881H73.28v-6.881a.679.679,0,0,0-1.357,0v7.174a1.065,1.065,0,0,0,1.064,1.064h31.18a1.065,1.065,0,0,0,1.064-1.064v-7.174A.679.679,0,0,0,104.553,213.756Z" transform="translate(-71.923 -213.756)" fill="#a854f3"/>
        </g>
      </g>
      <g id="Grupo_1102930" data-name="Grupo 1102930" transform="translate(6.507 62.006)">
        <g id="Grupo_1102929" data-name="Grupo 1102929">
          <path id="Trazado_878594" data-name="Trazado 878594" d="M104.167,90.2H72.987a1.065,1.065,0,0,0-1.064,1.064v7.174a.679.679,0,0,0,1.357,0V91.56h30.594v6.881a.679.679,0,0,0,1.357,0V91.267A1.065,1.065,0,0,0,104.167,90.2Z" transform="translate(-71.923 -90.203)" fill="#a854f3"/>
        </g>
      </g>
    </g>
  </g>
</svg>
