<svg xmlns="http://www.w3.org/2000/svg" width="126" height="126" viewBox="0 0 126 126">
  <g id="Grupo_1102988" data-name="Grupo 1102988" transform="translate(-317 -3032)">
    <g id="Grupo_1102825" data-name="Grupo 1102825" transform="translate(97.019 1112.543)">
      <circle id="Elipse_11549" data-name="Elipse 11549" cx="61" cy="61" r="61" transform="translate(221.981 1921.457)" fill="#fff" stroke="#00ffdf" stroke-width="4"/>
    </g>
    <g id="Grupo_1102987" data-name="Grupo 1102987" transform="translate(342 3057)">
      <g id="Grupo_1102968" data-name="Grupo 1102968" transform="translate(0 20.163)">
        <g id="Grupo_1102967" data-name="Grupo 1102967">
          <path id="Trazado_878653" data-name="Trazado 878653" d="M74.646,189.648H71.011V174.395a3.48,3.48,0,0,0-2.3-6.1h-7.26l-1.121-17.937a1.11,1.11,0,0,0-1.107-1.04H54.483a1.11,1.11,0,0,0-1.107,1.04L52.254,168.3H49.595l-1.121-17.937a1.11,1.11,0,0,0-1.107-1.04H42.622a1.11,1.11,0,0,0-1.107,1.04L40.393,168.3H37.734l-1.121-17.937a1.11,1.11,0,0,0-1.107-1.04H30.761a1.11,1.11,0,0,0-1.107,1.04L28.533,168.3H25.442l-.687-30.939a1.11,1.11,0,0,0-1.109-1.085H16.529a1.11,1.11,0,0,0-1.109,1.085l-.793,35.683H5.854a3.48,3.48,0,0,0-2.3,6.1v10.509H1.11a1.11,1.11,0,1,0,0,2.219H74.646a1.11,1.11,0,0,0,0-2.219Zm-60.125-11.86H10.6a1.11,1.11,0,1,0,0,2.219h3.873l-.214,9.641H5.778V180l.076,0a1.11,1.11,0,1,0,0-2.219,1.262,1.262,0,0,1,0-2.525h8.723Zm41-26.246h2.659L59.232,168.3H54.478Zm-11.861,0h2.659L47.371,168.3H42.617Zm-11.861,0h2.659L35.51,168.3H30.756ZM18.977,189.648h-2.5l1.136-51.154H22.56l.662,29.8H21.273a3.479,3.479,0,0,0-2.3,6.1Zm49.738-16.6H66.343a1.11,1.11,0,1,0,0,2.219h2.372l.076,0v14.387H21.2V175.26l.076,0H61.6a1.11,1.11,0,1,0,0-2.219H21.273a1.262,1.262,0,1,1,0-2.525H68.715a1.262,1.262,0,1,1,0,2.525Z" transform="translate(0 -136.275)" fill="#a854f3"/>
        </g>
      </g>
      <g id="Grupo_1102970" data-name="Grupo 1102970" transform="translate(17.791)">
        <g id="Grupo_1102969" data-name="Grupo 1102969">
          <path id="Trazado_878654" data-name="Trazado 878654" d="M164.049,0a14.066,14.066,0,0,0-9.078,3.3,10.562,10.562,0,0,0-13.765.927A8.21,8.21,0,0,0,130.425,8.49,5.043,5.043,0,0,0,129.06,8.3a5.256,5.256,0,0,0-4.968,3.579,3.351,3.351,0,0,0-.37-.021,3.486,3.486,0,0,0-3.482,3.482,1.11,1.11,0,0,0,2.22,0,1.264,1.264,0,0,1,1.263-1.262,1.238,1.238,0,0,1,.641.185,1.11,1.11,0,0,0,1.677-.885,3.037,3.037,0,0,1,3.018-2.858,2.993,2.993,0,0,1,1.48.405,1.11,1.11,0,0,0,1.617-.683,5.993,5.993,0,0,1,8.749-3.688,1.11,1.11,0,0,0,1.386-.24,8.348,8.348,0,0,1,11.964-.726,1.11,1.11,0,0,0,1.516-.022,11.929,11.929,0,1,1-2.207,14.3,1.11,1.11,0,0,0-1.438-.476,8.338,8.338,0,0,1-9.835-2.138,1.11,1.11,0,0,0-1.386-.24,5.985,5.985,0,0,1-7.711-1.577,1.11,1.11,0,0,0-.874-.434h-.005a1.11,1.11,0,0,0-.873.425A3.018,3.018,0,0,1,129.06,16.6a1.11,1.11,0,0,0,0,2.219,5.186,5.186,0,0,0,3.206-1.106,8.2,8.2,0,0,0,8.94,1.619,10.583,10.583,0,0,0,7.424,3.045,10.46,10.46,0,0,0,3.493-.6A14.157,14.157,0,1,0,164.049,0Z" transform="translate(-120.241)" fill="#a854f3"/>
        </g>
      </g>
      <g id="Grupo_1102972" data-name="Grupo 1102972" transform="translate(27.279 61.675)">
        <g id="Grupo_1102971" data-name="Grupo 1102971">
          <path id="Trazado_878655" data-name="Trazado 878655" d="M185.481,416.839a1.11,1.11,0,0,0-1.11,1.11v2.372a1.11,1.11,0,1,0,2.219,0v-2.372A1.11,1.11,0,0,0,185.481,416.839Z" transform="translate(-184.371 -416.839)" fill="#a854f3"/>
        </g>
      </g>
      <g id="Grupo_1102974" data-name="Grupo 1102974" transform="translate(32.024 61.675)">
        <g id="Grupo_1102973" data-name="Grupo 1102973">
          <path id="Trazado_878656" data-name="Trazado 878656" d="M217.546,416.839a1.11,1.11,0,0,0-1.11,1.11v2.372a1.11,1.11,0,1,0,2.219,0v-2.372A1.11,1.11,0,0,0,217.546,416.839Z" transform="translate(-216.436 -416.839)" fill="#a854f3"/>
        </g>
      </g>
      <g id="Grupo_1102976" data-name="Grupo 1102976" transform="translate(36.768 61.675)">
        <g id="Grupo_1102975" data-name="Grupo 1102975">
          <path id="Trazado_878657" data-name="Trazado 878657" d="M249.61,416.839a1.11,1.11,0,0,0-1.11,1.11v2.372a1.11,1.11,0,1,0,2.219,0v-2.372A1.11,1.11,0,0,0,249.61,416.839Z" transform="translate(-248.5 -416.839)" fill="#a854f3"/>
        </g>
      </g>
      <g id="Grupo_1102978" data-name="Grupo 1102978" transform="translate(41.512 61.675)">
        <g id="Grupo_1102977" data-name="Grupo 1102977">
          <path id="Trazado_878658" data-name="Trazado 878658" d="M281.674,416.839a1.11,1.11,0,0,0-1.11,1.11v2.372a1.11,1.11,0,1,0,2.219,0v-2.372A1.11,1.11,0,0,0,281.674,416.839Z" transform="translate(-280.564 -416.839)" fill="#a854f3"/>
        </g>
      </g>
      <g id="Grupo_1102980" data-name="Grupo 1102980" transform="translate(46.256 61.675)">
        <g id="Grupo_1102979" data-name="Grupo 1102979">
          <path id="Trazado_878659" data-name="Trazado 878659" d="M313.739,416.839a1.11,1.11,0,0,0-1.11,1.11v2.372a1.11,1.11,0,1,0,2.219,0v-2.372A1.11,1.11,0,0,0,313.739,416.839Z" transform="translate(-312.629 -416.839)" fill="#a854f3"/>
        </g>
      </g>
      <g id="Grupo_1102982" data-name="Grupo 1102982" transform="translate(51.001 61.675)">
        <g id="Grupo_1102981" data-name="Grupo 1102981">
          <path id="Trazado_878660" data-name="Trazado 878660" d="M345.8,416.839a1.11,1.11,0,0,0-1.11,1.11v2.372a1.11,1.11,0,1,0,2.219,0v-2.372A1.11,1.11,0,0,0,345.8,416.839Z" transform="translate(-344.693 -416.839)" fill="#a854f3"/>
        </g>
      </g>
      <g id="Grupo_1102984" data-name="Grupo 1102984" transform="translate(55.745 61.675)">
        <g id="Grupo_1102983" data-name="Grupo 1102983">
          <path id="Trazado_878661" data-name="Trazado 878661" d="M377.868,416.839a1.11,1.11,0,0,0-1.11,1.11v2.372a1.11,1.11,0,1,0,2.219,0v-2.372A1.11,1.11,0,0,0,377.868,416.839Z" transform="translate(-376.758 -416.839)" fill="#a854f3"/>
        </g>
      </g>
      <g id="Grupo_1102986" data-name="Grupo 1102986" transform="translate(60.489 61.675)">
        <g id="Grupo_1102985" data-name="Grupo 1102985">
          <path id="Trazado_878662" data-name="Trazado 878662" d="M409.933,416.839a1.11,1.11,0,0,0-1.11,1.11v2.372a1.11,1.11,0,1,0,2.219,0v-2.372A1.11,1.11,0,0,0,409.933,416.839Z" transform="translate(-408.823 -416.839)" fill="#a854f3"/>
        </g>
      </g>
    </g>
  </g>
</svg>
