<svg xmlns="http://www.w3.org/2000/svg" width="126" height="126" viewBox="0 0 126 126">
  <g id="Grupo_1102990" data-name="Grupo 1102990" transform="translate(-737 -3032)">
    <g id="Grupo_1102826" data-name="Grupo 1102826" transform="translate(517.019 1112.543)">
      <circle id="Elipse_11549" data-name="Elipse 11549" cx="61" cy="61" r="61" transform="translate(221.981 1921.457)" fill="#fff" stroke="#00ffdf" stroke-width="4"/>
    </g>
    <g id="Grupo_1102989" data-name="Grupo 1102989" transform="translate(765 3060)">
      <path id="Trazado_878663" data-name="Trazado 878663" d="M63.516,49.968H38.181a3.3,3.3,0,0,0-.678-1.329l-6.057-7.061a1.1,1.1,0,0,0-.832-.384H18.548V40.1a1.1,1.1,0,0,0-1.1-1.1H2.1A1.1,1.1,0,0,0,1,40.1V64.226a1.1,1.1,0,0,0,1.1,1.1h8.774a1.1,1.1,0,0,0,1.1-1.1v-1.1h5.484a1.1,1.1,0,0,0,1.1-1.1v-1.1H25.9l6.3,4.2a1.1,1.1,0,0,0,.605.184,1.139,1.139,0,0,0,.235-.025l35.1-7.677A1.1,1.1,0,0,0,69,56.548v-1.1a5.49,5.49,0,0,0-5.484-5.484ZM9.774,63.129H3.194V41.194H9.774Zm6.581-2.194H11.968V41.194h4.387Zm50.452-5.265L33.026,63.056l-6.192-4.129a1.1,1.1,0,0,0-.608-.184H18.548V43.387h11.56l5.724,6.678a1.1,1.1,0,0,1,.264.714v1.382a1.1,1.1,0,0,1-1.1,1.1H33.716a1.1,1.1,0,0,1-.777-.321L28.1,48.1l-1.551,1.551,4.841,4.841a3.266,3.266,0,0,0,2.327.964H35a3.29,3.29,0,0,0,3.29-3.29H63.516a3.29,3.29,0,0,1,3.29,3.29Z" transform="translate(0 3.677)" fill="#a854f3"/>
      <path id="Trazado_878664" data-name="Trazado 878664" d="M67.9,33.9H65.71V9.774a3.29,3.29,0,0,0-3.29-3.29H54.683a.869.869,0,0,0-.052-.078l-3.1-3.1a1.1,1.1,0,0,0-1.551,0L48.84,4.442A10.9,10.9,0,0,0,47.065,3.7V2.1a1.1,1.1,0,0,0-1.1-1.1H41.581a1.1,1.1,0,0,0-1.1,1.1V3.7a10.9,10.9,0,0,0-1.776.737L37.57,3.3a1.1,1.1,0,0,0-1.551,0l-3.1,3.1a.869.869,0,0,0-.05.078H25.129a3.29,3.29,0,0,0-3.29,3.29v6.581H2.1a1.1,1.1,0,0,0-1.1,1.1V30.613a1.1,1.1,0,0,0,1.1,1.1H21.839V33.9H19.645a1.1,1.1,0,0,0-1.1,1.1v4.387a3.29,3.29,0,0,0,3.29,3.29H65.71A3.29,3.29,0,0,0,69,39.387V35A1.1,1.1,0,0,0,67.9,33.9ZM63.516,9.774V33.9H61.323V11.968a1.1,1.1,0,0,0-1.1-1.1H54.231A10.9,10.9,0,0,0,53.494,9.1l.418-.418h8.508A1.1,1.1,0,0,1,63.516,9.774Zm-34,20.839V17.452a1.1,1.1,0,0,0-1.1-1.1v-3.29h2.194v3.29a1.1,1.1,0,0,0,1.1,1.1h1.608a10.9,10.9,0,0,0,.737,1.776l-1.138,1.138a1.1,1.1,0,0,0,0,1.551l3.1,3.1a1.1,1.1,0,0,0,1.551,0l1.138-1.138a10.892,10.892,0,0,0,1.776.737v1.608a1.1,1.1,0,0,0,1.1,1.1h4.387a1.1,1.1,0,0,0,1.1-1.1V24.618a10.892,10.892,0,0,0,1.776-.738l1.138,1.14a1.1,1.1,0,0,0,1.551,0l3.1-3.1a1.1,1.1,0,0,0,0-1.551l-1.137-1.138a10.9,10.9,0,0,0,.736-1.776h1.608a1.1,1.1,0,0,0,1.1-1.1v-3.29h2.194V33.9H28.419V31.71A1.1,1.1,0,0,0,29.516,30.613Zm5.71-18.4A8.683,8.683,0,0,1,36.352,9.5,1.1,1.1,0,0,0,36.2,8.138l-.956-.956,1.551-1.551.956.956a1.1,1.1,0,0,0,1.361.152,8.683,8.683,0,0,1,2.712-1.126,1.1,1.1,0,0,0,.853-1.07V3.194h2.194V4.543a1.1,1.1,0,0,0,.853,1.07,8.683,8.683,0,0,1,2.712,1.126A1.1,1.1,0,0,0,49.8,6.587l.956-.956L52.3,7.181l-.956.956A1.1,1.1,0,0,0,51.2,9.5a8.683,8.683,0,0,1,1.126,2.712,1.1,1.1,0,0,0,1.07.853h1.349v2.194H53.393a1.1,1.1,0,0,0-1.07.853A8.683,8.683,0,0,1,51.2,18.824a1.1,1.1,0,0,0,.152,1.361l.956.956-1.551,1.551-.956-.956a1.1,1.1,0,0,0-1.36-.152,8.7,8.7,0,0,1-2.712,1.126,1.1,1.1,0,0,0-.854,1.069v1.35H42.677v-1.35a1.1,1.1,0,0,0-.854-1.069,8.7,8.7,0,0,1-2.712-1.126,1.1,1.1,0,0,0-1.36.152l-.956.956-1.551-1.551.956-.956a1.1,1.1,0,0,0,.152-1.361,8.683,8.683,0,0,1-1.126-2.712,1.1,1.1,0,0,0-1.07-.853H32.806V13.065h1.349A1.1,1.1,0,0,0,35.226,12.211ZM24.032,9.774a1.1,1.1,0,0,1,1.1-1.1h8.508l.418.418a10.9,10.9,0,0,0-.737,1.776H27.323a1.1,1.1,0,0,0-1.1,1.1v4.387H24.032ZM3.194,18.548H27.323V29.516H3.194ZM24.032,31.71h2.194V33.9H24.032Zm42.774,7.677a1.1,1.1,0,0,1-1.1,1.1H21.839a1.1,1.1,0,0,1-1.1-1.1V36.1H66.806Z" fill="#a854f3"/>
      <path id="Trazado_878665" data-name="Trazado 878665" d="M40.581,20.161A6.581,6.581,0,1,0,34,13.581,6.581,6.581,0,0,0,40.581,20.161Zm0-10.968a4.387,4.387,0,1,1-4.387,4.387A4.387,4.387,0,0,1,40.581,9.194Z" transform="translate(3.194 0.581)" fill="#a854f3"/>
      <path id="Trazado_878666" data-name="Trazado 878666" d="M8.612,18.293l-3.29,3.29a1.1,1.1,0,0,0,0,1.551l3.29,3.29,1.551-1.551L7.648,22.359l2.515-2.515Z" transform="translate(0.387 1.674)" fill="#a854f3"/>
      <path id="Trazado_878667" data-name="Trazado 878667" d="M19.844,18.293l-1.551,1.551,2.515,2.515-2.515,2.515,1.551,1.551,3.29-3.29a1.1,1.1,0,0,0,0-1.551Z" transform="translate(1.674 1.674)" fill="#a854f3"/>
      <rect id="Rectángulo_403391" data-name="Rectángulo 403391" width="9.81" height="2.194" transform="matrix(0.447, -0.894, 0.894, 0.447, 12.084, 27.928)" fill="#a854f3"/>
    </g>
  </g>
</svg>
