<svg xmlns="http://www.w3.org/2000/svg" width="92" height="92" viewBox="0 0 92 92">
  <g id="Grupo_1102999" data-name="Grupo 1102999" transform="translate(-300 -4247)">
    <g id="Grupo_1102830" data-name="Grupo 1102830" transform="translate(80.019 2327.543)">
      <circle id="Elipse_11549" data-name="Elipse 11549" cx="44" cy="44" r="44" transform="translate(221.981 1921.457)" fill="#fff" stroke="#8722e2" stroke-width="4"/>
    </g>
    <g id="Grupo_1102998" data-name="Grupo 1102998" transform="translate(322 4269.493)">
      <path id="XMLID_1649_" d="M45.188.008H2.813A2.816,2.816,0,0,0,0,2.82v37.5a2.816,2.816,0,0,0,2.813,2.813h10.43a.938.938,0,0,0,0-1.875H2.813a.939.939,0,0,1-.937-.937V9.383h44.25V40.32a.939.939,0,0,1-.937.938h-4.62L31,31.692a13.32,13.32,0,1,0-5.32,5.319l4.247,4.247H21.68a.938.938,0,0,0,0,1.875H31.8l3.774,3.774a3.761,3.761,0,0,0,6.251-3.774h3.359A2.816,2.816,0,0,0,48,40.32V2.82A2.816,2.816,0,0,0,45.188.008ZM7.876,25.323A11.438,11.438,0,1,1,19.314,36.761,11.45,11.45,0,0,1,7.876,25.323ZM29.962,33.3l1.785,1.785L29.08,37.757l-1.785-1.785A13.429,13.429,0,0,0,29.962,33.3Zm9.609,12.276a1.889,1.889,0,0,1-2.668,0l-6.5-6.5,2.668-2.668,6.5,6.5A1.888,1.888,0,0,1,39.571,45.581ZM1.875,7.508V2.821a.939.939,0,0,1,.937-.938H45.187a.939.939,0,0,1,.938.938V7.508Z" transform="translate(0 0)" fill="#3a1d71"/>
      <path id="XMLID_1658_" d="M243.188,40.008h-20.25a.938.938,0,0,0,0,1.875h20.25a.937.937,0,1,0,0-1.875Z" transform="translate(-201.188 -36.25)" fill="#3a1d71"/>
      <path id="XMLID_1660_" d="M98.938,40.01a.938.938,0,1,0,.663.275A.941.941,0,0,0,98.938,40.01Z" transform="translate(-88.813 -36.252)" fill="#3a1d71"/>
      <path id="XMLID_1661_" d="M54.938,40.01a.938.938,0,1,0,.663.275A.941.941,0,0,0,54.938,40.01Z" transform="translate(-48.938 -36.252)" fill="#3a1d71"/>
      <path id="XMLID_1665_" d="M142.938,40.01a.938.938,0,1,0,.663.275A.941.941,0,0,0,142.938,40.01Z" transform="translate(-128.688 -36.252)" fill="#3a1d71"/>
      <path id="XMLID_1667_" d="M196.954,263.039a.938.938,0,0,0-.937.938v3.656a.938.938,0,0,0,1.875,0v-3.656A.938.938,0,0,0,196.954,263.039Z" transform="translate(-177.64 -238.372)" fill="#3a1d71"/>
      <path id="XMLID_1668_" d="M196.958,218.04a.938.938,0,1,0,.663.275A.945.945,0,0,0,196.958,218.04Z" transform="translate(-177.643 -197.592)" fill="#3a1d71"/>
      <path id="XMLID_1671_" d="M113.579,168.039a9.563,9.563,0,1,0,9.563,9.563A9.573,9.573,0,0,0,113.579,168.039Zm0,17.25a7.688,7.688,0,1,1,7.688-7.687A7.7,7.7,0,0,1,113.579,185.289Z" transform="translate(-94.265 -152.278)" fill="#3a1d71"/>
      <path id="XMLID_1672_" d="M362.268,192.986a.938.938,0,0,0,.937.938h7.1a.938.938,0,1,0,0-1.875h-7.1A.937.937,0,0,0,362.268,192.986Z" transform="translate(-328.305 -174.036)" fill="#3a1d71"/>
      <path id="XMLID_1673_" d="M344.6,144.05h-1.925a.938.938,0,0,0,0,1.875H344.6a.938.938,0,1,0,0-1.875Z" transform="translate(-309.696 -130.538)" fill="#3a1d71"/>
      <path id="XMLID_1675_" d="M410.18,145.925a.938.938,0,0,0,0-1.875h-2.975a.937.937,0,1,0,0,1.875Z" transform="translate(-368.18 -130.538)" fill="#3a1d71"/>
      <path id="XMLID_1692_" d="M416.508,240.046h-2.32a.938.938,0,1,0,0,1.875h2.32a.938.938,0,1,0,0-1.875Z" transform="translate(-374.508 -217.534)" fill="#3a1d71"/>
      <path id="XMLID_1711_" d="M177.188,440.01a.938.938,0,1,0,.663.275A.941.941,0,0,0,177.188,440.01Z" transform="translate(-159.727 -398.752)" fill="#3a1d71"/>
    </g>
  </g>
</svg>
