<svg xmlns="http://www.w3.org/2000/svg" width="190" height="90" viewBox="0 0 190 90">
  <g id="Grupo_1102548" data-name="Grupo 1102548" transform="translate(-1125 -9230)">
    <rect id="Rectángulo_402908" data-name="Rectángulo 402908" width="190" height="68" rx="10" transform="translate(1125 9252)" fill="#d6e1fd"/>
    <circle id="Elipse_11622" data-name="Elipse 11622" cx="11" cy="11" r="11" transform="translate(1162 9265.34) rotate(-180)" fill="#00ffdf"/>
    <g id="Elipse_11623" data-name="Elipse 11623" transform="translate(1304.333 9302.098) rotate(-180)" fill="none" stroke="#f0c518" stroke-width="4">
      <circle cx="15" cy="15" r="15" stroke="none"/>
      <circle cx="15" cy="15" r="13" fill="none"/>
    </g>
    <circle id="Elipse_11624" data-name="Elipse 11624" cx="5" cy="5" r="5" transform="translate(1162 9240) rotate(-180)" fill="#00ffdf"/>
    <g id="Grupo_1103003" data-name="Grupo 1103003" transform="translate(1181.688 9233.786)">
      <g id="Grupo_1103002" data-name="Grupo 1103002" transform="translate(0 0)">
        <g id="Grupo_1103001" data-name="Grupo 1103001" transform="translate(0)">
          <g id="Grupo_1103000" data-name="Grupo 1103000">
            <path id="Trazado_878839" data-name="Trazado 878839" d="M376.353,0h-5.2a1.122,1.122,0,1,0,0,2.245h5.2a.39.39,0,0,1,.389.389V21.165h-5.836a2.482,2.482,0,0,0-2.479,2.479v.145a2.494,2.494,0,0,0,.739,1.765,2.658,2.658,0,1,1-3.771,0,2.5,2.5,0,0,0,.742-1.768v-.145a2.482,2.482,0,0,0-2.479-2.479h-5.836V15.329a.235.235,0,0,1,.234-.234h.145a.282.282,0,0,1,.188.091,4.9,4.9,0,1,0-.005-6.958.273.273,0,0,1-.182.086h-.145a.235.235,0,0,1-.234-.234V2.245h8.089a1.122,1.122,0,1,0,0-2.245H356.7a1.122,1.122,0,0,0-1.122,1.122V8.08a2.482,2.482,0,0,0,2.479,2.479h.145a2.494,2.494,0,0,0,1.765-.739,2.658,2.658,0,1,1,0,3.772,2.5,2.5,0,0,0-1.768-.742h-.145a2.482,2.482,0,0,0-2.479,2.479v6.958A1.122,1.122,0,0,0,356.7,23.41h6.958a.235.235,0,0,1,.234.234v.145a.282.282,0,0,1-.091.188,4.9,4.9,0,0,0,2.928,8.322,4.9,4.9,0,0,0,5.455-4.871,4.87,4.87,0,0,0-1.425-3.456.273.273,0,0,1-.086-.182v-.145a.235.235,0,0,1,.234-.234h6.958a1.122,1.122,0,0,0,1.122-1.122V2.634A2.637,2.637,0,0,0,376.353,0Z" transform="translate(-302.362 0)" fill="#3a1d71"/>
            <path id="Trazado_878840" data-name="Trazado 878840" d="M327.188,355.577H320.23a2.482,2.482,0,0,0-2.479,2.479v.145a2.494,2.494,0,0,0,.739,1.765,2.658,2.658,0,1,1-3.771,0,2.5,2.5,0,0,0,.742-1.768v-.145a2.482,2.482,0,0,0-2.479-2.479h-6.958A1.122,1.122,0,0,0,304.9,356.7v6.958a.235.235,0,0,1-.234.234h-.145a.282.282,0,0,1-.188-.091,4.9,4.9,0,1,0,.005,6.958.273.273,0,0,1,.182-.086h.38v7.192a1.122,1.122,0,0,0,1.122,1.122h19.653a2.637,2.637,0,0,0,2.634-2.634V356.7a1.123,1.123,0,0,0-1.123-1.122Zm-1.122,20.776a.39.39,0,0,1-.389.389H307.146V369.55a1.122,1.122,0,0,0-1.122-1.122h-1.5a2.494,2.494,0,0,0-1.765.739,2.658,2.658,0,1,1,0-3.771,2.5,2.5,0,0,0,1.768.742h.145a2.482,2.482,0,0,0,2.479-2.479v-5.836h5.836a.235.235,0,0,1,.234.234v.145a.282.282,0,0,1-.091.188,4.9,4.9,0,1,0,6.958-.005A.274.274,0,0,1,320,358.2v-.145a.235.235,0,0,1,.234-.234h5.836Z" transform="translate(-251.686 -302.362)" fill="#3a1d71"/>
            <path id="Trazado_878841" data-name="Trazado 878841" d="M22.287,304.9H15.329a.235.235,0,0,1-.234-.234v-.145a.282.282,0,0,1,.091-.188,4.9,4.9,0,1,0-6.958.005.273.273,0,0,1,.086.182v.145a.235.235,0,0,1-.234.234H1.122A1.122,1.122,0,0,0,0,306.023v19.653a2.637,2.637,0,0,0,2.634,2.634H5.128a1.122,1.122,0,0,0,0-2.245H2.634a.39.39,0,0,1-.389-.389V307.145H8.08a2.482,2.482,0,0,0,2.479-2.479v-.145a2.494,2.494,0,0,0-.739-1.765,2.658,2.658,0,1,1,3.771,0,2.5,2.5,0,0,0-.742,1.768v.145a2.482,2.482,0,0,0,2.479,2.479h5.836v5.835a.235.235,0,0,1-.235.235h-.144a.282.282,0,0,1-.188-.091,4.9,4.9,0,1,0,.005,6.958.273.273,0,0,1,.182-.086h.145a.235.235,0,0,1,.235.235v5.835h-10.8a1.122,1.122,0,0,0,0,2.245H22.287a1.122,1.122,0,0,0,1.122-1.122V320.23a2.483,2.483,0,0,0-2.48-2.48h-.145a2.494,2.494,0,0,0-1.765.739,2.658,2.658,0,1,1,0-3.772,2.5,2.5,0,0,0,1.768.742h.144a2.483,2.483,0,0,0,2.48-2.48v-6.957A1.122,1.122,0,0,0,22.287,304.9Z" transform="translate(0 -251.686)" fill="#3a1d71"/>
            <path id="Trazado_878842" data-name="Trazado 878842" d="M1.122,23.41H8.08a2.482,2.482,0,0,0,2.479-2.479v-.145A2.494,2.494,0,0,0,9.82,19.02a2.658,2.658,0,1,1,3.772,0,2.5,2.5,0,0,0-.742,1.768v.145a2.482,2.482,0,0,0,2.479,2.479h6.958a1.122,1.122,0,0,0,1.122-1.122V15.329a.235.235,0,0,1,.234-.234h.145a.282.282,0,0,1,.188.091,4.9,4.9,0,1,0-.005-6.958.273.273,0,0,1-.182.086h-.145a.235.235,0,0,1-.234-.234V1.122A1.122,1.122,0,0,0,22.287,0H2.634A2.637,2.637,0,0,0,0,2.634V22.287A1.122,1.122,0,0,0,1.122,23.41ZM2.245,2.634a.39.39,0,0,1,.389-.389H21.165V8.08a2.482,2.482,0,0,0,2.479,2.479h.145a2.494,2.494,0,0,0,1.765-.739,2.658,2.658,0,1,1,0,3.771,2.5,2.5,0,0,0-1.768-.742h-.145a2.482,2.482,0,0,0-2.479,2.479v5.836H15.329a.235.235,0,0,1-.234-.234v-.145a.282.282,0,0,1,.091-.188,4.9,4.9,0,1,0-6.958.005.273.273,0,0,1,.086.182v.145a.235.235,0,0,1-.234.234H2.245Z" transform="translate(0 0)" fill="#3a1d71"/>
            <path id="Trazado_878843" data-name="Trazado 878843" d="M232.409,73.967h.9a1.122,1.122,0,0,0,0-2.245h-.9a1.122,1.122,0,1,0,0,2.245Z" transform="translate(-196.673 -60.988)" fill="#3a1d71"/>
            <path id="Trazado_878844" data-name="Trazado 878844" d="M271.965,73.967H274.2a1.122,1.122,0,1,0,0-2.245h-2.232a1.122,1.122,0,1,0,0,2.245Z" transform="translate(-230.309 -60.988)" fill="#3a1d71"/>
            <path id="Trazado_878845" data-name="Trazado 878845" d="M320.435,73.967h.9a1.122,1.122,0,1,0,0-2.245h-.9a1.122,1.122,0,0,0,0,2.245Z" transform="translate(-271.526 -60.988)" fill="#3a1d71"/>
            <path id="Trazado_878846" data-name="Trazado 878846" d="M426.4,234.43a1.122,1.122,0,0,0,1.122-1.122v-.9a1.122,1.122,0,1,0-2.245,0v.9A1.122,1.122,0,0,0,426.4,234.43Z" transform="translate(-361.632 -196.673)" fill="#3a1d71"/>
            <path id="Trazado_878847" data-name="Trazado 878847" d="M425.278,274.2a1.122,1.122,0,1,0,2.245,0v-2.232a1.122,1.122,0,1,0-2.245,0Z" transform="translate(-361.632 -230.309)" fill="#3a1d71"/>
            <path id="Trazado_878848" data-name="Trazado 878848" d="M425.278,321.333a1.122,1.122,0,1,0,2.245,0v-.9a1.122,1.122,0,0,0-2.245,0Z" transform="translate(-361.632 -271.526)" fill="#3a1d71"/>
            <path id="Trazado_878849" data-name="Trazado 878849" d="M261.733,425.278h-.9a1.122,1.122,0,1,0,0,2.245h.9a1.122,1.122,0,0,0,0-2.245Z" transform="translate(-220.845 -361.632)" fill="#3a1d71"/>
            <path id="Trazado_878850" data-name="Trazado 878850" d="M214.6,425.278h-2.232a1.122,1.122,0,1,0,0,2.245H214.6a1.122,1.122,0,1,0,0-2.245Z" transform="translate(-179.629 -361.632)" fill="#3a1d71"/>
            <path id="Trazado_878851" data-name="Trazado 878851" d="M173.707,425.278h-.9a1.122,1.122,0,1,0,0,2.245h.9a1.122,1.122,0,1,0,0-2.245Z" transform="translate(-145.993 -361.632)" fill="#3a1d71"/>
            <path id="Trazado_878852" data-name="Trazado 878852" d="M72.844,259.713a1.122,1.122,0,0,0-1.122,1.122v.9a1.122,1.122,0,0,0,2.245,0v-.9A1.122,1.122,0,0,0,72.844,259.713Z" transform="translate(-60.988 -220.845)" fill="#3a1d71"/>
            <path id="Trazado_878853" data-name="Trazado 878853" d="M73.967,212.365a1.122,1.122,0,1,0-2.245,0V214.6a1.122,1.122,0,0,0,2.245,0Z" transform="translate(-60.988 -179.629)" fill="#3a1d71"/>
            <path id="Trazado_878854" data-name="Trazado 878854" d="M73.967,172.809a1.122,1.122,0,1,0-2.245,0v.9a1.122,1.122,0,1,0,2.245,0Z" transform="translate(-60.988 -145.993)" fill="#3a1d71"/>
            <path id="Trazado_878855" data-name="Trazado 878855" d="M167.073,163.908l2.367,1.366a2.722,2.722,0,0,0,3.718-1L175.4,160.4a2.722,2.722,0,0,0-1-3.718l-2.365-1.366a.475.475,0,0,1-.223-.472,13.437,13.437,0,0,0,0-3.086.475.475,0,0,1,.223-.471l2.365-1.366a2.722,2.722,0,0,0,1-3.718l-2.239-3.878a2.722,2.722,0,0,0-3.718-1l-2.367,1.366a.478.478,0,0,1-.523-.043,13.281,13.281,0,0,0-2.657-1.537.494.494,0,0,1-.308-.446v-2.72a2.725,2.725,0,0,0-2.722-2.722h-4.478a2.725,2.725,0,0,0-2.722,2.722v2.72a.494.494,0,0,1-.308.446,13.274,13.274,0,0,0-2.657,1.537.478.478,0,0,1-.523.043l-2.367-1.366a2.722,2.722,0,0,0-3.718,1l-2.239,3.878a2.721,2.721,0,0,0,1,3.718l2.365,1.366a.475.475,0,0,1,.223.472,13.435,13.435,0,0,0,0,3.086.475.475,0,0,1-.223.471l-2.365,1.366a2.721,2.721,0,0,0-1,3.718l2.239,3.878a2.722,2.722,0,0,0,3.718,1l2.367-1.366a.478.478,0,0,1,.523.043,13.279,13.279,0,0,0,2.657,1.537.494.494,0,0,1,.308.446v2.72a2.725,2.725,0,0,0,2.722,2.722h4.478a2.725,2.725,0,0,0,2.722-2.722v-2.72a.494.494,0,0,1,.308-.446,13.275,13.275,0,0,0,2.657-1.537.478.478,0,0,1,.523-.043Zm-4.072-.48a2.737,2.737,0,0,0-1.661,2.506v2.72a.477.477,0,0,1-.477.477h-4.478a.477.477,0,0,1-.477-.477v-2.72a2.737,2.737,0,0,0-1.661-2.506,11.03,11.03,0,0,1-2.207-1.277,2.746,2.746,0,0,0-1.642-.547,2.687,2.687,0,0,0-1.345.36l-2.367,1.366a.477.477,0,0,1-.651-.174l-2.239-3.878a.477.477,0,0,1,.174-.651l2.365-1.366a2.718,2.718,0,0,0,1.33-2.674,11.2,11.2,0,0,1,0-2.569,2.718,2.718,0,0,0-1.33-2.674l-2.365-1.366a.477.477,0,0,1-.174-.651l2.239-3.878a.477.477,0,0,1,.651-.175l2.367,1.366a2.72,2.72,0,0,0,2.987-.187,11.03,11.03,0,0,1,2.207-1.277,2.737,2.737,0,0,0,1.661-2.506v-2.72a.477.477,0,0,1,.477-.477h4.478a.477.477,0,0,1,.477.477v2.72A2.737,2.737,0,0,0,163,143.177a11.031,11.031,0,0,1,2.207,1.277,2.72,2.72,0,0,0,2.987.187l2.367-1.366a.477.477,0,0,1,.651.175l2.239,3.878a.477.477,0,0,1-.175.651l-2.365,1.366a2.718,2.718,0,0,0-1.33,2.674,11.2,11.2,0,0,1,0,2.569,2.718,2.718,0,0,0,1.33,2.674l2.365,1.366a.477.477,0,0,1,.175.651l-2.239,3.878a.477.477,0,0,1-.651.174l-2.367-1.366a2.72,2.72,0,0,0-2.987.187A11.043,11.043,0,0,1,163,163.428Z" transform="translate(-120.312 -114.99)" fill="#3a1d71"/>
            <path id="Trazado_878856" data-name="Trazado 878856" d="M233.024,228.98a4.044,4.044,0,1,0,4.044,4.044A4.048,4.048,0,0,0,233.024,228.98Zm0,5.843a1.8,1.8,0,1,1,1.8-1.8A1.8,1.8,0,0,1,233.024,234.823Z" transform="translate(-194.712 -194.711)" fill="#3a1d71"/>
            <path id="Trazado_878857" data-name="Trazado 878857" d="M206.673,197.992a8.681,8.681,0,1,0,8.681,8.681A8.691,8.691,0,0,0,206.673,197.992Zm0,15.118a6.436,6.436,0,1,1,6.436-6.436A6.444,6.444,0,0,1,206.673,213.11Z" transform="translate(-168.361 -168.361)" fill="#3a1d71"/>
          </g>
        </g>
      </g>
    </g>
  </g>
</svg>
