<svg xmlns="http://www.w3.org/2000/svg" width="50" height="50" viewBox="0 0 50 50">
  <g id="Grupo_1103023" data-name="Grupo 1103023" transform="translate(-315 -3009)">
    <g id="Elipse_11636" data-name="Elipse 11636" transform="translate(315 3009)" fill="#3a1d71" stroke="#00ffdf" stroke-width="1">
      <circle cx="25" cy="25" r="25" stroke="none"/>
      <circle cx="25" cy="25" r="24.5" fill="none"/>
    </g>
    <g id="Grupo_1103022" data-name="Grupo 1103022" transform="translate(326.001 3020)">
      <path id="Trazado_878887" data-name="Trazado 878887" d="M39.238,17.07a1.242,1.242,0,0,0,1.754,0L41.067,17a1.243,1.243,0,0,0,0-1.755L35.342,9.516l.128-.128a.417.417,0,0,0,0-.584s-.777-.8-1.366-1.389l.459-.459a.4.4,0,0,0,.486-.069L36.3,5.636a.417.417,0,0,0,0-.59L33.384,2.127a.417.417,0,0,0-.59,0L31.543,3.378a.412.412,0,0,0-.069.486L27.858,7.48a.412.412,0,0,0-.486.069L26.121,8.8a.417.417,0,0,0,0,.59l2.919,2.919a.417.417,0,0,0,.59,0l1.251-1.251a.412.412,0,0,0,.069-.486l.471-.473,1.373,1.373a.417.417,0,0,0,.59,0l.128-.128Zm1.239-1.239a.408.408,0,0,1,0,.575l-.075.075a.408.408,0,0,1-.575,0L34.1,10.755l.649-.649Zm-10.1-5.868L28.466,8.05l3.581-3.581,1.913,1.913ZM33.089,3.01l2.33,2.33L34.758,6l-2.33-2.33Zm-3.753,8.413-2.33-2.33.661-.661L30,10.761ZM32.011,9.51,33.517,8c.361.361.792.8,1.071,1.084-.042.042-1.355,1.34-1.5,1.5Z" transform="translate(-14.574 -0.586)" fill="#00ffdf"/>
      <path id="Trazado_878888" data-name="Trazado 878888" d="M50.826,48.754,52.385,47.2a.417.417,0,0,0,0-.59L50.9,45.122a.417.417,0,0,0-.59,0l-1.559,1.559L47.2,45.122a.417.417,0,0,0-.59,0l-1.483,1.483a.417.417,0,0,0,0,.59l1.559,1.559-1.559,1.559a.417.417,0,0,0,0,.59l1.483,1.483a.417.417,0,0,0,.59,0l1.559-1.559,1.559,1.559a.417.417,0,0,0,.59,0L52.385,50.9a.417.417,0,0,0,0-.59ZM50.607,51.5l-1.559-1.559a.417.417,0,0,0-.59,0L46.9,51.5l-.893-.893,1.559-1.559a.417.417,0,0,0,0-.59L46.007,46.9l.893-.893,1.559,1.559a.417.417,0,0,0,.59,0l1.559-1.559.893.893-1.559,1.559a.417.417,0,0,0,0,.59L51.5,50.607Z" transform="translate(-25.65 -25.65)" fill="#00ffdf"/>
      <path id="Trazado_878889" data-name="Trazado 878889" d="M17.265,20.753a.417.417,0,0,0-.417.417V33.682H1.834V17.417a.417.417,0,1,0-.834,0V34.1a.417.417,0,0,0,.417.417H17.265a.417.417,0,0,0,.417-.417V21.171A.417.417,0,0,0,17.265,20.753Z" transform="translate(0 -9.327)" fill="#00ffdf"/>
      <path id="Trazado_878890" data-name="Trazado 878890" d="M12,49.417a.417.417,0,0,0,.417.417H19.09a.417.417,0,1,0,0-.834H12.417A.417.417,0,0,0,12,49.417Z" transform="translate(-6.413 -27.981)" fill="#00ffdf"/>
      <path id="Trazado_878891" data-name="Trazado 878891" d="M19.753,44.834a.417.417,0,0,0,0-.834H16.417a.417.417,0,0,0,0,.834Z" transform="translate(-8.745 -25.067)" fill="#00ffdf"/>
      <path id="Trazado_878892" data-name="Trazado 878892" d="M1.417,6.839h5a.417.417,0,0,0,.417-.417V1.834H16.43a.417.417,0,0,0,0-.834H6.421a.45.45,0,0,0-.292.121h0l-5,5a.417.417,0,0,0,.294.713ZM6,2.424V6H2.423Z" transform="translate(0)" fill="#00ffdf"/>
      <path id="Trazado_878893" data-name="Trazado 878893" d="M16.835,22.171h-.695a1.251,1.251,0,1,1,0-2.5h.695a1.321,1.321,0,0,1,1.219.77.417.417,0,0,0,.763-.337,2.15,2.15,0,0,0-1.913-1.263v-.422a.417.417,0,0,0-.834,0v.424A2.083,2.083,0,1,0,16.141,23h.695a1.251,1.251,0,0,1,0,2.5h-.695a1.332,1.332,0,0,1-1.164-.659.417.417,0,1,0-.725.413,2.164,2.164,0,0,0,1.819,1.075v.422a.417.417,0,1,0,.834,0v-.424a2.083,2.083,0,1,0-.07-4.164Z" transform="translate(-7.564 -9.91)" fill="#00ffdf"/>
    </g>
  </g>
</svg>
