<svg xmlns="http://www.w3.org/2000/svg" width="1331.815" height="747.678" viewBox="0 0 1331.815 747.678">
  <g id="Grupo_1102065" data-name="Grupo 1102065" transform="translate(10878.499 10491.049)">
    <path id="Unión_4" data-name="Unión 4" d="M214.574,746.652C107.035,743.141,19.764,733.691,0,723.494v-697C9.659,22.176,67.079,14.2,120.512,8.486c41.8-4.466,81.071-7.246,94.024-7.67C323.169-2.73,377.123,6.03,433.953,12.594c56.829,7.512,241.177,34.847,310.481,46.36S920.916,78.88,989.77,80.1c67.605,2.171,140.7-5.824,214.149-14.821,68.728-8.564,122.849-29.45,127.9-31.439V66.081c-.364,30.662-.947,79.81-1.573,132.9.2-.069.39-.136.574-.2,0,7.145.589,225.323,1,376.073V716.12c-5.047-1.989-59.169-22.875-127.9-31.439-73.448-9-146.543-16.992-214.149-14.821-68.854,1.223-176.032,9.636-245.336,21.15S490.782,729.857,433.953,737.37c-45.453,5.249-89.049,10.308-160.259,10.308C255.869,747.678,236.322,747.362,214.574,746.652Z" transform="translate(-10878.499 -10491.049)" fill="#f2f6ff"/>
  </g>
</svg>
