<svg xmlns="http://www.w3.org/2000/svg" width="124" height="124" viewBox="0 0 124 124">
  <g id="Grupo_1103124" data-name="Grupo 1103124" transform="translate(-628 -4754)">
    <g id="Grupo_1102846" data-name="Grupo 1102846" transform="translate(408.019 2834.543)">
      <circle id="Elipse_11549" data-name="Elipse 11549" cx="60" cy="60" r="60" transform="translate(221.981 1921.457)" fill="#fff" stroke="#00ffdf" stroke-width="4"/>
    </g>
    <g id="Grupo_1103027" data-name="Grupo 1103027" transform="translate(655 4748.491)">
      <path id="Trazado_878908" data-name="Trazado 878908" d="M120.067,174.678a5.126,5.126,0,0,0,1.5-3.659,4.976,4.976,0,0,0-4.867-5.067h-3.227v10.131h3.218a4.74,4.74,0,0,0,3.377-1.405Zm-3.373-.615-1.2,0v-6.086h1.2a2.952,2.952,0,0,1,2.844,3.044A2.984,2.984,0,0,1,116.694,174.063Z" transform="translate(-98.166 -110.252)" fill="#3a1d71"/>
      <path id="Trazado_878909" data-name="Trazado 878909" d="M258.735,176.083V165.952h-1.978l-3.037,3.414-3.046-3.414h-2.062v10.131h2.024v-7.135l3.088,3.46,2.989-3.36v7.036Z" transform="translate(-215.075 -110.252)" fill="#3a1d71"/>
      <path id="Trazado_878910" data-name="Trazado 878910" d="M346.59,172.035V170a4.047,4.047,0,1,0-8.094,0v2.037a4.047,4.047,0,0,0,8.094,0Zm-6.071,0V170a2.024,2.024,0,0,1,4.047,0v2.037a2.024,2.024,0,0,1-4.047,0Z" transform="translate(-292.836 -110.251)" fill="#3a1d71"/>
      <path id="Trazado_878911" data-name="Trazado 878911" d="M194.542,167.975v-2.023H188.47v10.131h6.072v-2.046h-4.049v-2.019h2.025v-2.024h-2.025v-2.019Z" transform="translate(-163.047 -110.252)" fill="#3a1d71"/>
      <path id="Trazado_878912" data-name="Trazado 878912" d="M64.959,38.509H52.743v2.024H64.959a2.084,2.084,0,0,1,2.082,2.082v1.957H2.024V42.614a2.084,2.084,0,0,1,2.082-2.082h46.6V38.509H4.105A4.11,4.11,0,0,0,0,42.614V67.851H2.024V46.595H67.041v28.39H2.024V69.874H0V80.937a4.11,4.11,0,0,0,4.105,4.105H30.483v6.072H24.412v6.071H31.5V95.161H26.436V93.137H42.629v2.024H37.566v2.024h7.086V91.114H38.578V85.042H64.959a4.11,4.11,0,0,0,4.105-4.105V42.614A4.11,4.11,0,0,0,64.959,38.509Zm-28.405,52.6H32.507V85.042h4.047Zm28.405-8.1H4.105a2.084,2.084,0,0,1-2.082-2.082V77.009H67.041v3.928A2.084,2.084,0,0,1,64.959,83.018Z" fill="#3a1d71"/>
      <path id="Trazado_878913" data-name="Trazado 878913" d="M248.487,338.469h2.024v2.024h-2.024Z" transform="translate(-214.968 -259.498)" fill="#3a1d71"/>
      <path id="Trazado_878914" data-name="Trazado 878914" d="M278.49,338.469h2.024v2.024H278.49Z" transform="translate(-240.924 -259.498)" fill="#3a1d71"/>
      <path id="Trazado_878915" data-name="Trazado 878915" d="M218.483,338.469h2.024v2.024h-2.024Z" transform="translate(-189.011 -259.498)" fill="#3a1d71"/>
      <path id="Trazado_878916" data-name="Trazado 878916" d="M31.057,113.446h2.024v2.024H31.057Z" transform="translate(-26.868 -64.829)" fill="#3a1d71"/>
      <path id="Trazado_878917" data-name="Trazado 878917" d="M61.123,113.446h2.024v2.024H61.123Z" transform="translate(-52.878 -64.829)" fill="#3a1d71"/>
      <path id="Trazado_878918" data-name="Trazado 878918" d="M248.5,458.489h2.017v2.024H248.5Z" transform="translate(-214.979 -363.328)" fill="#3a1d71"/>
    </g>
  </g>
</svg>
