<svg xmlns="http://www.w3.org/2000/svg" width="70" height="70" viewBox="0 0 70 70">
  <g id="Grupo_1103014" data-name="Grupo 1103014" transform="translate(-305 -2137)">
    <rect id="Rectángulo_403222" data-name="Rectángulo 403222" width="70" height="70" rx="10" transform="translate(305 2137)" fill="#3a1d71"/>
    <g id="Grupo_1103015" data-name="Grupo 1103015" transform="translate(313.747 2145.747)">
      <path id="Trazado_878865" data-name="Trazado 878865" d="M48.131,31.5H40.255v-7a1.75,1.75,0,1,1,3.5,0v2.625a2.625,2.625,0,0,0,5.251,0V24.5a6.974,6.974,0,0,0-8.751-6.771V3.5a3.5,3.5,0,0,0-3.5-3.5H3.5A3.5,3.5,0,0,0,0,3.5v35a3.5,3.5,0,0,0,3.5,3.5h28v6.126a4.381,4.381,0,0,0,4.376,4.376H48.131a4.381,4.381,0,0,0,4.376-4.376V35.88A4.381,4.381,0,0,0,48.131,31.5Zm-.875-7v2.625a.875.875,0,0,1-1.75,0V24.5a3.5,3.5,0,0,0-7,0v7h-1.75v-7a5.251,5.251,0,0,1,10.5,0ZM31.5,35.88v.875H5.251v-28H35v22.84A4.383,4.383,0,0,0,31.5,35.88Zm-28,4.376a1.75,1.75,0,0,1-1.75-1.75V3.5A1.75,1.75,0,0,1,3.5,1.75H36.755a1.75,1.75,0,0,1,1.75,1.75V18.449a7.061,7.061,0,0,0-1.75,1.439V8.751A1.75,1.75,0,0,0,35,7H5.251A1.75,1.75,0,0,0,3.5,8.751v28a1.75,1.75,0,0,0,1.75,1.75H31.5v1.75Zm47.256,7.876a2.625,2.625,0,0,1-2.625,2.625H35.88a2.625,2.625,0,0,1-2.625-2.625V35.88a2.625,2.625,0,0,1,2.625-2.625H48.131a2.625,2.625,0,0,1,2.625,2.625Z" fill="#00ffdf"/>
      <path id="Trazado_878866" data-name="Trazado 878866" d="M49.776,42.833a3.5,3.5,0,0,0-5.707,1.984,3.464,3.464,0,0,0,.712,2.875L44.234,50.4a1.75,1.75,0,0,0,1.712,2.1h3.11a1.75,1.75,0,0,0,1.716-2.1l-.545-2.7-.034.031a3.5,3.5,0,0,0-.421-4.9ZM48.515,48.05l.541,2.7h-3.11l.548-2.713a1.7,1.7,0,0,0-.35-1.433,1.75,1.75,0,0,1-.361-1.459A1.769,1.769,0,0,1,47.2,43.773a1.954,1.954,0,0,1,.3-.024,1.731,1.731,0,0,1,1.138.417,1.75,1.75,0,0,1,.613,1.334,1.728,1.728,0,0,1-.4,1.109,1.7,1.7,0,0,0-.342,1.441Z" transform="translate(-5.495 -5.245)" fill="#00ffdf"/>
      <path id="Trazado_878867" data-name="Trazado 878867" d="M5.875,5.75H6.75A.875.875,0,1,0,6.75,4H5.875a.875.875,0,1,0,0,1.75Z" transform="translate(-0.624 -0.5)" fill="#00ffdf"/>
      <path id="Trazado_878868" data-name="Trazado 878868" d="M10.875,5.75h.875a.875.875,0,0,0,0-1.75h-.875a.875.875,0,0,0,0,1.75Z" transform="translate(-1.249 -0.5)" fill="#00ffdf"/>
      <path id="Trazado_878869" data-name="Trazado 878869" d="M15.875,5.75h.875a.875.875,0,1,0,0-1.75h-.875a.875.875,0,0,0,0,1.75Z" transform="translate(-1.873 -0.5)" fill="#00ffdf"/>
      <path id="Trazado_878870" data-name="Trazado 878870" d="M33.875,5.75h5.251a.875.875,0,1,0,0-1.75H33.875a.875.875,0,0,0,0,1.75Z" transform="translate(-4.121 -0.5)" fill="#00ffdf"/>
      <path id="Trazado_878871" data-name="Trazado 878871" d="M15.766,19.278a.875.875,0,0,0-1.237-.043L9.554,23.867a1.706,1.706,0,0,0,0,2.517l4.975,4.632a.875.875,0,0,0,1.194-1.279l-4.972-4.59,4.976-4.632A.875.875,0,0,0,15.766,19.278Z" transform="translate(-1.124 -2.373)" fill="#00ffdf"/>
      <path id="Trazado_878872" data-name="Trazado 878872" d="M30.469,19.237a.875.875,0,0,0-1.194,1.279l4.972,4.59-4.976,4.632a.875.875,0,1,0,1.194,1.279l4.975-4.632a1.706,1.706,0,0,0,0-2.517Z" transform="translate(-3.619 -2.375)" fill="#00ffdf"/>
      <path id="Trazado_878873" data-name="Trazado 878873" d="M25.517,19.092a.875.875,0,0,0-1.174.392l-5.251,10.5a.875.875,0,1,0,1.566.782l5.251-10.5A.875.875,0,0,0,25.517,19.092Z" transform="translate(-2.373 -2.373)" fill="#00ffdf"/>
    </g>
  </g>
</svg>
