<svg xmlns="http://www.w3.org/2000/svg" width="100" height="100" viewBox="0 0 100 100">
  <g id="Grupo_1103100" data-name="Grupo 1103100" transform="translate(-314 -5757)">
    <rect id="Rectángulo_403341" data-name="Rectángulo 403341" width="100" height="100" rx="10" transform="translate(314 5757)" fill="#3a1d71"/>
    <g id="Grupo_1103099" data-name="Grupo 1103099" transform="translate(329.381 5772.38)">
      <g id="Grupo_1103098" data-name="Grupo 1103098" transform="translate(-0.001)">
        <path id="Trazado_879062" data-name="Trazado 879062" d="M69.218,50.515,67.074,28.9A4.269,4.269,0,0,0,65.518,26a4.222,4.222,0,0,0-3.118-.944l-3.733.376h0a4.285,4.285,0,0,0-3.738,3.332l-2.074.209-5.689-3.4a13,13,0,0,0-1.465-.786,14.876,14.876,0,1,0-22.162,0,12.988,12.988,0,0,0-1.465.786l-5.689,3.4-2.074-.209a4.285,4.285,0,0,0-3.739-3.332l-3.733-.376A4.223,4.223,0,0,0,3.721,26a4.269,4.269,0,0,0-1.556,2.9L1.4,36.614a1.352,1.352,0,0,0,2.691.267l.765-7.713a1.582,1.582,0,0,1,.577-1.075,1.538,1.538,0,0,1,1.134-.346l3.733.376a1.583,1.583,0,0,1,1.4,1.74L9.558,51.477a1.582,1.582,0,0,1-.577,1.075,1.536,1.536,0,0,1-1.134.346l-3.733-.376a1.583,1.583,0,0,1-1.4-1.74l.177-1.789A1.352,1.352,0,0,0,.2,48.726L.021,50.515a4.292,4.292,0,0,0,3.822,4.7l3.733.376a4.3,4.3,0,0,0,.43.022,4.226,4.226,0,0,0,2.687-.966,4.281,4.281,0,0,0,1.2-1.575l.813.082a4.32,4.32,0,0,0,.487,5.474,4.226,4.226,0,0,0,3.022,1.258,4.3,4.3,0,0,0,1.018-.121,4.27,4.27,0,0,0,1.115,1.982A4.226,4.226,0,0,0,21.377,63h0a4.3,4.3,0,0,0,1.018-.121,4.271,4.271,0,0,0,1.115,1.983,4.226,4.226,0,0,0,3.022,1.258A4.3,4.3,0,0,0,27.551,66a4.271,4.271,0,0,0,1.115,1.983,4.261,4.261,0,0,0,6.045,0L36.483,66.2a4.984,4.984,0,0,0,2.674.795A4.9,4.9,0,0,0,43.6,64.125a4.246,4.246,0,0,0,3.756-.425,4.777,4.777,0,0,0,1.993-2.69,5.2,5.2,0,0,0,4.6-1.966,4.225,4.225,0,0,0-.25-5.608l3.638-.367a4.281,4.281,0,0,0,1.2,1.575,4.225,4.225,0,0,0,2.687.966,4.3,4.3,0,0,0,.43-.022l3.733-.376a4.292,4.292,0,0,0,3.822-4.7ZM51.852,31.525a1.352,1.352,0,0,0,.694.191c.045,0,.09,0,.136-.007l2.3-.232L56.856,50.4l-5.581.563L43.05,42.6q.518-.1,1.026-.25a1.352,1.352,0,1,0-.773-2.592,8.663,8.663,0,0,1-8.318-2.035,1.352,1.352,0,0,0-1.994.081L31.1,40.044c-1.452,1.724-2.181,2.59-6.828,2.59a.655.655,0,0,1-.6-.254.719.719,0,0,1,.081-.695c1.191-2.08,2.272-3.87,3.316-5.6,1.157-1.916,2.353-3.9,3.7-6.27.105-.186.205-.349.3-.493a14.86,14.86,0,0,0,11.9-2.142c1.359-.13,1.41-.118,2.808.717ZM34.619,2.7A12.171,12.171,0,1,1,22.448,14.876,12.185,12.185,0,0,1,34.619,2.7Zm-18.4,54.474a1.541,1.541,0,0,1-1.1-.458,1.6,1.6,0,0,1,0-2.254l2.062-2.079a1.556,1.556,0,0,1,2.2,0,1.6,1.6,0,0,1,0,2.254l-1.031,1.04h0l0,0-1.026,1.034a1.54,1.54,0,0,1-1.1.458ZM21.377,60.3a1.54,1.54,0,0,1-1.1-.458,1.605,1.605,0,0,1,0-2.253h0l1.031-1.04h0l1.03-1.039a1.556,1.556,0,0,1,2.2,0,1.6,1.6,0,0,1,0,2.254L23.51,58.8h0L22.479,59.84A1.54,1.54,0,0,1,21.377,60.3Zm5.156,3.119a1.541,1.541,0,0,1-1.1-.458,1.605,1.605,0,0,1,0-2.253h0l1.031-1.04h0l1.03-1.039a1.556,1.556,0,0,1,2.2,0,1.6,1.6,0,0,1,0,2.254h0l-1.031,1.04h0l-1.031,1.039a1.54,1.54,0,0,1-1.1.458Zm6.258,2.661a1.556,1.556,0,0,1-2.2,0,1.6,1.6,0,0,1,0-2.251l0,0h0l1.031-1.04h0l1.031-1.039a1.556,1.556,0,0,1,2.2,0,1.6,1.6,0,0,1,0,2.254Zm19.018-8.683a2.333,2.333,0,0,1-3.04.627,1.352,1.352,0,0,0-1.991,1.5,1.919,1.919,0,0,1-.882,1.9,2.014,2.014,0,0,1-2.387-.415,1.352,1.352,0,0,0-2.2,1.1,2.1,2.1,0,0,1-1.3,2,2.188,2.188,0,0,1-2.111-.214,4.312,4.312,0,0,0-1.122-4.053,4.226,4.226,0,0,0-3.023-1.258,4.3,4.3,0,0,0-1.018.121,4.271,4.271,0,0,0-1.115-1.983A4.226,4.226,0,0,0,28.6,55.463h0a4.3,4.3,0,0,0-1.018.121A4.273,4.273,0,0,0,26.462,53.6a4.227,4.227,0,0,0-3.023-1.258,4.3,4.3,0,0,0-1.018.121,4.272,4.272,0,0,0-1.115-1.983h0a4.261,4.261,0,0,0-6.045,0l-.187.189L12.383,50.4,14.26,31.477l2.3.232a1.354,1.354,0,0,0,.829-.185L23.46,27.9c1.4-.835,1.448-.846,2.808-.717a14.875,14.875,0,0,0,2.185,1.232l-.04.069c-1.326,2.34-2.513,4.305-3.66,6.206-1.053,1.744-2.142,3.548-3.348,5.655a3.373,3.373,0,0,0-.073,3.4,3.325,3.325,0,0,0,2.94,1.6c5.322,0,6.863-1.137,8.9-3.552l1.009-1.2a11.293,11.293,0,0,0,5.163,2.091l12.29,12.5a1.543,1.543,0,0,1,.178,2.211Zm13.316-4.873-3.733.376a1.537,1.537,0,0,1-1.134-.347,1.582,1.582,0,0,1-.577-1.075L57.537,29.863a1.583,1.583,0,0,1,1.4-1.74h0l3.734-.376a1.537,1.537,0,0,1,1.134.346,1.583,1.583,0,0,1,.577,1.075l2.144,21.614a1.584,1.584,0,0,1-1.4,1.74Z" transform="translate(0.001)" fill="#00ffdf"/>
        <path id="Trazado_879063" data-name="Trazado 879063" d="M193.337,69.122a4.057,4.057,0,0,0,5.737,0l6.6-6.6a4.057,4.057,0,0,0-5.737-5.737l-3.733,3.733-.634-.634a4.057,4.057,0,1,0-5.737,5.737Zm-1.59-7.327a1.352,1.352,0,0,1,1.912,0l1.59,1.59a1.352,1.352,0,0,0,1.912,0L201.85,58.7a1.352,1.352,0,1,1,1.912,1.912l-6.6,6.6a1.352,1.352,0,0,1-1.912,0l-3.5-3.5a1.353,1.353,0,0,1,0-1.912Z" transform="translate(-163.135 -48.078)" fill="#00ffdf"/>
        <path id="Trazado_879064" data-name="Trazado 879064" d="M7.213,309.219a1.352,1.352,0,0,0,0-2.7h0a1.352,1.352,0,0,0,0,2.7Z" transform="translate(-5.067 -265.063)" fill="#00ffdf"/>
        <path id="Trazado_879065" data-name="Trazado 879065" d="M349.717,268.331a1.352,1.352,0,1,0,0-2.7h0a1.352,1.352,0,0,0,0,2.7Z" transform="translate(-301.253 -229.704)" fill="#00ffdf"/>
      </g>
    </g>
  </g>
</svg>
