<svg xmlns="http://www.w3.org/2000/svg" width="130" height="130" viewBox="0 0 130 130">
  <g id="Grupo_1102311" data-name="Grupo 1102311" transform="translate(-390 -8162)">
    <rect id="Rectángulo_402592" data-name="Rectángulo 402592" width="130" height="130" rx="21" transform="translate(390 8162)" fill="#f7eefe"/>
    <g id="Grupo_1103095" data-name="Grupo 1103095" transform="translate(417.098 8179.326)">
      <path id="Trazado_879030" data-name="Trazado 879030" d="M68.511,66.291c-.592.007-.527-.022-1.314.033V47.918a3.577,3.577,0,0,0-3.573-3.573H44.2V16.617l8.518,8.234a2.5,2.5,0,0,1,.758,1.786V40.221a1.11,1.11,0,0,0,2.221,0V26.637a4.729,4.729,0,0,0-1.435-3.383L43.866,13.2a1.133,1.133,0,0,0-1.126-.254L24.082,19.218V14.9a3.487,3.487,0,0,0-3.652-3.419A3.423,3.423,0,0,0,17.01,14.9v6.7l-4.881,1.641A4.7,4.7,0,0,0,8.923,27.7V66.3A9.169,9.169,0,0,0,0,75.451V81.1a2.783,2.783,0,0,0,2.78,2.78H73.024A2.783,2.783,0,0,0,75.8,81.1V73.584a7.3,7.3,0,0,0-7.293-7.293Zm0,2.221a5.078,5.078,0,0,1,5.072,5.072v1.165H62.812V73.584A5.173,5.173,0,0,1,68.511,68.512ZM64.976,47.918V66.9a7.3,7.3,0,0,0-4.385,6.686v1.165H44.2V46.567h19.42a1.353,1.353,0,0,1,1.352,1.352ZM19.231,14.9a1.2,1.2,0,0,1,1.2-1.2,1.3,1.3,0,0,1,1.432,1.2v5.07l-2.631.884ZM8.923,68.516v6.233H2.256A6.95,6.95,0,0,1,8.923,68.516ZM2.221,81.1V76.97h6.7v4.687H2.78a.56.56,0,0,1-.559-.559Zm8.923-53.4a2.482,2.482,0,0,1,1.693-2.355l29.148-9.8v6.05l-24.217,8.14a1.11,1.11,0,1,0,.708,2.105l23.51-7.9v5.649l-24.217,8.14a1.11,1.11,0,1,0,.708,2.105l23.51-7.9v5.649l-24.217,8.14a1.11,1.11,0,1,0,.708,2.105l23.51-7.9v5.531s0,0,0,0v.114L17.767,53.71a1.11,1.11,0,1,0,.708,2.105l23.509-7.9v5.649L26.862,58.645a1.11,1.11,0,1,0,.708,2.105L41.984,55.9V81.657H32.391V70.119a2.4,2.4,0,0,0-3.042-2.309L19.014,70.695a2.749,2.749,0,0,0-2,2.639v8.323H11.144Zm8.087,45.638a.521.521,0,0,1,.38-.5l3.979-1.111v9.934H19.231V73.334Zm6.58,8.323V71.1l4.135-1.154a.177.177,0,0,1,.224.17V81.657Zm18.394,0V76.97H60.591v4.687ZM73.583,81.1a.56.56,0,0,1-.559.559H62.812V76.97H73.583Z" transform="translate(0 0)" fill="#a854f3"/>
      <path id="Trazado_879031" data-name="Trazado 879031" d="M116,344.6a1.108,1.108,0,0,0,.354-.058l4.123-1.386a1.11,1.11,0,1,0-.708-2.105l-4.123,1.386A1.111,1.111,0,0,0,116,344.6Z" transform="translate(-97.878 -280.738)" fill="#a854f3"/>
      <path id="Trazado_879032" data-name="Trazado 879032" d="M320.642,273.447h10.889a1.875,1.875,0,0,0,1.873-1.873V268.9a1.875,1.875,0,0,0-1.873-1.873H320.642a1.875,1.875,0,0,0-1.873,1.873v2.673A1.875,1.875,0,0,0,320.642,273.447Zm.348-4.2h10.193v1.977H320.99Z" transform="translate(-271.574 -217.722)" fill="#a854f3"/>
      <path id="Trazado_879033" data-name="Trazado 879033" d="M320.642,330.477h10.889A1.875,1.875,0,0,0,333.4,328.6v-2.673a1.875,1.875,0,0,0-1.873-1.873H320.642a1.875,1.875,0,0,0-1.873,1.873V328.6A1.875,1.875,0,0,0,320.642,330.477Zm.348-4.2h10.193v1.977H320.99Z" transform="translate(-271.574 -266.308)" fill="#a854f3"/>
      <path id="Trazado_879034" data-name="Trazado 879034" d="M320.642,388.09h3.6a1.875,1.875,0,0,0,1.873-1.873v-2.673a1.875,1.875,0,0,0-1.873-1.873h-3.6a1.875,1.875,0,0,0-1.873,1.873v2.673A1.875,1.875,0,0,0,320.642,388.09Zm.348-4.2H323.9v1.977H320.99Z" transform="translate(-271.574 -315.391)" fill="#a854f3"/>
    </g>
  </g>
</svg>
