<svg xmlns="http://www.w3.org/2000/svg" width="126" height="126" viewBox="0 0 126 126">
  <g id="Grupo_1102993" data-name="Grupo 1102993" transform="translate(-1158 -3032)">
    <g id="Grupo_1102827" data-name="Grupo 1102827" transform="translate(938.019 1112.543)">
      <circle id="Elipse_11549" data-name="Elipse 11549" cx="61" cy="61" r="61" transform="translate(221.981 1921.457)" fill="#fff" stroke="#00ffdf" stroke-width="4"/>
    </g>
    <g id="Grupo_1102992" data-name="Grupo 1102992" transform="translate(1174.552 3058)">
      <g id="Grupo_1102991" data-name="Grupo 1102991" transform="translate(11.448 0)">
        <path id="Trazado_878668" data-name="Trazado 878668" d="M141.623,223.885h6.194a1.081,1.081,0,1,0,0-2.163h-6.194a1.081,1.081,0,1,0,0,2.163Z" transform="translate(-121.929 -189.755)" fill="#a854f3"/>
        <path id="Trazado_878669" data-name="Trazado 878669" d="M141.623,260.233h25.155a1.081,1.081,0,0,0,0-2.163H141.623a1.081,1.081,0,1,0,0,2.163Z" transform="translate(-121.929 -220.862)" fill="#a854f3"/>
        <path id="Trazado_878670" data-name="Trazado 878670" d="M276.287,294.417h-6.706a1.081,1.081,0,0,0,0,2.163h6.706a1.081,1.081,0,1,0,0-2.163Z" transform="translate(-231.439 -251.968)" fill="#a854f3"/>
        <path id="Trazado_878671" data-name="Trazado 878671" d="M80.571,7.26l-14-7a2.535,2.535,0,0,0-2.256,0l-14,7h0a2.509,2.509,0,0,0-1.4,2.257v2.012h-15.2a1.081,1.081,0,1,0,0,2.163h15.2v3.289a27.547,27.547,0,0,0,.355,4.506H31.142a1.081,1.081,0,1,0,0,2.163h18.6a21.155,21.155,0,0,0,1.075,3.078H31.142a1.081,1.081,0,0,0,0,2.163H51.925a21.272,21.272,0,0,0,1.249,1.885q.448.6.948,1.193H41.661a1.081,1.081,0,1,0,0,2.163H56.184a48.234,48.234,0,0,0,7.943,5.844,2.518,2.518,0,0,0,2.639,0l.328-.2v26.26H38.8V64.015a1.081,1.081,0,0,0-2.163,0V71.3a.361.361,0,0,1-.36.36H13.971a.361.361,0,0,1-.36-.36V55.721a.361.361,0,0,1,.36-.36H36.278a.361.361,0,0,1,.36.36v3.248a1.081,1.081,0,1,0,2.163,0V55.721a2.511,2.511,0,0,0-.082-.628H56.3a1.081,1.081,0,1,0,0-2.163H35.327V49.852H56.3a1.081,1.081,0,0,0,0-2.163H35.281a10.121,10.121,0,0,0-.782-3.078H45.7a1.081,1.081,0,1,0,0-2.163H33.231a10.183,10.183,0,0,0-12.887-2.825V13.692h8.34a1.081,1.081,0,1,0,0-2.163h-8.7a1.8,1.8,0,0,0-1.8,1.8V41.167a10.174,10.174,0,0,0-3.259,7.466V53.2h-.952a2.526,2.526,0,0,0-2.523,2.523V71.3a2.526,2.526,0,0,0,2.523,2.523H36.278A2.526,2.526,0,0,0,38.8,71.3v-3.1H67.454a1.8,1.8,0,0,0,1.8-1.8V38.383a32.945,32.945,0,0,0,8.463-7.608,22.311,22.311,0,0,0,4.247-13.794V9.517a2.509,2.509,0,0,0-1.4-2.257ZM28.839,53.2H21.411V48.633a3.714,3.714,0,0,1,7.428,0V53.2ZM17.085,48.633a8.039,8.039,0,1,1,16.079,0V53.2H31V48.633a5.877,5.877,0,0,0-11.754,0V53.2H17.085ZM79.8,16.981c0,10.392-5.421,15.8-14.166,21.148a.368.368,0,0,1-.382,0C56.51,32.777,51.089,27.373,51.089,16.981V9.517a.358.358,0,0,1,.2-.323l14-7a.362.362,0,0,1,.322,0l14,7a.358.358,0,0,1,.2.323v7.464Z" transform="translate(-11.448 0)" fill="#a854f3"/>
        <path id="Trazado_878672" data-name="Trazado 878672" d="M320.569,52.13a10.943,10.943,0,1,0,10.308,14.616,1.081,1.081,0,1,0-2.037-.726,8.784,8.784,0,1,1,.37-4.494,1.081,1.081,0,0,0,2.129-.378,10.922,10.922,0,0,0-10.771-9.018Z" transform="translate(-266.635 -44.614)" fill="#a854f3"/>
        <path id="Trazado_878673" data-name="Trazado 878673" d="M360.583,105.623l-4.261,4.261-2.477-2.478a1.081,1.081,0,0,0-1.529,1.529l3.242,3.242a1.081,1.081,0,0,0,1.529,0l5.025-5.025a1.081,1.081,0,0,0-1.529-1.529Z" transform="translate(-302.899 -90.123)" fill="#a854f3"/>
      </g>
    </g>
  </g>
</svg>
