<svg xmlns="http://www.w3.org/2000/svg" width="124" height="124" viewBox="0 0 124 124">
  <g id="Grupo_1103059" data-name="Grupo 1103059" transform="translate(-513 -5505)">
    <g id="Grupo_1102851" data-name="Grupo 1102851" transform="translate(293.019 3585.543)">
      <circle id="Elipse_11549" data-name="Elipse 11549" cx="60" cy="60" r="60" transform="translate(221.981 1921.457)" fill="#fff" stroke="#8722e2" stroke-width="4"/>
    </g>
    <g id="Grupo_1103058" data-name="Grupo 1103058" transform="translate(536 5528)">
      <g id="Grupo_1103033" data-name="Grupo 1103033" transform="translate(10.943 29.945)">
        <g id="Grupo_1103030" data-name="Grupo 1103030" transform="translate(2.883)">
          <path id="Trazado_878934" data-name="Trazado 878934" d="M130.77,183.027v38.035H82.953V183.027a3.37,3.37,0,0,1,3.37-3.37H127.4A3.37,3.37,0,0,1,130.77,183.027Z" transform="translate(-82.953 -179.657)" fill="#39484c"/>
        </g>
        <g id="Grupo_1103031" data-name="Grupo 1103031" transform="translate(8.083 5.121)">
          <path id="Trazado_878935" data-name="Trazado 878935" d="M114.146,210.378h37.418v31.163H114.146Z" transform="translate(-114.146 -210.378)" fill="#fff"/>
        </g>
        <g id="Grupo_1103032" data-name="Grupo 1103032" transform="translate(0 41.405)">
          <path id="Trazado_878936" data-name="Trazado 878936" d="M119.238,428.064H65.655v3.323a3.334,3.334,0,0,0,3.334,3.334H115.9a3.334,3.334,0,0,0,3.334-3.334Z" transform="translate(-65.655 -428.064)" fill="#617a7f"/>
        </g>
      </g>
      <g id="Grupo_1103045" data-name="Grupo 1103045" transform="translate(43.847 6.057)">
        <g id="Grupo_1103039" data-name="Grupo 1103039" transform="translate(0 6.22)">
          <g id="Grupo_1103034" data-name="Grupo 1103034">
            <path id="Trazado_878937" data-name="Trazado 878937" d="M294.219,98.1H266.06a3,3,0,0,1-3-3V73.655h34.16V95.1A3,3,0,0,1,294.219,98.1Z" transform="translate(-263.06 -73.655)" fill="#8383ff"/>
          </g>
          <g id="Grupo_1103038" data-name="Grupo 1103038" transform="translate(7.098 7.033)">
            <g id="Grupo_1103035" data-name="Grupo 1103035" transform="translate(0 1.457)">
              <path id="Trazado_878938" data-name="Trazado 878938" d="M305.647,129.078l6.321,3.268v-1.9l-3.931-1.978,3.931-1.978v-1.9l-6.321,3.268Z" transform="translate(-305.647 -124.591)" fill="#fff"/>
            </g>
            <g id="Grupo_1103036" data-name="Grupo 1103036" transform="translate(7.586)">
              <path id="Trazado_878939" data-name="Trazado 878939" d="M351.161,125.21h1.814l3.6-9.363h-1.827Z" transform="translate(-351.161 -115.847)" fill="#fff"/>
            </g>
            <g id="Grupo_1103037" data-name="Grupo 1103037" transform="translate(13.642 1.459)">
              <path id="Trazado_878940" data-name="Trazado 878940" d="M387.492,124.6v1.9l3.959,1.977-3.959,1.977v1.9l6.275-3.231.046-.024v-1.244Z" transform="translate(-387.492 -124.6)" fill="#fff"/>
            </g>
          </g>
        </g>
        <g id="Grupo_1103044" data-name="Grupo 1103044">
          <g id="Grupo_1103040" data-name="Grupo 1103040">
            <path id="Trazado_878941" data-name="Trazado 878941" d="M297.22,42.558H263.06v-3.22a3,3,0,0,1,3-3h27.826a3.334,3.334,0,0,1,3.334,3.334Z" transform="translate(-263.06 -36.338)" fill="#4646f9"/>
          </g>
          <g id="Grupo_1103041" data-name="Grupo 1103041" transform="translate(29.43 2.187)">
            <ellipse id="Elipse_11652" data-name="Elipse 11652" cx="0.92" cy="0.923" rx="0.92" ry="0.923" fill="#fff"/>
          </g>
          <g id="Grupo_1103042" data-name="Grupo 1103042" transform="translate(25.488 2.187)">
            <ellipse id="Elipse_11653" data-name="Elipse 11653" cx="0.92" cy="0.923" rx="0.92" ry="0.923" fill="#fff"/>
          </g>
          <g id="Grupo_1103043" data-name="Grupo 1103043" transform="translate(21.547 2.187)">
            <ellipse id="Elipse_11654" data-name="Elipse 11654" cx="0.92" cy="0.923" rx="0.92" ry="0.923" fill="#fff"/>
          </g>
        </g>
      </g>
      <g id="Grupo_1103048" data-name="Grupo 1103048" transform="translate(26.783 39.695)">
        <g id="Grupo_1103046" data-name="Grupo 1103046">
          <path id="Trazado_878942" data-name="Trazado 878942" d="M182.586,250.9v-3.563l-2.53-.619a8.7,8.7,0,0,0-.766-1.855l1.356-2.234-2.519-2.519L175.9,241.46a8.7,8.7,0,0,0-1.852-.772l-.62-2.537h-3.563l-.619,2.53a8.7,8.7,0,0,0-1.855.766l-2.234-1.356-2.519,2.519,1.352,2.228a8.7,8.7,0,0,0-.772,1.852l-2.537.62v3.563l2.53.619a8.7,8.7,0,0,0,.766,1.855l-1.356,2.234,2.519,2.519,2.228-1.352a8.7,8.7,0,0,0,1.852.772l.62,2.537H173.4l.619-2.53a8.7,8.7,0,0,0,1.855-.766l2.234,1.356,2.519-2.519-1.352-2.228a8.7,8.7,0,0,0,.772-1.852Z" transform="translate(-160.681 -238.151)" fill="#53d390"/>
        </g>
        <g id="Grupo_1103047" data-name="Grupo 1103047" transform="translate(6.685 6.685)">
          <circle id="Elipse_11655" data-name="Elipse 11655" cx="4.267" cy="4.267" r="4.267" fill="#fff"/>
        </g>
      </g>
      <g id="XMLID_157_" transform="translate(0 0)">
        <g id="XMLID_164_" transform="translate(6.378 6.379)">
          <g id="XMLID_165_">
            <path id="Trazado_878943" data-name="Trazado 878943" d="M62.106,50.18a11.92,11.92,0,1,0-19.834,8.9,9.757,9.757,0,0,1,3.345,7.282v2.721h9.136V66.366A9.757,9.757,0,0,1,58.1,59.084,11.87,11.87,0,0,0,62.106,50.18Z" transform="translate(-38.265 -38.272)" fill="#ffbf4d"/>
          </g>
          <g id="Grupo_1103049" data-name="Grupo 1103049" transform="translate(2.999 3.042)">
            <path id="Trazado_878944" data-name="Trazado 878944" d="M57.09,66.223a.833.833,0,0,1-.833-.833,8.9,8.9,0,0,1,8.921-8.866.833.833,0,0,1,0,1.667,7.235,7.235,0,0,0-7.255,7.2A.833.833,0,0,1,57.09,66.223Z" transform="translate(-56.257 -56.524)" fill="#fff"/>
          </g>
          <path id="Trazado_878945" data-name="Trazado 878945" d="M97.253,105.708a3.194,3.194,0,1,0-4.016,3.118.828.828,0,0,0-.011.112v7.721a.833.833,0,1,0,1.667,0v-7.721a.827.827,0,0,0-.011-.112,3.222,3.222,0,0,0,2.371-3.118Z" transform="translate(-82.098 -91.776)" fill="#fff"/>
          <g id="Grupo_1103050" data-name="Grupo 1103050" transform="translate(4.715 24.882)">
            <path id="Trazado_878946" data-name="Trazado 878946" d="M78.374,187.551H69.219a2.669,2.669,0,0,0-2.669,2.669v.058a2.669,2.669,0,0,0,2.669,2.669h9.155a2.669,2.669,0,0,0,2.669-2.669v-.058A2.669,2.669,0,0,0,78.374,187.551Z" transform="translate(-66.55 -187.551)" fill="#4646f9"/>
          </g>
          <g id="Grupo_1103051" data-name="Grupo 1103051" transform="translate(7.295 30.278)">
            <path id="Trazado_878947" data-name="Trazado 878947" d="M91.363,219.927H82.031v2.949a1.667,1.667,0,0,0,1.667,1.667h6a1.667,1.667,0,0,0,1.667-1.667Z" transform="translate(-82.031 -219.927)" fill="#5252ff"/>
          </g>
        </g>
        <g id="XMLID_158_">
          <g id="XMLID_163_" transform="translate(17.476)">
            <path id="Trazado_878948" data-name="Trazado 878948" d="M105.681,3.134a.833.833,0,0,1-.833-.833V.833a.833.833,0,0,1,1.667,0V2.3A.833.833,0,0,1,105.681,3.134Z" transform="translate(-104.848 0)" fill="#ffbf4d"/>
          </g>
          <g id="XMLID_162_" transform="translate(4.024 5.96)">
            <path id="Trazado_878949" data-name="Trazado 878949" d="M26,38.463a.831.831,0,0,1-.594-.249l-1.021-1.037a.833.833,0,0,1,1.188-1.169l1.021,1.037A.854.854,0,0,1,26,38.463Z" transform="translate(-24.142 -35.759)" fill="#ffbf4d"/>
          </g>
          <g id="XMLID_161_" transform="translate(0 15.77)">
            <path id="Trazado_878950" data-name="Trazado 878950" d="M2.277,96.276H.833a.833.833,0,0,1,0-1.667H2.277a.833.833,0,0,1,0,1.667Z" transform="translate(0 -94.609)" fill="#ffbf4d"/>
          </g>
          <g id="XMLID_160_" transform="translate(33.568 15.71)">
            <path id="Trazado_878951" data-name="Trazado 878951" d="M203.667,95.916h-1.443a.833.833,0,0,1,0-1.667h1.443a.833.833,0,0,1,0,1.667Z" transform="translate(-201.39 -94.249)" fill="#ffbf4d"/>
          </g>
          <g id="XMLID_159_" transform="translate(29.945 5.918)">
            <path id="Trazado_878952" data-name="Trazado 878952" d="M180.468,38.209a.854.854,0,0,1-.594-1.418l1.021-1.037a.833.833,0,0,1,1.188,1.169l-1.021,1.037A.832.832,0,0,1,180.468,38.209Z" transform="translate(-179.655 -35.505)" fill="#ffbf4d"/>
          </g>
        </g>
      </g>
      <g id="Grupo_1103055" data-name="Grupo 1103055" transform="translate(49.361 49.362)">
        <g id="Grupo_1103052" data-name="Grupo 1103052">
          <path id="Trazado_878953" data-name="Trazado 878953" d="M324.788,312.811v-4.659l-3.309-.809a11.378,11.378,0,0,0-1-2.425L322.251,302l-3.294-3.294-2.913,1.769a11.363,11.363,0,0,0-2.422-1.009l-.811-3.318h-4.659l-.809,3.309a11.377,11.377,0,0,0-2.425,1L302,298.681l-3.294,3.294,1.769,2.913a11.364,11.364,0,0,0-1.009,2.422l-3.318.811v4.659l3.309.809a11.374,11.374,0,0,0,1,2.425l-1.774,2.921,3.294,3.294,2.913-1.769a11.365,11.365,0,0,0,2.422,1.009l.811,3.318h4.659l.809-3.309a11.375,11.375,0,0,0,2.425-1l2.921,1.774,3.294-3.294-1.769-2.913a11.363,11.363,0,0,0,1.009-2.422Z" transform="translate(-296.143 -296.144)" fill="#ed5132"/>
        </g>
        <g id="Grupo_1103053" data-name="Grupo 1103053" transform="translate(6.82 6.82)">
          <circle id="Elipse_11656" data-name="Elipse 11656" cx="7.502" cy="7.502" r="7.502" fill="#fff"/>
        </g>
        <g id="Grupo_1103054" data-name="Grupo 1103054" transform="translate(11.29 11.289)">
          <path id="Trazado_878954" data-name="Trazado 878954" d="M366.908,369.941a3.033,3.033,0,1,1,3.033-3.033A3.037,3.037,0,0,1,366.908,369.941Z" transform="translate(-363.875 -363.875)" fill="#e2e2e2"/>
        </g>
      </g>
      <g id="Grupo_1103056" data-name="Grupo 1103056" transform="translate(35.67 0)">
        <path id="Trazado_878955" data-name="Trazado 878955" d="M219.376,3.06l1.291.274-1.493.424a2.222,2.222,0,0,0-1.563,1.658l-.277,1.252-.277-1.252a2.222,2.222,0,0,0-1.563-1.658L214,3.334l1.291-.274a2.222,2.222,0,0,0,1.7-1.648L217.334,0l.344,1.412a2.222,2.222,0,0,0,1.7,1.648Z" transform="translate(-214 0)" fill="#c2c2ff"/>
      </g>
      <g id="Grupo_1103057" data-name="Grupo 1103057" transform="translate(1.667 40.808)">
        <path id="Trazado_878956" data-name="Trazado 878956" d="M15.376,247.884l1.291.274-1.493.424a2.222,2.222,0,0,0-1.563,1.658l-.277,1.252-.277-1.252a2.222,2.222,0,0,0-1.563-1.658L10,248.158l1.291-.274a2.222,2.222,0,0,0,1.7-1.648l.344-1.412.344,1.412A2.223,2.223,0,0,0,15.376,247.884Z" transform="translate(-10 -244.824)" fill="#ff8a80"/>
      </g>
    </g>
  </g>
</svg>
