<svg xmlns="http://www.w3.org/2000/svg" width="190" height="95" viewBox="0 0 190 95">
  <g id="Grupo_1103078" data-name="Grupo 1103078" transform="translate(-1230 -391)">
    <rect id="Rectángulo_403300" data-name="Rectángulo 403300" width="190" height="95" rx="10" transform="translate(1230 391)" fill="#a854f3"/>
    <circle id="Elipse_11661" data-name="Elipse 11661" cx="21" cy="21" r="21" transform="translate(1273 409)" fill="#fff" opacity="0.2"/>
    <g id="Elipse_11662" data-name="Elipse 11662" transform="translate(1332 427)" fill="none" stroke="#fff" stroke-width="6" opacity="0.2">
      <circle cx="21" cy="21" r="21" stroke="none"/>
      <circle cx="21" cy="21" r="18" fill="none"/>
    </g>
    <g id="Grupo_1103077" data-name="Grupo 1103077" transform="translate(1263.17 405.037)">
      <path id="Trazado_879007" data-name="Trazado 879007" d="M298.937,384.253l4.587,3.888h0a1.507,1.507,0,0,0,1.962-.021l6.772-5.987a2.032,2.032,0,0,0,.169-2.877L311,377.665a2.038,2.038,0,0,0-2.857-.172L304.5,380.7l-1.526-1.208-.011-.008a2.02,2.02,0,0,0-2.738.24l-1.471,1.608a2.032,2.032,0,0,0,.187,2.922Zm1.239-1.619,1.471-1.608a.1.1,0,0,1,.133-.014l1.806,1.43.011.008a1.5,1.5,0,0,0,1.9-.062l3.921-3.444a.1.1,0,0,1,.142.008l1.424,1.593a.1.1,0,0,1-.008.143l-6.491,5.738-4.3-3.647a.1.1,0,0,1-.009-.145Z" transform="translate(-230.952 -328.447)" fill="#00ffdf"/>
      <path id="Trazado_879008" data-name="Trazado 879008" d="M81.994,45.3V3.1a3.1,3.1,0,0,0-3.1-3.1H42.631a3.1,3.1,0,0,0-3.1,3.1V4.266h-3.3a3.1,3.1,0,0,0-3.1,3.1V9.378a.966.966,0,0,0,1.931,0V7.365A1.169,1.169,0,0,1,36.232,6.2H63V8.533H47.928a2,2,0,0,0-2,2v2.206a2,2,0,0,0,2,2H63V15.9A3.1,3.1,0,0,0,66.1,19h9.7V42.721q-.576-.058-1.167-.058a11.584,11.584,0,0,0-6.382,1.906.966.966,0,0,0,1.061,1.614,9.7,9.7,0,1,1-2.876,2.923A.966.966,0,1,0,64.8,48.072a11.622,11.622,0,0,0,1,13.79H36.232a1.169,1.169,0,0,1-1.167-1.167V13.885a.966.966,0,0,0-1.931,0V60.694a3.1,3.1,0,0,0,3.1,3.1h31.69A11.626,11.626,0,0,0,81.994,45.3ZM47.928,12.8a.064.064,0,0,1-.064-.064V10.528a.064.064,0,0,1,.064-.064H63V12.8ZM66.1,17.065A1.169,1.169,0,0,1,64.929,15.9V7.563l9.5,9.5H66.1Zm11.629.961a.963.963,0,0,0-.281-.678l-12.8-12.8a.964.964,0,0,0-.678-.281l0,0h-22.5V3.1a1.169,1.169,0,0,1,1.167-1.167H78.895A1.169,1.169,0,0,1,80.062,3.1V44.013a11.56,11.56,0,0,0-2.335-.93V18.031l0,0Z" fill="#00ffdf"/>
      <path id="Trazado_879009" data-name="Trazado 879009" d="M74.549,366.463v8.606a2,2,0,0,0,2,2H85.15a2,2,0,0,0,2-2v-8.606a2,2,0,0,0-2-2H76.545A2,2,0,0,0,74.549,366.463Zm1.931,0a.064.064,0,0,1,.064-.064H85.15a.064.064,0,0,1,.064.064v8.606a.064.064,0,0,1-.064.064H76.545a.064.064,0,0,1-.064-.064Z" transform="translate(-36.083 -317.538)" fill="#00ffdf"/>
      <path id="Trazado_879010" data-name="Trazado 879010" d="M100.364,401.663a.961.961,0,0,0,.431-.1l4.266-2.133a.966.966,0,1,0-.864-1.727l-4.266,2.133a.966.966,0,0,0,.433,1.83Z" transform="translate(-57.732 -346.402)" fill="#00ffdf"/>
      <path id="Trazado_879011" data-name="Trazado 879011" d="M83.8,316.7h8.533a.966.966,0,1,0,0-1.931H83.8a.966.966,0,1,0,0,1.931Z" transform="translate(-43.301 -274.237)" fill="#00ffdf"/>
      <path id="Trazado_879012" data-name="Trazado 879012" d="M83.8,167.6h29.864a.966.966,0,0,0,0-1.931H83.8a.966.966,0,0,0,0,1.931Z" transform="translate(-43.301 -144.335)" fill="#00ffdf"/>
      <path id="Trazado_879013" data-name="Trazado 879013" d="M83.8,200.731h29.864a.966.966,0,1,0,0-1.931H83.8a.966.966,0,0,0,0,1.931Z" transform="translate(-43.301 -173.202)" fill="#00ffdf"/>
      <path id="Trazado_879014" data-name="Trazado 879014" d="M83.8,233.864h29.864a.966.966,0,1,0,0-1.931H83.8a.966.966,0,1,0,0,1.931Z" transform="translate(-43.301 -202.069)" fill="#00ffdf"/>
      <path id="Trazado_879015" data-name="Trazado 879015" d="M166.632,265.067a.966.966,0,1,0,0,1.931h8.533a.966.966,0,1,0,0-1.931Z" transform="translate(-115.468 -230.936)" fill="#00ffdf"/>
      <path id="Trazado_879016" data-name="Trazado 879016" d="M435.969,50.555a3.07,3.07,0,0,0-2.288-.853,3.126,3.126,0,0,0-2.95,3.156v29.8a2.02,2.02,0,0,0,.6,1.437l1.067,1.067a2.023,2.023,0,0,0,.471.35v1.412a.966.966,0,1,0,1.931,0V85.515a2.024,2.024,0,0,0,.471-.35l1.067-1.066a2.019,2.019,0,0,0,.6-1.437V52.8A3.112,3.112,0,0,0,435.969,50.555Zm-3.306,7.474H435V78.5h-2.335Zm1.11-6.4h.057A1.168,1.168,0,0,1,435,52.8v3.3h-2.335v-3.24a1.212,1.212,0,0,1,1.11-1.226Zm1.2,31.1L433.9,83.8a.1.1,0,0,1-.143,0l-1.067-1.067a.1.1,0,0,1-.03-.071V80.427H435v2.234A.1.1,0,0,1,434.968,82.733Z" transform="translate(-346.403 -43.299)" fill="#00ffdf"/>
    </g>
  </g>
</svg>
