<svg xmlns="http://www.w3.org/2000/svg" width="130" height="130" viewBox="0 0 130 130">
  <g id="Grupo_1102914" data-name="Grupo 1102914" transform="translate(-390 -8162)">
    <rect id="Rectángulo_402592" data-name="Rectángulo 402592" width="130" height="130" rx="21" transform="translate(390 8162)" fill="#f7eefe"/>
    <g id="Grupo_1103101" data-name="Grupo 1103101" transform="translate(416.13 8183.189)">
      <path id="Trazado_879066" data-name="Trazado 879066" d="M69.86,7.379A7.307,7.307,0,0,0,62.482,0H7.879A7.307,7.307,0,0,0,.5,7.379V19.185H12.306V81.167a7.307,7.307,0,0,0,7.379,7.379H69.86a7.307,7.307,0,0,0,7.379-7.379V73.788H69.86ZM12.306,16.233H3.452V7.379A4.348,4.348,0,0,1,7.879,2.952a4.348,4.348,0,0,1,4.427,4.427Zm2.952,64.933V7.379a7.951,7.951,0,0,0-1.476-4.427h48.7a4.348,4.348,0,0,1,4.427,4.427V73.788h-42.8v7.379a4.427,4.427,0,1,1-8.855,0Zm59.03-4.427v4.427a4.348,4.348,0,0,1-4.427,4.427H25.588a6.962,6.962,0,0,0,1.476-4.427V76.739Zm0,0" fill="#a854f3"/>
      <path id="Trazado_879067" data-name="Trazado 879067" d="M280.5,256h11.806v2.952H280.5Zm0,0" transform="translate(-228.349 -208.776)" fill="#a854f3"/>
      <path id="Trazado_879068" data-name="Trazado 879068" d="M96.5,256h30.991v2.952H96.5Zm0,0" transform="translate(-78.291 -208.776)" fill="#a854f3"/>
      <path id="Trazado_879069" data-name="Trazado 879069" d="M184.5,288h29.515v2.952H184.5Zm0,0" transform="translate(-150.058 -234.873)" fill="#a854f3"/>
      <path id="Trazado_879070" data-name="Trazado 879070" d="M96.5,288h13.282v2.952H96.5Zm0,0" transform="translate(-78.291 -234.873)" fill="#a854f3"/>
      <path id="Trazado_879071" data-name="Trazado 879071" d="M240.5,352h19.185v2.952H240.5Zm0,0" transform="translate(-195.727 -287.067)" fill="#a854f3"/>
      <path id="Trazado_879072" data-name="Trazado 879072" d="M96.5,352h23.612v2.952H96.5Zm0,0" transform="translate(-78.291 -287.067)" fill="#a854f3"/>
      <path id="Trazado_879073" data-name="Trazado 879073" d="M169.059,56.2l1.771,1.181L172.6,56.2a19.288,19.288,0,0,0,8.559-15.938v-4.87L170.83,32,160.5,35.394v4.87A19.288,19.288,0,0,0,169.059,56.2ZM163.451,37.46l7.379-2.509,7.379,2.509v2.8a16.286,16.286,0,0,1-7.231,13.577h-.148l-.148-.147a16.1,16.1,0,0,1-7.231-13.577Zm0,0" transform="translate(-130.484 -26.097)" fill="#a854f3"/>
      <path id="Trazado_879074" data-name="Trazado 879074" d="M211.141,79.495l-2.952-.3a9.146,9.146,0,0,1-3.689,6.346l1.623,2.508A12.1,12.1,0,0,0,211.141,79.495Zm0,0" transform="translate(-166.368 -64.589)" fill="#a854f3"/>
      <path id="Trazado_879075" data-name="Trazado 879075" d="M144.5,320h36.894v2.952H144.5Zm0,0" transform="translate(-117.436 -260.97)" fill="#a854f3"/>
      <path id="Trazado_879076" data-name="Trazado 879076" d="M96.5,320h5.9v2.952H96.5Zm0,0" transform="translate(-78.291 -260.97)" fill="#a854f3"/>
      <path id="Trazado_879077" data-name="Trazado 879077" d="M184.5,224h29.515v2.952H184.5Zm0,0" transform="translate(-150.058 -182.679)" fill="#a854f3"/>
      <path id="Trazado_879078" data-name="Trazado 879078" d="M96.5,224h13.282v2.952H96.5Zm0,0" transform="translate(-78.291 -182.679)" fill="#a854f3"/>
      <path id="Trazado_879079" data-name="Trazado 879079" d="M160.5,184h20.661v2.952H160.5Zm0,0" transform="translate(-130.485 -150.058)" fill="#a854f3"/>
    </g>
  </g>
</svg>
