<svg xmlns="http://www.w3.org/2000/svg" width="123" height="95" viewBox="0 0 123 95">
  <g id="Grupo_1103076" data-name="Grupo 1103076" transform="translate(-199 -474)">
    <rect id="Rectángulo_403293" data-name="Rectángulo 403293" width="123" height="95" rx="10" transform="translate(199 474)" fill="#a854f3"/>
    <g id="Grupo_1103075" data-name="Grupo 1103075" transform="translate(225.64 483)">
      <path id="Trazado_879001" data-name="Trazado 879001" d="M191.558,165.889a1.207,1.207,0,0,0-.435-.015,2.883,2.883,0,0,1-2.55-2.858,1.268,1.268,0,0,0-2.536,0,5.424,5.424,0,0,0,3.988,5.223v1.268a1.268,1.268,0,1,0,2.536,0v-1.191a5.414,5.414,0,0,0-1.109-10.714,2.879,2.879,0,1,1,2.879-2.879,1.268,1.268,0,0,0,2.536,0,5.424,5.424,0,0,0-4.305-5.3v-1.154a1.268,1.268,0,0,0-2.536,0V149.5a5.414,5.414,0,0,0,1.426,10.637,2.877,2.877,0,0,1,.105,5.752Zm0,0" transform="translate(-156.25 -123.702)" fill="#00ffdf"/>
      <path id="Trazado_879002" data-name="Trazado 879002" d="M104.195,124.878a18.386,18.386,0,1,0,18.386-18.386A18.386,18.386,0,0,0,104.195,124.878Zm18.386-15.851a15.851,15.851,0,1,1-15.851,15.851A15.85,15.85,0,0,1,122.581,109.028Zm0,0" transform="translate(-87.378 -89.614)" fill="#00ffdf"/>
      <path id="Trazado_879003" data-name="Trazado 879003" d="M59.84,331.408,49.908,336.1a8.09,8.09,0,0,0-6.9-4.256l-9.169-.252a9.684,9.684,0,0,1-4.167-1.076l-.933-.484a16.457,16.457,0,0,0-15.243.016l.058-2.114a1.268,1.268,0,0,0-1.233-1.3L2.27,326.356a1.267,1.267,0,0,0-1.3,1.233L.36,349.653a1.268,1.268,0,0,0,1.233,1.3l10.054.277h.035A1.268,1.268,0,0,0,12.95,350l.029-1.056,2.612-1.4a4.481,4.481,0,0,1,3.344-.366l15.6,4.378c.027.008.054.014.082.02a16.7,16.7,0,0,0,3.428.354,16.918,16.918,0,0,0,7.067-1.542,1.173,1.173,0,0,0,.157-.087l22.616-14.628a1.269,1.269,0,0,0,.415-1.689,6.4,6.4,0,0,0-8.458-2.577ZM2.93,348.456l.537-19.529,7.519.207-.537,19.53Zm41.038-.332a14.376,14.376,0,0,1-8.791.981l-15.556-4.367a7.011,7.011,0,0,0-5.227.571l-1.335.715.357-12.985a13.937,13.937,0,0,1,14.159-.755l.933.484a12.246,12.246,0,0,0,5.264,1.36l9.17.252a5.561,5.561,0,0,1,5.285,4.432l-13.658-.377a1.268,1.268,0,0,0-.07,2.535l15.073.415h.035a1.268,1.268,0,0,0,1.267-1.233,8.047,8.047,0,0,0-.123-1.645l10.188-4.814.03-.014a3.874,3.874,0,0,1,4.381.614Zm0,0" transform="translate(0 -274.631)" fill="#00ffdf"/>
      <path id="Trazado_879004" data-name="Trazado 879004" d="M214.739,13.313V1.268a1.268,1.268,0,1,0-2.536,0V13.313a1.268,1.268,0,1,0,2.536,0Zm0,0" transform="translate(-178.268)" fill="#00ffdf"/>
      <path id="Trazado_879005" data-name="Trazado 879005" d="M274.739,46.974V41.268a1.268,1.268,0,0,0-2.536,0v5.706a1.268,1.268,0,0,0,2.536,0Zm0,0" transform="translate(-228.758 -33.66)" fill="#00ffdf"/>
      <path id="Trazado_879006" data-name="Trazado 879006" d="M154.739,46.974V41.268a1.268,1.268,0,0,0-2.536,0v5.706a1.268,1.268,0,0,0,2.536,0Zm0,0" transform="translate(-127.777 -33.66)" fill="#00ffdf"/>
    </g>
  </g>
</svg>
