<svg xmlns="http://www.w3.org/2000/svg" xmlns:xlink="http://www.w3.org/1999/xlink" width="118.611" height="166.213" viewBox="0 0 118.611 166.213">
  <defs>
    <clipPath id="clip-path">
      <rect id="Rectángulo_403039" data-name="Rectángulo 403039" width="118.611" height="166.213" fill="#12263f"/>
    </clipPath>
    <filter id="Elipse_11625" x="-51.707" y="-22.123" width="336.63" height="335.888" filterUnits="userSpaceOnUse">
      <feOffset dx="9.39" dy="9.39" input="SourceAlpha"/>
      <feGaussianBlur stdDeviation="25.04" result="blur"/>
      <feFlood flood-opacity="0.078"/>
      <feComposite operator="in" in2="blur"/>
      <feComposite in="SourceGraphic"/>
    </filter>
  </defs>
  <g id="Enmascarar_grupo_1098749" data-name="Enmascarar grupo 1098749" clip-path="url(#clip-path)">
    <g transform="matrix(1, 0, 0, 1, 0, 0)" filter="url(#Elipse_11625)">
      <ellipse id="Elipse_11625-2" data-name="Elipse 11625" cx="93.195" cy="92.824" rx="93.195" ry="92.824" transform="translate(14.02 43.61)" fill="#fff" opacity="0.3"/>
    </g>
    <circle id="Elipse_11626" data-name="Elipse 11626" cx="33" cy="33" r="33" transform="translate(74.611 19)" fill="none" stroke="#fff" stroke-width="10" opacity="0.4"/>
    <path id="Trazado_877973" data-name="Trazado 877973" d="M163.312,435.524l1.325-1.695-5.158-4.062,5.158-4.062-1.325-1.694L156,429.768Zm14.936-1.695-5.158-4.062,5.158-4.062-1.325-1.694-7.309,5.757,7.309,5.757Zm14.3,0-1.327-1.045-3.83-3.016,5.158-4.062-1.325-1.694-7.309,5.757,7.309,5.757Z" transform="translate(-152.943 -282.313)" fill="#3a1d71" fill-rule="evenodd"/>
  </g>
</svg>
