<svg xmlns="http://www.w3.org/2000/svg" width="50" height="50" viewBox="0 0 50 50">
  <g id="Grupo_1103019" data-name="Grupo 1103019" transform="translate(-315 -2881)">
    <g id="Elipse_11634" data-name="Elipse 11634" transform="translate(315 2881)" fill="#3a1d71" stroke="#00ffdf" stroke-width="1">
      <circle cx="25" cy="25" r="25" stroke="none"/>
      <circle cx="25" cy="25" r="24.5" fill="none"/>
    </g>
    <g id="Grupo_1103018" data-name="Grupo 1103018" transform="translate(326.345 2892.345)">
      <path id="Trazado_878874" data-name="Trazado 878874" d="M26.91,2.881a.4.4,0,0,0,.4-.4V.4a.4.4,0,0,0-.4-.4H.4A.4.4,0,0,0,0,.4V2.481a.4.4,0,0,0,.4.4h.912V24.43H.4a.4.4,0,0,0-.4.4V26.91a.4.4,0,0,0,.4.4H26.91a.4.4,0,0,0,.4-.4V24.83a.4.4,0,0,0-.4-.4H26V2.881ZM.8.8H26.51V2.081H22.83a.4.4,0,1,0,0,.8h.421V24.43h-.518V18.758a2.926,2.926,0,0,0-2.527-2.9V2.881h.757a.4.4,0,1,0,0-.8H.8ZM9.851,24.43V22.365h4.277a.4.4,0,1,0,0-.8H9.851V19.5H17.46v2.065H15.995a.4.4,0,0,0,0,.8H17.46V24.43Zm-4.474,0V22.365H7.1V24.43Zm0-4.93H7.1v2.065H5.377ZM7.1,18.7H5.378A2.126,2.126,0,0,1,7.1,16.672Zm.8-5.967a.4.4,0,0,0-.8,0v3.129a2.927,2.927,0,0,0-2.528,2.9V24.43H4.059V2.881H7.1v7.932a.4.4,0,1,0,.8,0V2.881H9.051V24.43H7.9ZM17.46,2.881v2.1a4.6,4.6,0,0,0-7.609,0v-2.1Zm-5.546,15.1a2.442,2.442,0,0,1-.688-1.347.762.762,0,0,0,.689-.757v-.75a4.034,4.034,0,0,0,1.741.5,4.034,4.034,0,0,0,1.741-.5v.75a.762.762,0,0,0,.689.757,2.461,2.461,0,0,1-4.171,1.347Zm5.546-2.144H16.2v-1.21a4.838,4.838,0,0,0,1.263-1.34Zm-.011-7.983-.286,3.881c-.129,1.756-2.414,3.094-3.508,3.094s-3.378-1.337-3.508-3.094L9.862,7.853a3.8,3.8,0,1,1,7.587,0Zm-6.335,6.773v1.21H9.851V13.286A4.839,4.839,0,0,0,11.114,14.626Zm-1.263,2.01h.568a3.235,3.235,0,0,0,1.1,2.065H9.851Zm7.04,0h.568V18.7H15.795A3.235,3.235,0,0,0,16.892,16.635ZM18.26,2.881h1.146V24.43H18.26ZM21.932,18.7H20.206V16.673A2.124,2.124,0,0,1,21.932,18.7Zm-1.726.8h1.727v2.065H20.206Zm0,2.865h1.727V24.43H20.206ZM2.113,2.881H3.259V24.43H2.113Zm24.4,23.63H.8V25.23H26.51ZM25.2,24.43H24.052V2.881H25.2Z" fill="#00ffdf"/>
    </g>
  </g>
</svg>
