<svg xmlns="http://www.w3.org/2000/svg" width="190" height="90" viewBox="0 0 190 90">
  <g id="Grupo_1102548" data-name="Grupo 1102548" transform="translate(-1125 -9230)">
    <rect id="Rectángulo_402908" data-name="Rectángulo 402908" width="190" height="68" rx="10" transform="translate(1125 9252)" fill="#d6e1fd"/>
    <circle id="Elipse_11622" data-name="Elipse 11622" cx="11" cy="11" r="11" transform="translate(1162 9265.34) rotate(-180)" fill="#00ffdf"/>
    <g id="Elipse_11623" data-name="Elipse 11623" transform="translate(1304.333 9302.098) rotate(-180)" fill="none" stroke="#3a1d71" stroke-width="4">
      <circle cx="15" cy="15" r="15" stroke="none"/>
      <circle cx="15" cy="15" r="13" fill="none"/>
    </g>
    <circle id="Elipse_11624" data-name="Elipse 11624" cx="5" cy="5" r="5" transform="translate(1162 9240) rotate(-180)" fill="#00ffdf"/>
    <g id="Grupo_1102338" data-name="Grupo 1102338" transform="translate(1181.496 9230)">
      <path id="Trazado_877730" data-name="Trazado 877730" d="M64.821,55.271a5.086,5.086,0,1,0,5.093,5.086A5.093,5.093,0,0,0,64.821,55.271Zm0,7.139a2.053,2.053,0,1,1,2.059-2.053A2.056,2.056,0,0,1,64.821,62.41Z" transform="translate(-50.749 -48.762)" fill="#a854f3"/>
      <path id="Trazado_877731" data-name="Trazado 877731" d="M284.644,55.271H271.193a5.086,5.086,0,1,0,0,10.173h13.451a5.086,5.086,0,1,0,0-10.173Zm0,7.139H271.193a2.053,2.053,0,1,1,0-4.106h13.451a2.053,2.053,0,1,1,0,4.106Z" transform="translate(-226.081 -48.762)" fill="#a854f3"/>
      <path id="Trazado_877732" data-name="Trazado 877732" d="M152.493,55.271a5.086,5.086,0,1,0,5.092,5.086A5.093,5.093,0,0,0,152.493,55.271Zm0,7.139a2.053,2.053,0,1,1,2.059-2.053A2.056,2.056,0,0,1,152.493,62.41Z" transform="translate(-125.234 -48.762)" fill="#a854f3"/>
      <path id="Trazado_877733" data-name="Trazado 877733" d="M137.234,222.207a1.516,1.516,0,0,0-1.828,1.123L132.4,235.921a1.517,1.517,0,1,0,2.95.705l3.009-12.592A1.517,1.517,0,0,0,137.234,222.207Z" transform="translate(-112.448 -190.554)" fill="#a854f3"/>
      <path id="Trazado_877734" data-name="Trazado 877734" d="M198.945,242.7a1.517,1.517,0,0,0,2.142-.124l4.253-4.775a2.1,2.1,0,0,0,0-2.781l-4.258-4.78a1.517,1.517,0,1,0-2.265,2.018l3.7,4.15-3.7,4.15A1.517,1.517,0,0,0,198.945,242.7Z" transform="translate(-168.591 -196.98)" fill="#a854f3"/>
      <path id="Trazado_877735" data-name="Trazado 877735" d="M63.977,230.114a1.517,1.517,0,0,0-2.142.124l-4.253,4.774a2.1,2.1,0,0,0,0,2.781l4.258,4.779a1.517,1.517,0,1,0,2.265-2.018l-3.7-4.15,3.7-4.15A1.517,1.517,0,0,0,63.977,230.114Z" transform="translate(-48.473 -196.981)" fill="#a854f3"/>
      <path id="Trazado_877736" data-name="Trazado 877736" d="M73.608,61.26h-.563A15.97,15.97,0,0,0,71.9,58.5l.4-.4a3.4,3.4,0,0,0,0-4.807l-.783-.783V20.2c0-4.524-3.193-8.2-7.117-8.2H7.117C3.193,12,0,15.676,0,20.2V62.593c0,4.524,3.193,8.2,7.117,8.2h8.9a1.517,1.517,0,1,0,0-3.033h-8.9c-2.213,0-4.083-2.368-4.083-5.171V35.076H68.49V50.4a3.449,3.449,0,0,0-.526-.044h-.005a3.362,3.362,0,0,0-2.393.992l-.41.408a16.013,16.013,0,0,0-2.8-1.157v-.54a3.4,3.4,0,0,0-3.4-3.4H56.206a3.4,3.4,0,0,0-3.4,3.4v.577a16.1,16.1,0,0,0-2.739,1.147l-.393-.392a3.367,3.367,0,0,0-2.4-1h-.005a3.377,3.377,0,0,0-2.4.993l-1.939,1.938a3.4,3.4,0,0,0,0,4.8l.419.42a16.017,16.017,0,0,0-1.117,2.709h-.576a3.4,3.4,0,0,0-3.4,3.4V67.4a3.419,3.419,0,0,0,.019.362H29.454a1.517,1.517,0,1,0,0,3.033H42.238a15.923,15.923,0,0,0,1.135,2.731l-.41.408a3.4,3.4,0,0,0,0,4.8l1.94,1.94a3.367,3.367,0,0,0,2.4,1h0a3.377,3.377,0,0,0,2.4-.994l.406-.406a16.027,16.027,0,0,0,2.741,1.136V82a3.4,3.4,0,0,0,3.4,3.4h2.749A3.4,3.4,0,0,0,62.4,82v-.583a15.985,15.985,0,0,0,2.753-1.14l.4.4a3.367,3.367,0,0,0,2.4,1h.005a3.378,3.378,0,0,0,2.4-.995L72.3,78.74a3.4,3.4,0,0,0,0-4.807l-.4-.4A16.016,16.016,0,0,0,73.035,70.8h.573a3.4,3.4,0,0,0,3.4-3.4V64.655a3.4,3.4,0,0,0-3.4-3.4ZM3.034,32.042V20.2c0-2.8,1.87-5.171,4.083-5.171h57.29c2.213,0,4.083,2.368,4.083,5.171V32.042H3.034ZM73.975,67.4a.374.374,0,0,1-.367.362H71.874A1.517,1.517,0,0,0,70.4,68.942a13.021,13.021,0,0,1-1.673,4.03,1.517,1.517,0,0,0,.212,1.88l1.227,1.227a.364.364,0,0,1,.105.258.352.352,0,0,1-.106.255l-1.938,1.941a.365.365,0,0,1-.259.106h0a.353.353,0,0,1-.257-.107l-1.232-1.227A1.517,1.517,0,0,0,64.6,77.1a13,13,0,0,1-4.047,1.675,1.517,1.517,0,0,0-1.18,1.479V82a.374.374,0,0,1-.363.366H56.258A.374.374,0,0,1,55.895,82V80.246a1.517,1.517,0,0,0-1.182-1.479,13.014,13.014,0,0,1-4.039-1.672,1.516,1.516,0,0,0-1.877.213l-1.227,1.227a.365.365,0,0,1-.259.106h0a.352.352,0,0,1-.255-.105l-1.943-1.943a.373.373,0,0,1,0-.51l1.232-1.227a1.517,1.517,0,0,0,.212-1.885,12.928,12.928,0,0,1-1.675-4.027A1.517,1.517,0,0,0,43.4,67.765H41.656a.367.367,0,0,1-.363-.362V64.656a.367.367,0,0,1,.363-.362h1.739a1.517,1.517,0,0,0,1.479-1.18A13.011,13.011,0,0,1,46.527,59.1a1.517,1.517,0,0,0-.213-1.874l-1.241-1.244a.348.348,0,0,1-.1-.251.363.363,0,0,1,.105-.258l1.939-1.938a.365.365,0,0,1,.259-.106h0a.354.354,0,0,1,.257.107l1.223,1.218a1.516,1.516,0,0,0,1.883.207,13.085,13.085,0,0,1,4.034-1.691A1.517,1.517,0,0,0,55.844,51.8V50.062a.369.369,0,0,1,.363-.366h2.745a.372.372,0,0,1,.367.366V51.77a1.517,1.517,0,0,0,1.187,1.48A13,13,0,0,1,64.6,54.938a1.517,1.517,0,0,0,1.876-.21L67.711,53.5a.35.35,0,0,1,.252-.1h0a.365.365,0,0,1,.259.106l1.939,1.938a.364.364,0,0,1,.105.258.353.353,0,0,1-.107.256l-1.227,1.231a1.517,1.517,0,0,0-.209,1.88A12.983,12.983,0,0,1,70.4,63.114a1.517,1.517,0,0,0,1.479,1.18h1.726a.374.374,0,0,1,.367.362Z" transform="translate(0 -11.996)" fill="#a854f3"/>
      <path id="Trazado_877737" data-name="Trazado 877737" d="M330.828,309.652a9.263,9.263,0,1,0,9.265,9.265A9.278,9.278,0,0,0,330.828,309.652Zm0,15.493a6.23,6.23,0,1,1,6.232-6.227A6.239,6.239,0,0,1,330.828,325.145Z" transform="translate(-273.194 -264.882)" fill="#a854f3"/>
      <path id="Trazado_877738" data-name="Trazado 877738" d="M142.718,382.778h-.03a1.517,1.517,0,0,0,0,3.033h.03a1.517,1.517,0,0,0,0-3.033Z" transform="translate(-119.939 -327.01)" fill="#a854f3"/>
    </g>
  </g>
</svg>
