<svg xmlns="http://www.w3.org/2000/svg" width="50" height="50" viewBox="0 0 50 50">
  <g id="Grupo_1103021" data-name="Grupo 1103021" transform="translate(-315 -2945)">
    <g id="Elipse_11635" data-name="Elipse 11635" transform="translate(315 2945)" fill="#3a1d71" stroke="#00ffdf" stroke-width="1">
      <circle cx="25" cy="25" r="25" stroke="none"/>
      <circle cx="25" cy="25" r="24.5" fill="none"/>
    </g>
    <g id="Grupo_1103020" data-name="Grupo 1103020" transform="translate(323.707 2931.869)">
      <path id="Trazado_878875" data-name="Trazado 878875" d="M21.857,52.29H9.7a.692.692,0,0,1-.691-.691V25.507a.692.692,0,0,1,.691-.691h3.663a.475.475,0,1,0,0-.951H9.7a1.643,1.643,0,0,0-1.642,1.642V38.661a5.628,5.628,0,0,0-.745-.161l.019-.364a.7.7,0,0,0-.685-.734,6.718,6.718,0,0,0-3,.663.7.7,0,0,0-.313.954l.158.3a5.6,5.6,0,0,0-.852.663l-.249-.221a.7.7,0,0,0-1,.078A6.73,6.73,0,0,0,.034,42.6a.7.7,0,0,0,.551.84L.9,43.5A5.6,5.6,0,0,0,.9,44.58l-.32.056a.7.7,0,0,0-.562.835c.024.111.05.222.079.33a6.62,6.62,0,0,0,1.232,2.446.7.7,0,0,0,1,.091l.258-.223a5.647,5.647,0,0,0,.839.671l-.167.3a.7.7,0,0,0,.3.959,6.7,6.7,0,0,0,2.989.709h0a.7.7,0,0,0,.7-.725l-.014-.375a5.682,5.682,0,0,0,.729-.144l.1-.028V51.6A1.643,1.643,0,0,0,9.7,53.24H21.857a.475.475,0,0,0,0-.951Zm-13.8-6.443a.468.468,0,0,0-.044.031,2.346,2.346,0,0,1-3.747-1.24,2.347,2.347,0,0,1,3.791-2.376v3.585ZM7.712,48.6a4.713,4.713,0,0,1-.8.141.7.7,0,0,0-.639.722l.013.342a5.757,5.757,0,0,1-2.063-.489l.153-.279a.694.694,0,0,0-.254-.935,4.7,4.7,0,0,1-1.014-.81.7.7,0,0,0-.961-.048l-.234.2a5.684,5.684,0,0,1-.9-1.887L1,45.526l.291-.051a.7.7,0,0,0,.572-.779,4.647,4.647,0,0,1,.007-1.3.7.7,0,0,0-.561-.786l-.288-.055a5.785,5.785,0,0,1,.934-1.9l.226.2a.7.7,0,0,0,.963-.036,4.649,4.649,0,0,1,1.026-.8.694.694,0,0,0,.268-.93L4.3,38.812a5.777,5.777,0,0,1,2.069-.458l-.017.331a.7.7,0,0,0,.625.73,4.666,4.666,0,0,1,1.082.242v1.468a3.3,3.3,0,1,0,0,5.855v1.508c-.114.04-.229.077-.344.108Z" transform="translate(0 0)" fill="#00ffdf"/>
      <path id="Trazado_878876" data-name="Trazado 878876" d="M255.359,31.912l-.005-.02a.475.475,0,0,0-.583-.336l-.892.242a7.046,7.046,0,0,0-.664-1.419l.511-.367a.76.76,0,0,0,.16-1.082,8.331,8.331,0,0,0-.735-.827v-2.6a1.643,1.643,0,0,0-1.642-1.642H238.823a.475.475,0,0,0,0,.951h12.685a.692.692,0,0,1,.691.691V27.3a8.43,8.43,0,0,0-1.323-.795.76.76,0,0,0-1.024.382l-.24.55a7.056,7.056,0,0,0-1.537-.375l.03-.588a.76.76,0,0,0-.746-.8,8.46,8.46,0,0,0-3.777.835.76.76,0,0,0-.341,1.039l.26.492a7.033,7.033,0,0,0-1.26.981l-.411-.363a.76.76,0,0,0-1.09.085,8.473,8.473,0,0,0-1.7,3.472.76.76,0,0,0,.6.914l.528.1a7.03,7.03,0,0,0-.009,1.6l-.531.093a.761.761,0,0,0-.612.91c.03.139.063.279.1.416a8.337,8.337,0,0,0,1.551,3.08.76.76,0,0,0,1.089.1l.423-.364a7.092,7.092,0,0,0,1.243.994l-.273.5a.76.76,0,0,0,.324,1.045,8.439,8.439,0,0,0,3.764.893h0a.76.76,0,0,0,.757-.789l-.023-.6a7.131,7.131,0,0,0,1.036-.2c.168-.045.335-.1.5-.153l.236.566a.76.76,0,0,0,1.018.4,8.363,8.363,0,0,0,1.44-.849V51.6a.692.692,0,0,1-.691.691h-4.189a.475.475,0,0,0,0,.951h4.189A1.643,1.643,0,0,0,253.15,51.6V40.056a8.358,8.358,0,0,0,.657-.731.76.76,0,0,0-.144-1.084l-.512-.378a7.1,7.1,0,0,0,.688-1.405l.615.176a.76.76,0,0,0,.947-.547,8.423,8.423,0,0,0-.042-4.174Zm-.836,3.752-.6-.171a.757.757,0,0,0-.93.491,6.15,6.15,0,0,1-.736,1.5.758.758,0,0,0,.181,1.034l.5.366a7.482,7.482,0,0,1-2.4,1.879l-.228-.549a.756.756,0,0,0-.968-.42c-.191.072-.388.135-.585.188a6.175,6.175,0,0,1-1.051.185.761.761,0,0,0-.7.786l.022.581a7.492,7.492,0,0,1-2.962-.7l.264-.482a.756.756,0,0,0-.277-1.018,6.133,6.133,0,0,1-1.326-1.059.758.758,0,0,0-1.047-.051l-.407.351A7.4,7.4,0,0,1,240.029,36q-.024-.088-.045-.178l.512-.09a.757.757,0,0,0,.623-.848,6.082,6.082,0,0,1,.01-1.7.757.757,0,0,0-.611-.856l-.508-.1a7.527,7.527,0,0,1,1.34-2.73l.4.35a.758.758,0,0,0,1.048-.039,6.08,6.08,0,0,1,1.341-1.044.756.756,0,0,0,.292-1.013l-.251-.475a7.517,7.517,0,0,1,2.97-.657l-.029.566a.758.758,0,0,0,.68.8,6.106,6.106,0,0,1,1.638.4.756.756,0,0,0,.975-.4l.233-.533a7.517,7.517,0,0,1,2.366,1.911l-.494.354a.758.758,0,0,0-.2,1.03,6.12,6.12,0,0,1,.777,1.751l0,.009a.475.475,0,0,0,.584.336l.864-.234a7.475,7.475,0,0,1-.021,3.061Z" transform="translate(-223.244)" fill="#00ffdf"/>
      <path id="Trazado_878877" data-name="Trazado 878877" d="M315.276,115.252a4.393,4.393,0,0,0-3.394-.436,4.444,4.444,0,0,0-3.108,5.368,4.431,4.431,0,0,0,4.277,3.324,4.456,4.456,0,0,0,1.185-.162h0a4.444,4.444,0,0,0,3.108-5.368A4.392,4.392,0,0,0,315.276,115.252Zm-1.292,7.178a3.474,3.474,0,0,1-4.289-2.483,3.48,3.48,0,0,1,3.371-4.342,3.479,3.479,0,0,1,3.358,2.61A3.489,3.489,0,0,1,313.984,122.43Z" transform="translate(-289.078 -85.036)" fill="#00ffdf"/>
      <path id="Trazado_878878" data-name="Trazado 878878" d="M174.129,75.259a.475.475,0,0,0-.475-.475h-4.541a.475.475,0,1,0,0,.951h4.541A.475.475,0,0,0,174.129,75.259Z" transform="translate(-157.952 -47.692)" fill="#00ffdf"/>
      <path id="Trazado_878879" data-name="Trazado 878879" d="M171.473,105.324h2.876a.475.475,0,0,0,0-.951h-2.876a.475.475,0,0,0,0,.951Z" transform="translate(-160.162 -75.406)" fill="#00ffdf"/>
      <path id="Trazado_878880" data-name="Trazado 878880" d="M171.473,177.957h2.876a.475.475,0,0,0,0-.951h-2.876a.475.475,0,0,0,0,.951Z" transform="translate(-160.162 -143.436)" fill="#00ffdf"/>
      <path id="Trazado_878881" data-name="Trazado 878881" d="M171.473,212.958h2.876a.475.475,0,0,0,0-.951h-2.876a.475.475,0,0,0,0,.951Z" transform="translate(-160.162 -176.219)" fill="#00ffdf"/>
      <path id="Trazado_878882" data-name="Trazado 878882" d="M176.887,290.375h-6.636a.475.475,0,1,0,0,.951h6.636a.475.475,0,1,0,0-.951Z" transform="translate(-159.018 -249.621)" fill="#00ffdf"/>
      <path id="Trazado_878883" data-name="Trazado 878883" d="M173.7,320.915h4.2a.475.475,0,1,0,0-.951h-4.2a.475.475,0,1,0,0,.951Z" transform="translate(-162.248 -277.335)" fill="#00ffdf"/>
      <path id="Trazado_878884" data-name="Trazado 878884" d="M171,367.137a.9.9,0,0,0,.9.9h3.251a.9.9,0,0,0,.9-.9V364.2l.6-.6a.475.475,0,1,0-.672-.672l-.262.262a.9.9,0,0,0-.57-.2H171.9a.9.9,0,0,0-.9.9v3.251Zm.951-3.2h3.024l-1.245,1.245-.2-.216a.475.475,0,0,0-.7.648l.537.576a.476.476,0,0,0,.339.151h.008a.475.475,0,0,0,.336-.139l1.046-1.046v1.931h-3.15v-3.15Z" transform="translate(-160.162 -317.446)" fill="#00ffdf"/>
      <path id="Trazado_878885" data-name="Trazado 878885" d="M283.652,372.857a.475.475,0,0,0-.475-.475h-8.215a.475.475,0,0,0,0,.951h8.215A.475.475,0,0,0,283.652,372.857Z" transform="translate(-257.092 -326.431)" fill="#00ffdf"/>
      <path id="Trazado_878886" data-name="Trazado 878886" d="M274.961,403.841a.475.475,0,0,0,0,.951h3.183a.475.475,0,0,0,0-.951Z" transform="translate(-257.092 -355.896)" fill="#00ffdf"/>
    </g>
  </g>
</svg>
