<svg xmlns="http://www.w3.org/2000/svg" width="124" height="124" viewBox="0 0 124 124">
  <g id="Grupo_1103029" data-name="Grupo 1103029" transform="translate(-1048 -4665)">
    <g id="Grupo_1102847" data-name="Grupo 1102847" transform="translate(828.019 2745.543)">
      <circle id="Elipse_11549" data-name="Elipse 11549" cx="60" cy="60" r="60" transform="translate(221.981 1921.457)" fill="#fff" stroke="#00ffdf" stroke-width="4"/>
    </g>
    <g id="Grupo_1103028" data-name="Grupo 1103028" transform="translate(1077 4694)">
      <path id="Trazado_878919" data-name="Trazado 878919" d="M65.033,30.338A.967.967,0,0,0,66,29.371V4.837A4.842,4.842,0,0,0,61.163,0H4.837A4.842,4.842,0,0,0,0,4.837V61.163A4.842,4.842,0,0,0,4.837,66H61.163A4.842,4.842,0,0,0,66,61.163V33.883a.967.967,0,0,0-1.934,0v27.28a2.906,2.906,0,0,1-2.9,2.9H4.837a2.906,2.906,0,0,1-2.9-2.9V12.594H64.066V29.371a.967.967,0,0,0,.967.967ZM1.934,10.661V4.837a2.906,2.906,0,0,1,2.9-2.9H61.163a2.906,2.906,0,0,1,2.9,2.9v5.824Z" fill="#3a1d71"/>
      <path id="Trazado_878920" data-name="Trazado 878920" d="M39.214,23.725A3.179,3.179,0,1,0,42.392,26.9,3.182,3.182,0,0,0,39.214,23.725Zm0,4.424A1.245,1.245,0,1,1,40.459,26.9,1.247,1.247,0,0,1,39.214,28.149Z" transform="translate(-31.39 -20.667)" fill="#3a1d71"/>
      <path id="Trazado_878921" data-name="Trazado 878921" d="M101.326,23.725A3.179,3.179,0,1,0,104.5,26.9,3.182,3.182,0,0,0,101.326,23.725Zm0,4.424a1.245,1.245,0,1,1,1.245-1.245A1.247,1.247,0,0,1,101.326,28.149Z" transform="translate(-85.495 -20.667)" fill="#3a1d71"/>
      <path id="Trazado_878922" data-name="Trazado 878922" d="M201.791,23.73h-1.7a.967.967,0,0,0,0,1.934h1.7a1.245,1.245,0,1,1,0,2.489H176.649a1.245,1.245,0,1,1,0-2.489h18.944a.967.967,0,0,0,0-1.934H176.649a3.178,3.178,0,1,0,0,6.356h25.142a3.178,3.178,0,1,0,0-6.356Z" transform="translate(-151.109 -20.671)" fill="#3a1d71"/>
      <path id="Trazado_878923" data-name="Trazado 878923" d="M195.194,222.825a.967.967,0,0,0,1.367,0l.55-.55.55.55a.967.967,0,0,0,1.367-1.367l-.55-.55.55-.55a.967.967,0,0,0-1.367-1.367l-.55.55-.55-.55a.967.967,0,0,0-1.367,1.367l.55.55-.55.55a.967.967,0,0,0,0,1.367Z" transform="translate(-169.785 -190.515)" fill="#3a1d71"/>
      <path id="Trazado_878924" data-name="Trazado 878924" d="M74.4,222.827a.967.967,0,0,0,1.367,0l.55-.55.55.55a.967.967,0,0,0,1.367-1.367l-.55-.55.55-.55a.967.967,0,0,0-1.367-1.367l-.55.55-.55-.55A.967.967,0,0,0,74.4,220.36l.55.55-.55.55A.966.966,0,0,0,74.4,222.827Z" transform="translate(-64.562 -190.516)" fill="#3a1d71"/>
      <path id="Trazado_878925" data-name="Trazado 878925" d="M220.162,140.923h24.031a.967.967,0,0,0,0-1.934H220.162a.967.967,0,0,0,0,1.934Z" transform="translate(-190.939 -121.072)" fill="#3a1d71"/>
      <path id="Trazado_878926" data-name="Trazado 878926" d="M220.162,167.18h15.721a.967.967,0,0,0,0-1.934H220.162a.967.967,0,0,0,0,1.934Z" transform="translate(-190.939 -143.945)" fill="#3a1d71"/>
      <path id="Trazado_878927" data-name="Trazado 878927" d="M41.521,146.846a.967.967,0,1,0-1.674-.967l-1.325,2.3a3.261,3.261,0,0,0,2.824,4.89h17.5a4.395,4.395,0,0,0,4.279,3.421H90.2a4.394,4.394,0,0,0,4.389-4.388v-17.41A4.393,4.393,0,0,0,90.2,130.3H86.817v-9.314h1.277a3.315,3.315,0,0,0,3.311-3.311v-6.8a3.315,3.315,0,0,0-3.311-3.311H60.723a3.316,3.316,0,0,0-3.266,2.77H43a3.929,3.929,0,0,0-3.924,3.925V132.6A3.929,3.929,0,0,0,43,136.526h2.247l-3.212,5.564a.967.967,0,0,0,1.674.967l5.614-9.724a1.311,1.311,0,0,1,1.147-.663h0a1.313,1.313,0,0,1,1.149.663l9.127,15.809a1.327,1.327,0,0,1-1.148,1.99H41.345a1.3,1.3,0,0,1-1.148-.663,1.315,1.315,0,0,1,0-1.328ZM84.883,130.3H66.346v-9.314H84.883ZM59.346,110.879a1.379,1.379,0,0,1,1.377-1.377H88.094a1.379,1.379,0,0,1,1.377,1.377v6.8a1.379,1.379,0,0,1-1.377,1.377H60.723a1.379,1.379,0,0,1-1.377-1.377v-6.8ZM43,112.272H57.412v5.4a3.315,3.315,0,0,0,3.311,3.311h3.449a5.368,5.368,0,1,1-10.5,1.59v0a5.339,5.339,0,0,1,.781-2.786.967.967,0,1,0-1.65-1.009c-.034.055-.066.111-.1.166-.032-.056-.064-.111-.1-.166a.967.967,0,1,0-1.65,1.007,5.351,5.351,0,0,1,.781,2.787v0a5.367,5.367,0,1,1-9.953-2.791.967.967,0,0,0-.781-1.47v-4.052A1.993,1.993,0,0,1,43,112.272Zm7.472,18.464h0a3.225,3.225,0,0,0-2.822,1.63l-1.285,2.226H43a1.993,1.993,0,0,1-1.99-1.992v-5.083a7.291,7.291,0,0,0,11.7-1.319,7.292,7.292,0,0,0,11.7,1.319V130.3H63.129a4.392,4.392,0,0,0-4.386,4.291H54.58l-1.285-2.226a3.227,3.227,0,0,0-2.823-1.63ZM58.741,141.8,55.7,136.526h3.044Zm3.681,6.376-1.747-3.027V134.689a2.457,2.457,0,0,1,2.454-2.454H90.2a2.458,2.458,0,0,1,2.456,2.454V152.1a2.458,2.458,0,0,1-2.456,2.454H63.129a2.458,2.458,0,0,1-2.338-1.71,3.266,3.266,0,0,0,1.631-4.668Z" transform="translate(-33.171 -93.702)" fill="#3a1d71"/>
      <path id="Trazado_878928" data-name="Trazado 878928" d="M114.526,342.413a2.911,2.911,0,0,0,2.165-4.86,2.9,2.9,0,0,0,.748-1.946v-4.763a2.913,2.913,0,0,0-5.827,0v4.763a2.9,2.9,0,0,0,.748,1.946,2.911,2.911,0,0,0,2.165,4.86Zm0-1.934a.98.98,0,1,1,.98-.98A.981.981,0,0,1,114.526,340.479Zm-.98-9.635a.98.98,0,0,1,1.959,0v4.763a.98.98,0,0,1-1.959,0Z" transform="translate(-97.225 -285.659)" fill="#3a1d71"/>
      <path id="Trazado_878929" data-name="Trazado 878929" d="M297.574,365.776h.041a.967.967,0,0,0,.965-.926l.053-1.271,2.957-.986.8.984a.967.967,0,1,0,1.5-1.22l-4.906-6.033-.019-.022a1.134,1.134,0,0,0-1.99.666c0,.008,0,.016,0,.024l-.327,7.778A.967.967,0,0,0,297.574,365.776Zm2.713-4.787-1.566.522.1-2.328Z" transform="translate(-258.408 -310.029)" fill="#3a1d71"/>
      <path id="Trazado_878930" data-name="Trazado 878930" d="M343.174,350.661a.966.966,0,0,0,1.064.65c.1-.016.166-.025,2.616-.858a.967.967,0,1,0-.622-1.831c-.466.158-1.051.356-1.527.516l-2.029-6.083a.967.967,0,1,0-1.834.612Z" transform="translate(-296.861 -298.257)" fill="#3a1d71"/>
      <path id="Trazado_878931" data-name="Trazado 878931" d="M385.627,330.4a.966.966,0,0,0,1.223.611l2.923-.975a.967.967,0,0,0-.612-1.834l-2.006.669-.545-1.634,1.79-.6a.967.967,0,0,0-.612-1.834l-1.79.6-.545-1.634,2.006-.669a.967.967,0,0,0-.612-1.834l-2.923.975a.967.967,0,0,0-.611,1.223Z" transform="translate(-333.858 -279.811)" fill="#3a1d71"/>
      <path id="Trazado_878932" data-name="Trazado 878932" d="M234.024,378.321a5.06,5.06,0,0,0,2.442.419c.215,0,.445,0,.694.012s1.115.076,1.193.609a1.2,1.2,0,0,1-.927,1.155,2.525,2.525,0,0,1-2.005-.149.967.967,0,1,0-.948,1.685,4.271,4.271,0,0,0,2.1.539,4.644,4.644,0,0,0,1.468-.24,3.088,3.088,0,0,0,2.229-3.269c-.154-1.052-1.035-2.2-3.046-2.262-.264-.008-.508-.011-.737-.013a3.534,3.534,0,0,1-1.565-.2.365.365,0,0,1-.164-.3.8.8,0,0,1,.374-.682,2.414,2.414,0,0,1,2.034-.192.967.967,0,0,0,.706-1.8,4.347,4.347,0,0,0-3.854.412,2.71,2.71,0,0,0-1.189,2.392A2.27,2.27,0,0,0,234.024,378.321Z" transform="translate(-202.807 -325.225)" fill="#3a1d71"/>
      <path id="Trazado_878933" data-name="Trazado 878933" d="M303.762,225.725l-1.616,1.616a.967.967,0,0,0,1.367,1.367l1.616-1.616,1.616,1.616a.967.967,0,0,0,1.367-1.367l-1.616-1.616,1.616-1.616a.967.967,0,0,0-1.367-1.367l-1.616,1.615-1.616-1.616a.967.967,0,0,0-1.367,1.367Z" transform="translate(-262.951 -193.783)" fill="#3a1d71"/>
    </g>
  </g>
</svg>
