<svg xmlns="http://www.w3.org/2000/svg" width="140" height="140" viewBox="0 0 140 140">
  <g id="Grupo_1102994" data-name="Grupo 1102994" transform="translate(-309 -3403)">
    <g id="Grupo_1102823" data-name="Grupo 1102823" transform="translate(88.672 1483.196)">
      <circle id="Elipse_11549" data-name="Elipse 11549" cx="68" cy="68" r="68" transform="translate(222.328 1921.803)" fill="#00ffdf" stroke="#8722e2" stroke-width="4"/>
    </g>
    <path id="Trazado_878674" data-name="Trazado 878674" d="M47.13,18.679a23.115,23.115,0,1,0,16.19,16.19,2.562,2.562,0,1,1,4.943-1.355A28.24,28.24,0,1,1,48.485,13.736a2.562,2.562,0,0,1-1.355,4.943Zm30,8.938A2.562,2.562,0,0,0,75.4,30.8,35.837,35.837,0,1,1,51.2,6.595a2.563,2.563,0,1,0,1.455-4.914A40.962,40.962,0,1,0,80.318,29.346a2.563,2.563,0,0,0-3.185-1.73ZM41,30.749a10.415,10.415,0,0,1,1.131.062,2.562,2.562,0,0,0,.559-5.094A15.375,15.375,0,1,0,56.375,41a2.562,2.562,0,1,0-5.125,0A10.25,10.25,0,1,1,41,30.749Zm13.084-6.457,1.276-12.8A2.562,2.562,0,0,1,56.1,9.93L65.278.75a2.563,2.563,0,0,1,4.367,1.611l.728,9.265,9.265.728a2.563,2.563,0,0,1,1.611,4.367l-9.18,9.18a2.561,2.561,0,0,1-1.558.738l-12.8,1.277-14.9,14.9a2.562,2.562,0,0,1-3.624-3.624ZM59.4,22.6l9.689-.966,4.6-4.6-5.9-.464a2.563,2.563,0,0,1-2.354-2.354l-.464-5.905-4.6,4.6Z" transform="translate(338 3432.001)" fill="#a854f3"/>
  </g>
</svg>
