<svg xmlns="http://www.w3.org/2000/svg" width="124" height="124" viewBox="0 0 124 124">
  <g id="Grupo_1103026" data-name="Grupo 1103026" transform="translate(-208 -4665)">
    <g id="Grupo_1102845" data-name="Grupo 1102845" transform="translate(-11.981 2745.543)">
      <circle id="Elipse_11549" data-name="Elipse 11549" cx="60" cy="60" r="60" transform="translate(221.981 1921.457)" fill="#fff" stroke="#00ffdf" stroke-width="4"/>
    </g>
    <g id="Grupo_1103025" data-name="Grupo 1103025" transform="translate(191.044 4688.443)">
      <path id="Trazado_878897" data-name="Trazado 878897" d="M256.278,191.114c.048-.542.074-1.054.074-1.483V179.262a3.56,3.56,0,0,0-3.376-3.58,3.452,3.452,0,0,0-2.176.679,3.432,3.432,0,0,0-4.714-.584,3.44,3.44,0,0,0-2.539-1.264,3.485,3.485,0,0,0-1.338.221v-6.784h4.21a5.74,5.74,0,0,0,5.733-5.733v-15.23a1.125,1.125,0,1,0-2.25,0v15.23a3.487,3.487,0,0,1-3.483,3.483H242.2a3.56,3.56,0,0,0-3.372-3.4,3.481,3.481,0,0,0-3.587,3.4H220.738a1.125,1.125,0,1,0,0,2.25h14.505V181.1a16.229,16.229,0,0,0-4.961-2.957,3.209,3.209,0,0,0-3.623,1.1,3.161,3.161,0,0,0,.124,3.91c1.3,1.547,4.628,5.482,7.4,8.614a7.9,7.9,0,0,1,1.307,2.59,9.589,9.589,0,0,0,9.023,6.437c.4,0,.764,0,1.107.005h.073a10.625,10.625,0,0,0,10.581-9.678Zm-10.587,7.428h-.058c-.342,0-.712-.005-1.117-.005a7.336,7.336,0,0,1-6.9-4.93,10.062,10.062,0,0,0-1.747-3.339c-2.758-3.112-6.07-7.03-7.365-8.57a.915.915,0,0,1-.03-1.133.981.981,0,0,1,1.1-.29A14.405,14.405,0,0,1,234.01,183a2.112,2.112,0,0,0,3.484-1.607V165.783a1.231,1.231,0,0,1,1.271-1.231,1.3,1.3,0,0,1,1.193,1.33v13.87a1.125,1.125,0,0,0,2.25,0v-1.757h0a1.232,1.232,0,0,1,1.271-1.231,1.3,1.3,0,0,1,1.193,1.331v1.658a1.125,1.125,0,0,0,2.25,0v-1.17s0,0,0,0a1.232,1.232,0,0,1,1.271-1.231,1.3,1.3,0,0,1,1.193,1.33v1.074a1.125,1.125,0,0,0,2.25,0v-.588a1.232,1.232,0,0,1,1.271-1.231,1.3,1.3,0,0,1,1.193,1.33v10.369c0,.363-.022.806-.065,1.283a8.374,8.374,0,0,1-8.345,7.627Z" transform="translate(-146.29 -123.98)" fill="#3a1d71"/>
      <path id="Trazado_878898" data-name="Trazado 878898" d="M264.427,52.958a1.125,1.125,0,0,0,0-2.25h-5.035a1.125,1.125,0,0,0-1.125,1.125V64.7a1.125,1.125,0,0,0,1.125,1.125h5.035a1.125,1.125,0,0,0,0-2.25h-3.91V59.392h3.63a1.125,1.125,0,1,0,0-2.25h-3.63V52.958Z" transform="translate(-179.146 -43.101)" fill="#3a1d71"/>
      <path id="Trazado_878899" data-name="Trazado 878899" d="M329.606,52.958a1.125,1.125,0,0,0,0-2.25h-5.035a1.125,1.125,0,0,0-1.125,1.125V64.7a1.125,1.125,0,0,0,1.125,1.125h5.035a1.125,1.125,0,0,0,0-2.25H325.7V59.392h3.63a1.125,1.125,0,0,0,0-2.25H325.7V52.958Z" transform="translate(-234.546 -43.101)" fill="#3a1d71"/>
      <path id="Trazado_878900" data-name="Trazado 878900" d="M118.156,52.958a1.125,1.125,0,1,0,0-2.25h-5.035A1.125,1.125,0,0,0,112,51.833V64.7a1.125,1.125,0,1,0,2.25,0V59.392h3.63a1.125,1.125,0,1,0,0-2.25h-3.63V52.958Z" transform="translate(-54.818 -43.101)" fill="#3a1d71"/>
      <path id="Trazado_878901" data-name="Trazado 878901" d="M175.769,163.206V173a1.125,1.125,0,0,0,2.25,0v-3.537l3.259,4.224a1.125,1.125,0,0,0,1.782-1.375l-2.45-3.176a3.574,3.574,0,0,0-.794-7.059h-2.921a1.125,1.125,0,0,0-1.125,1.125Zm2.25,1.125h1.8a1.324,1.324,0,0,1,0,2.648h-1.8Z" transform="translate(-109.024 -137.765)" fill="#3a1d71"/>
      <path id="Trazado_878902" data-name="Trazado 878902" d="M187.91,55.05a4.347,4.347,0,0,0-4.342-4.342h-3.837a1.125,1.125,0,0,0-1.125,1.125V64.7a1.125,1.125,0,0,0,2.25,0V59.392h.286l4.626,6a1.125,1.125,0,0,0,1.782-1.374l-3.58-4.641a4.347,4.347,0,0,0,3.94-4.323Zm-4.342,2.092h-2.712V52.958h2.712a2.092,2.092,0,0,1,0,4.184Z" transform="translate(-111.435 -43.101)" fill="#3a1d71"/>
      <path id="Trazado_878903" data-name="Trazado 878903" d="M266.773,162.082a1.126,1.126,0,0,0-1.052.726l-3.713,9.8a1.125,1.125,0,0,0,2.1.8l.643-1.7h4.036l.643,1.7a1.125,1.125,0,1,0,2.1-.8l-3.713-9.8a1.124,1.124,0,0,0-1.052-.727Zm-1.165,7.374,1.165-3.074,1.165,3.074Z" transform="translate(-182.263 -137.766)" fill="#3a1d71"/>
      <path id="Trazado_878904" data-name="Trazado 878904" d="M334.3,162.082a1.125,1.125,0,0,0-1.125,1.125V173a1.125,1.125,0,0,0,1.125,1.125h3.576a1.125,1.125,0,0,0,0-2.25h-2.45v-8.672A1.125,1.125,0,0,0,334.3,162.082Z" transform="translate(-242.816 -137.766)" fill="#3a1d71"/>
      <path id="Trazado_878905" data-name="Trazado 878905" d="M116.222,174.129A1.125,1.125,0,0,0,117.347,173v-8.672h1.975a1.125,1.125,0,0,0,0-2.25h-6.2a1.125,1.125,0,0,0,0,2.25H115.1V173A1.125,1.125,0,0,0,116.222,174.129Z" transform="translate(-54.818 -137.765)" fill="#3a1d71"/>
      <path id="Trazado_878906" data-name="Trazado 878906" d="M239.031,173a1.125,1.125,0,1,0,2.25,0v-9.8a1.125,1.125,0,1,0-2.25,0Z" transform="translate(-162.795 -137.765)" fill="#3a1d71"/>
      <path id="Trazado_878907" data-name="Trazado 878907" d="M100.128,0H53.235A5.739,5.739,0,0,0,47.5,5.733v32.5a5.739,5.739,0,0,0,5.733,5.733H69.2a1.125,1.125,0,1,0,0-2.25H53.235a3.487,3.487,0,0,1-3.483-3.483V5.733A3.487,3.487,0,0,1,53.235,2.25h46.893a3.487,3.487,0,0,1,3.483,3.483V17.757a1.125,1.125,0,0,0,2.25,0V5.733A5.739,5.739,0,0,0,100.128,0Z" fill="#3a1d71"/>
    </g>
  </g>
</svg>
