<svg xmlns="http://www.w3.org/2000/svg" width="30" height="30" viewBox="0 0 30 30">
  <g id="Grupo_1103129" data-name="Grupo 1103129" transform="translate(-495 -4121)">
    <circle id="Elipse_11640" data-name="Elipse 11640" cx="15" cy="15" r="15" transform="translate(495 4121)" fill="#3a1d71"/>
    <path id="Trazado_879112" data-name="Trazado 879112" d="M1.248,10.707l.738-6.5H9.158V6.321H4.069L3.753,9.072a4.027,4.027,0,0,1,1.925-.483A3.689,3.689,0,0,1,8.543,9.723,4.529,4.529,0,0,1,9.58,12.9a4.64,4.64,0,0,1-.523,2.219,3.691,3.691,0,0,1-1.5,1.521,4.678,4.678,0,0,1-2.3.541,4.968,4.968,0,0,1-2.153-.47,3.819,3.819,0,0,1-1.569-1.323A3.605,3.605,0,0,1,.923,13.44H3.437a1.878,1.878,0,0,0,.558,1.244,1.769,1.769,0,0,0,1.252.444,1.562,1.562,0,0,0,1.327-.62,2.87,2.87,0,0,0,.466-1.753,2.374,2.374,0,0,0-.536-1.67,1.967,1.967,0,0,0-1.521-.58,2.2,2.2,0,0,0-1.468.475l-.246.229Z" transform="translate(505 4125)" fill="#fff"/>
  </g>
</svg>
