<svg xmlns="http://www.w3.org/2000/svg" width="124" height="124" viewBox="0 0 124 124">
  <g id="Grupo_1103073" data-name="Grupo 1103073" transform="translate(-829 -5505)">
    <g id="Grupo_1102852" data-name="Grupo 1102852" transform="translate(609.019 3585.543)">
      <circle id="Elipse_11549" data-name="Elipse 11549" cx="60" cy="60" r="60" transform="translate(221.981 1921.457)" fill="#fff" stroke="#8722e2" stroke-width="4"/>
    </g>
    <g id="Grupo_1103072" data-name="Grupo 1103072" transform="translate(837.942 5529)">
      <g id="Grupo_1103067" data-name="Grupo 1103067" transform="translate(17.058)">
        <path id="Trazado_878957" data-name="Trazado 878957" d="M51.141,368.552H22.135a5.076,5.076,0,0,1-5.076-5.076V358.4H56.017Z" transform="translate(-17.059 -305.099)" fill="#d3dcfb"/>
        <path id="Trazado_878958" data-name="Trazado 878958" d="M83.056,80.957v35.534H22.135a5.076,5.076,0,0,1-5.076-5.076V80.957L52.6,68.266Z" transform="translate(-17.059 -58.114)" fill="#ebf5fc"/>
        <g id="Grupo_1103060" data-name="Grupo 1103060" transform="translate(5.078 27.92)">
          <path id="Trazado_878959" data-name="Trazado 878959" d="M55.089,192.81h-2.7a1.19,1.19,0,0,1-1.19-1.19v-2.7a1.19,1.19,0,0,1,1.19-1.19h2.7a1.19,1.19,0,0,1,1.19,1.19v2.7A1.19,1.19,0,0,1,55.089,192.81Z" transform="translate(-51.203 -187.734)" fill="#3c58a0"/>
          <path id="Trazado_878960" data-name="Trazado 878960" d="M123.356,192.81h-2.7a1.19,1.19,0,0,1-1.19-1.19v-2.7a1.19,1.19,0,0,1,1.19-1.19h2.7a1.19,1.19,0,0,1,1.19,1.19v2.7A1.19,1.19,0,0,1,123.356,192.81Z" transform="translate(-109.317 -187.734)" fill="#3c58a0"/>
          <path id="Trazado_878961" data-name="Trazado 878961" d="M191.622,192.81h-2.7a1.19,1.19,0,0,1-1.19-1.19v-2.7a1.19,1.19,0,0,1,1.19-1.19h2.7a1.19,1.19,0,0,1,1.19,1.19v2.7A1.19,1.19,0,0,1,191.622,192.81Z" transform="translate(-167.431 -187.734)" fill="#3c58a0"/>
          <path id="Trazado_878962" data-name="Trazado 878962" d="M259.889,192.81h-2.7a1.19,1.19,0,0,1-1.19-1.19v-2.7a1.19,1.19,0,0,1,1.19-1.19h2.7a1.19,1.19,0,0,1,1.19,1.19v2.7A1.19,1.19,0,0,1,259.889,192.81Z" transform="translate(-225.545 -187.734)" fill="#3c58a0"/>
          <path id="Trazado_878963" data-name="Trazado 878963" d="M328.144,192.81h-2.7a1.19,1.19,0,0,1-1.19-1.19v-2.7a1.19,1.19,0,0,1,1.19-1.19h2.7a1.19,1.19,0,0,1,1.19,1.19v2.7A1.19,1.19,0,0,1,328.144,192.81Z" transform="translate(-283.649 -187.734)" fill="#3c58a0"/>
          <path id="Trazado_878964" data-name="Trazado 878964" d="M396.411,192.81h-2.7a1.19,1.19,0,0,1-1.19-1.19v-2.7a1.19,1.19,0,0,1,1.19-1.19h2.7a1.19,1.19,0,0,1,1.19,1.19v2.7A1.19,1.19,0,0,1,396.411,192.81Z" transform="translate(-341.764 -187.734)" fill="#3c58a0"/>
          <path id="Trazado_878965" data-name="Trazado 878965" d="M55.089,261.076h-2.7a1.19,1.19,0,0,1-1.19-1.19v-2.7a1.19,1.19,0,0,1,1.19-1.19h2.7a1.19,1.19,0,0,1,1.19,1.19v2.7A1.19,1.19,0,0,1,55.089,261.076Z" transform="translate(-51.203 -245.848)" fill="#3c58a0"/>
          <path id="Trazado_878966" data-name="Trazado 878966" d="M123.356,261.076h-2.7a1.19,1.19,0,0,1-1.19-1.19v-2.7a1.19,1.19,0,0,1,1.19-1.19h2.7a1.19,1.19,0,0,1,1.19,1.19v2.7A1.19,1.19,0,0,1,123.356,261.076Z" transform="translate(-109.317 -245.848)" fill="#3c58a0"/>
          <path id="Trazado_878967" data-name="Trazado 878967" d="M191.622,261.076h-2.7a1.19,1.19,0,0,1-1.19-1.19v-2.7a1.19,1.19,0,0,1,1.19-1.19h2.7a1.19,1.19,0,0,1,1.19,1.19v2.7A1.19,1.19,0,0,1,191.622,261.076Z" transform="translate(-167.431 -245.848)" fill="#3c58a0"/>
          <path id="Trazado_878968" data-name="Trazado 878968" d="M261.079,261.076v-3.807A1.269,1.269,0,0,0,259.81,256h-2.538A1.269,1.269,0,0,0,256,257.269v2.538a1.269,1.269,0,0,0,1.269,1.269Z" transform="translate(-225.545 -245.848)" fill="#3c58a0"/>
          <path id="Trazado_878969" data-name="Trazado 878969" d="M55.089,329.343h-2.7a1.19,1.19,0,0,1-1.19-1.19v-2.7a1.19,1.19,0,0,1,1.19-1.19h2.7a1.19,1.19,0,0,1,1.19,1.19v2.7A1.19,1.19,0,0,1,55.089,329.343Z" transform="translate(-51.203 -303.962)" fill="#3c58a0"/>
          <path id="Trazado_878970" data-name="Trazado 878970" d="M123.356,329.343h-2.7a1.19,1.19,0,0,1-1.19-1.19v-2.7a1.19,1.19,0,0,1,1.19-1.19h2.7a1.19,1.19,0,0,1,1.19,1.19v2.7A1.19,1.19,0,0,1,123.356,329.343Z" transform="translate(-109.317 -303.962)" fill="#3c58a0"/>
          <path id="Trazado_878971" data-name="Trazado 878971" d="M191.622,329.343h-2.7a1.19,1.19,0,0,1-1.19-1.19v-2.7a1.19,1.19,0,0,1,1.19-1.19h2.7a1.19,1.19,0,0,1,1.19,1.19v2.7A1.19,1.19,0,0,1,191.622,329.343Z" transform="translate(-167.431 -303.962)" fill="#3c58a0"/>
        </g>
        <path id="Trazado_878972" data-name="Trazado 878972" d="M400.819,187.733h-2.625a1.223,1.223,0,0,0-.449.086,1.225,1.225,0,0,1,.776,1.139v2.625a1.225,1.225,0,0,1-.776,1.139,1.22,1.22,0,0,0,.449.086h2.625a1.226,1.226,0,0,0,1.226-1.226v-2.625A1.226,1.226,0,0,0,400.819,187.733Z" transform="translate(-341.13 -159.814)" fill="#2a428c"/>
        <path id="Trazado_878973" data-name="Trazado 878973" d="M332.552,187.733h-2.625a1.223,1.223,0,0,0-.449.086,1.225,1.225,0,0,1,.776,1.139v2.625a1.225,1.225,0,0,1-.776,1.139,1.22,1.22,0,0,0,.449.086h2.625a1.226,1.226,0,0,0,1.226-1.226v-2.625A1.226,1.226,0,0,0,332.552,187.733Z" transform="translate(-283.015 -159.814)" fill="#2a428c"/>
        <path id="Trazado_878974" data-name="Trazado 878974" d="M264.3,187.733h-2.625a1.223,1.223,0,0,0-.449.086,1.225,1.225,0,0,1,.776,1.139v2.625a1.225,1.225,0,0,1-.776,1.139,1.22,1.22,0,0,0,.449.086H264.3a1.226,1.226,0,0,0,1.226-1.226v-2.625A1.226,1.226,0,0,0,264.3,187.733Z" transform="translate(-224.911 -159.814)" fill="#2a428c"/>
        <path id="Trazado_878975" data-name="Trazado 878975" d="M196.03,187.733h-2.625a1.223,1.223,0,0,0-.449.086,1.225,1.225,0,0,1,.776,1.139v2.625a1.225,1.225,0,0,1-.776,1.139,1.22,1.22,0,0,0,.449.086h2.625a1.226,1.226,0,0,0,1.226-1.226v-2.625A1.226,1.226,0,0,0,196.03,187.733Z" transform="translate(-166.797 -159.814)" fill="#2a428c"/>
        <path id="Trazado_878976" data-name="Trazado 878976" d="M127.763,187.733h-2.625a1.223,1.223,0,0,0-.449.086,1.225,1.225,0,0,1,.776,1.139v2.625a1.225,1.225,0,0,1-.776,1.139,1.22,1.22,0,0,0,.449.086h2.625a1.226,1.226,0,0,0,1.226-1.226v-2.625A1.226,1.226,0,0,0,127.763,187.733Z" transform="translate(-108.682 -159.814)" fill="#2a428c"/>
        <path id="Trazado_878977" data-name="Trazado 878977" d="M59.5,187.733H56.872a1.223,1.223,0,0,0-.449.086,1.225,1.225,0,0,1,.776,1.139v2.625a1.225,1.225,0,0,1-.776,1.139,1.22,1.22,0,0,0,.449.086H59.5a1.226,1.226,0,0,0,1.226-1.226v-2.625A1.226,1.226,0,0,0,59.5,187.733Z" transform="translate(-50.569 -159.814)" fill="#2a428c"/>
        <path id="Trazado_878978" data-name="Trazado 878978" d="M59.5,256H56.872a1.223,1.223,0,0,0-.449.086,1.225,1.225,0,0,1,.776,1.14v2.625a1.225,1.225,0,0,1-.776,1.139,1.22,1.22,0,0,0,.449.086H59.5a1.226,1.226,0,0,0,1.226-1.226v-2.625A1.226,1.226,0,0,0,59.5,256Z" transform="translate(-50.569 -217.928)" fill="#2a428c"/>
        <path id="Trazado_878979" data-name="Trazado 878979" d="M59.5,324.267H56.872a1.223,1.223,0,0,0-.449.086,1.225,1.225,0,0,1,.776,1.139v2.625a1.225,1.225,0,0,1-.776,1.139,1.22,1.22,0,0,0,.449.086H59.5a1.226,1.226,0,0,0,1.226-1.226v-2.625A1.226,1.226,0,0,0,59.5,324.267Z" transform="translate(-50.569 -276.042)" fill="#2a428c"/>
        <path id="Trazado_878980" data-name="Trazado 878980" d="M127.763,256h-2.625a1.223,1.223,0,0,0-.449.086,1.225,1.225,0,0,1,.776,1.14v2.625a1.225,1.225,0,0,1-.776,1.139,1.22,1.22,0,0,0,.449.086h2.625a1.226,1.226,0,0,0,1.226-1.226v-2.625A1.226,1.226,0,0,0,127.763,256Z" transform="translate(-108.682 -217.928)" fill="#2a428c"/>
        <path id="Trazado_878981" data-name="Trazado 878981" d="M127.763,324.267h-2.625a1.223,1.223,0,0,0-.449.086,1.225,1.225,0,0,1,.776,1.139v2.625a1.225,1.225,0,0,1-.776,1.139,1.22,1.22,0,0,0,.449.086h2.625a1.226,1.226,0,0,0,1.226-1.226v-2.625A1.226,1.226,0,0,0,127.763,324.267Z" transform="translate(-108.682 -276.042)" fill="#2a428c"/>
        <path id="Trazado_878982" data-name="Trazado 878982" d="M196.03,256h-2.625a1.223,1.223,0,0,0-.449.086,1.225,1.225,0,0,1,.776,1.14v2.625a1.225,1.225,0,0,1-.776,1.139,1.22,1.22,0,0,0,.449.086h2.625a1.226,1.226,0,0,0,1.226-1.226v-2.625A1.226,1.226,0,0,0,196.03,256Z" transform="translate(-166.797 -217.928)" fill="#2a428c"/>
        <path id="Trazado_878983" data-name="Trazado 878983" d="M265.522,261.076v-3.851A1.226,1.226,0,0,0,264.3,256h-2.625a1.223,1.223,0,0,0-.449.086,1.225,1.225,0,0,1,.776,1.14v2.625a1.225,1.225,0,0,1-.776,1.139,1.22,1.22,0,0,0,.449.086h3.851Z" transform="translate(-224.91 -217.928)" fill="#2a428c"/>
        <path id="Trazado_878984" data-name="Trazado 878984" d="M196.03,324.267h-2.625a1.223,1.223,0,0,0-.449.086,1.225,1.225,0,0,1,.776,1.139v2.625a1.225,1.225,0,0,1-.776,1.139,1.22,1.22,0,0,0,.449.086h2.625a1.226,1.226,0,0,0,1.226-1.226v-2.625A1.226,1.226,0,0,0,196.03,324.267Z" transform="translate(-166.797 -276.042)" fill="#2a428c"/>
        <path id="Trazado_878985" data-name="Trazado 878985" d="M437.114,143.721v37h3.526V145.19Z" transform="translate(-374.644 -122.347)" fill="#d3dcfb"/>
        <path id="Trazado_878986" data-name="Trazado 878986" d="M83.056,51.9V39.21a5.076,5.076,0,0,0-5.076-5.076H22.135a5.076,5.076,0,0,0-5.076,5.076V51.9Z" transform="translate(-17.059 -29.058)" fill="#ff4155"/>
        <g id="Grupo_1103066" data-name="Grupo 1103066" transform="translate(11.542 9.004)">
          <g id="Grupo_1103065" data-name="Grupo 1103065">
            <g id="Grupo_1103061" data-name="Grupo 1103061">
              <path id="Trazado_878987" data-name="Trazado 878987" d="M99.119,62.839h-3.3a1.149,1.149,0,0,1,0-2.3h3.3a1.149,1.149,0,0,1,0,2.3Z" transform="translate(-94.666 -60.541)" fill="#e80054"/>
            </g>
            <g id="Grupo_1103062" data-name="Grupo 1103062" transform="translate(8.117)">
              <path id="Trazado_878988" data-name="Trazado 878988" d="M153.7,62.839h-3.3a1.149,1.149,0,0,1,0-2.3h3.3a1.149,1.149,0,1,1,0,2.3Z" transform="translate(-149.248 -60.541)" fill="#e80054"/>
            </g>
            <g id="Grupo_1103063" data-name="Grupo 1103063" transform="translate(29.19)">
              <path id="Trazado_878989" data-name="Trazado 878989" d="M295.4,62.839h-3.3a1.149,1.149,0,1,1,0-2.3h3.3a1.149,1.149,0,1,1,0,2.3Z" transform="translate(-290.943 -60.541)" fill="#e80054"/>
            </g>
            <g id="Grupo_1103064" data-name="Grupo 1103064" transform="translate(37.308)">
              <path id="Trazado_878990" data-name="Trazado 878990" d="M349.979,62.839h-3.3a1.149,1.149,0,1,1,0-2.3h3.3a1.149,1.149,0,0,1,0,2.3Z" transform="translate(-345.526 -60.541)" fill="#e80054"/>
            </g>
          </g>
        </g>
        <path id="Trazado_878991" data-name="Trazado 878991" d="M125.8,9.518a3.173,3.173,0,0,1-6.345,0V3.173a3.173,3.173,0,1,1,6.345,0V9.518Z" transform="translate(-104.23)" fill="#ebf5fc"/>
        <path id="Trazado_878992" data-name="Trazado 878992" d="M322.081,9.518a3.173,3.173,0,0,1-6.345,0V3.173a3.173,3.173,0,0,1,6.345,0V9.518Z" transform="translate(-271.317)" fill="#ebf5fc"/>
        <path id="Trazado_878993" data-name="Trazado 878993" d="M326.993,0a3.157,3.157,0,0,0-1.76.534,3.169,3.169,0,0,1,1.413,2.639V9.518a3.169,3.169,0,0,1-1.413,2.639,3.172,3.172,0,0,0,4.933-2.639V3.173A3.172,3.172,0,0,0,326.993,0Z" transform="translate(-279.401)" fill="#d3dcfb"/>
        <path id="Trazado_878994" data-name="Trazado 878994" d="M130.715,0a3.157,3.157,0,0,0-1.76.534,3.169,3.169,0,0,1,1.413,2.639V9.518a3.169,3.169,0,0,1-1.413,2.639,3.172,3.172,0,0,0,4.933-2.639V3.173A3.172,3.172,0,0,0,130.715,0Z" transform="translate(-112.314)" fill="#d3dcfb"/>
        <path id="Trazado_878995" data-name="Trazado 878995" d="M406.515,34.133H402.99a5.076,5.076,0,0,1,5.076,5.076V51.9h3.525V39.209a5.076,5.076,0,0,0-5.076-5.076Z" transform="translate(-345.595 -29.057)" fill="#e80054"/>
        <path id="Trazado_878996" data-name="Trazado 878996" d="M17.058,111.74h66v2.3h-66Z" transform="translate(-17.058 -95.122)" fill="#e80054"/>
      </g>
      <circle id="Elipse_11657" data-name="Elipse 11657" cx="19.036" cy="19.036" r="19.036" transform="translate(50.056 38.072)" fill="#4fabf7"/>
      <circle id="Elipse_11658" data-name="Elipse 11658" cx="13.96" cy="13.96" r="13.96" transform="translate(55.133 43.148)" fill="#ebf5fc"/>
      <g id="Grupo_1103069" data-name="Grupo 1103069" transform="translate(67.943 47.076)">
        <g id="Grupo_1103068" data-name="Grupo 1103068">
          <path id="Trazado_878997" data-name="Trazado 878997" d="M360.365,325.183a1.149,1.149,0,0,1-1.149-1.149v-6.345a1.149,1.149,0,1,1,2.3,0v6.345A1.149,1.149,0,0,1,360.365,325.183Z" transform="translate(-359.216 -316.54)" fill="#3c58a0"/>
        </g>
      </g>
      <g id="Grupo_1103071" data-name="Grupo 1103071" transform="translate(70.481 55.959)">
        <g id="Grupo_1103070" data-name="Grupo 1103070">
          <path id="Trazado_878998" data-name="Trazado 878998" d="M381.238,378.572h-3.807a1.149,1.149,0,0,1,0-2.3h3.807a1.149,1.149,0,1,1,0,2.3Z" transform="translate(-376.282 -376.274)" fill="#3c58a0"/>
        </g>
      </g>
      <path id="Trazado_878999" data-name="Trazado 878999" d="M356.856,256c-.594,0-1.182.029-1.762.082a19.036,19.036,0,0,1,0,37.908c.58.053,1.168.082,1.762.082a19.036,19.036,0,0,0,0-38.072Z" transform="translate(-287.764 -217.928)" fill="#1886ea"/>
      <path id="Trazado_879000" data-name="Trazado 879000" d="M356.864,290.133a14.1,14.1,0,0,0-1.761.11,13.961,13.961,0,0,1,0,27.7,13.96,13.96,0,1,0,1.761-27.809Z" transform="translate(-287.771 -246.985)" fill="#d3dcfb"/>
      <circle id="Elipse_11659" data-name="Elipse 11659" cx="2.538" cy="2.538" r="2.538" transform="translate(66.554 54.57)" fill="#ffdd40"/>
    </g>
  </g>
</svg>
