<svg xmlns="http://www.w3.org/2000/svg" xmlns:xlink="http://www.w3.org/1999/xlink" width="400" height="188.754" viewBox="0 0 400 188.754">
  <defs>
    <clipPath id="clip-path">
      <rect id="Rect치ngulo_403392" data-name="Rect치ngulo 403392" width="321.61" height="188.754" fill="none"/>
    </clipPath>
  </defs>
  <g id="Grupo_1102996" data-name="Grupo 1102996" transform="translate(-180 -3602.793)">
    <path id="Uni칩n_6" data-name="Uni칩n 6" d="M6356,11870a20,20,0,0,1-20-20v-45.284a20,20,0,0,1,20-20h122.374V11720a20,20,0,0,1,20-20H6716a20,20,0,0,1,20,20v130a20,20,0,0,1-20,20Z" transform="translate(-6156.001 -8079)" fill="#00ffdf"/>
    <g id="Grupo_1102995" data-name="Grupo 1102995" transform="translate(219.694 3602.793)">
      <g id="Grupo_1102995-2" data-name="Grupo 1102995" clip-path="url(#clip-path)">
        <path id="Trazado_878675" data-name="Trazado 878675" d="M539.278,162.769c1.57,2.311,3.962,3.8,1.72,5.917-2.5,2.36-9.39,9.515-9.39,9.515l6.19,13.584s9.7-9.8,14.786-15.247,7.826-11.066,4.5-16.888-17.806,3.119-17.806,3.119" transform="translate(-266.241 -78.97)" fill="#f2ac30"/>
        <path id="Trazado_878676" data-name="Trazado 878676" d="M538.815,162.565c.67.947,1.467,1.8,2.121,2.753.893,1.306.228,2.291-.77,3.249-1.208,1.163-2.383,2.359-3.559,3.553q-2.728,2.77-5.425,5.575a.257.257,0,0,0-.039.3q3.1,6.791,6.19,13.584a.252.252,0,0,0,.392.051q3.734-3.771,7.433-7.574,2.9-2.979,5.768-5.989a38.074,38.074,0,0,0,5.855-7.362,12.147,12.147,0,0,0,1.564-8.132c-.342-1.916-1.251-4.16-3.125-5.018-3.168-1.45-7.461.368-10.388,1.619a45.208,45.208,0,0,0-5.928,3.047c-.274.168-.023.6.252.431a44.813,44.813,0,0,1,7.478-3.673A18.377,18.377,0,0,1,552.6,157.6c2.441-.068,3.794,1.076,4.718,3.267,2.883,6.833-3.07,12.994-7.386,17.527-3.554,3.732-7.161,7.413-10.777,11.082q-.888.9-1.779,1.8l.392.051-6.169-13.54c-.073-.161-.159.362-.009.206l.29-.3q.686-.711,1.373-1.42,2.16-2.229,4.338-4.437,1.059-1.073,2.13-2.134a10.644,10.644,0,0,0,1.786-1.839c1.256-2.128-1.135-3.963-2.259-5.551-.184-.26-.617-.011-.43.252" transform="translate(-265.993 -78.64)" fill="#f2ac30"/>
        <path id="Trazado_878677" data-name="Trazado 878677" d="M458.707,226.9c-.3,4.06-3.918,42.416-5.962,64h22.537l6.158-52.773L486.5,290.9h25.737c-1.843-18.2-4.82-47.281-5.571-52.633-1.11-7.9-2.634-21.855-9.287-33.221-4.574-.693-41.306,7.855-41.306,7.855.832,2.494,3.049,8.316,2.633,14" transform="translate(-226.744 -102.669)" fill="#32015c"/>
        <path id="Trazado_878678" data-name="Trazado 878678" d="M454.431,267.467q-1.091,11.586-2.192,23.17h.5q1.523-16.07,3.037-32.141c1-10.612,2.144-21.228,2.929-31.859.293-4.792-1.058-9.33-2.559-13.817q7.6-1.766,15.238-3.4c7.6-1.633,15.276-3.444,23.011-4.292.647-.071,2.374-.47,2.73.145a54.8,54.8,0,0,1,4.376,9.915,102.209,102.209,0,0,1,4.041,18.307c.916,6.374,1.6,12.771,2.28,19.173q2.019,18.977,3.918,37.965h.5q-1.828-18.1-3.728-36.187c-.649-6.138-1.277-12.281-2.113-18.4a131.671,131.671,0,0,0-3.333-17.476,65.867,65.867,0,0,0-3.39-9.411,49.878,49.878,0,0,0-2.329-4.511c-.133-.229-.685-.162-.907-.163a46.854,46.854,0,0,0-8.03,1.03c-4.113.713-8.206,1.539-12.292,2.389q-9.837,2.045-19.627,4.315l-.732.17a.25.25,0,0,0-.174.307c1.521,4.526,2.92,9.095,2.625,13.933-1.005,13.625-2.491,27.229-3.773,40.829" transform="translate(-226.491 -102.41)" fill="#32015c"/>
        <path id="Trazado_878679" data-name="Trazado 878679" d="M504.051,271.113a.25.25,0,0,0-.5,0q-1.931,16.549-3.862,33.1-1.149,9.837-2.3,19.675h.5q1.177-10.085,2.354-20.17,1.766-15.127,3.53-30.255,1.481,15.437,2.961,30.875l1.875,19.55h.5q-.973-10.147-1.947-20.295l-3.115-32.479" transform="translate(-249.106 -135.659)" fill="#32015c"/>
        <path id="Trazado_878680" data-name="Trazado 878680" d="M317.906,77.236c-.554-1.663-2.863-8.225-2.863-8.225s-6.746-4.25-9.7-5.913-4.251-7.392.554-8.779c1.294-2.4,3.271-2.613,4.38-1.966.738-5.452,3.5-6.109,6.546-5.092s4.906,3.636,6.753,7.794,2.281,6.38,3.851,10.538,2.772,7.3,2.772,7.3-3.6,7.577-12.29,4.342" transform="translate(-151.598 -23.469)" fill="#ffd4d4"/>
        <path id="Trazado_878681" data-name="Trazado 878681" d="M322.772,72.526a7.393,7.393,0,1,1-7.392-7.392,7.392,7.392,0,0,1,7.392,7.392" transform="translate(-154.247 -32.62)" fill="#d4336e"/>
        <path id="Trazado_878682" data-name="Trazado 878682" d="M305.512,65.618c1.04,1.178,2.772.554,2.5-2.009,1.732-.14,2.079-2.565,3.673-4.714.693,2.773,1.941,3.119,2.842,2.7s1.663-.97,1.732-3.534.833-3.257,1.941-2.911,2.08,2.911,3.465,6.1,1.525,5.683-.486,6.167a6.932,6.932,0,0,0-4.989,3.4c-1.179,2.148.208,4.228,3.882,2.634a9.163,9.163,0,0,0,4.781-4.159A37,37,0,0,0,322.63,57.58a6.2,6.2,0,0,0-7-4.159l-5.752,4.3-4.574,4.92" transform="translate(-152.903 -26.705)" fill="#ffd4d4"/>
        <path id="Trazado_878683" data-name="Trazado 878683" d="M472.925,61.581c2.679.231,5.5-2.772,4.852-6.376s-6.331,1.894-6.331,1.894Z" transform="translate(-236.11 -27.035)" fill="#495edb"/>
        <path id="Trazado_878684" data-name="Trazado 878684" d="M472.674,61.556a5.052,5.052,0,0,0,4.6-2.988c.575-1.108,1.237-4.079-.192-4.894-1.906-1.087-4.813,1.774-6.062,2.975a.247.247,0,0,0-.064.243l1.479,4.482c.1.3.583.174.481-.133q-.63-1.912-1.262-3.824l-.2-.6c.017.051-.176.265.088.019.425-.395.87-.768,1.325-1.129.835-.663,3.412-2.74,4.263-1.225.718,1.278.062,3.278-.617,4.416a4.347,4.347,0,0,1-3.842,2.157c-.322-.014-.321.485,0,.5" transform="translate(-235.859 -26.76)" fill="#495edb"/>
        <path id="Trazado_878685" data-name="Trazado 878685" d="M418.965,29.494c-.555,3.511-1.2,6.538,1.94,12.174s4.25,12.729,14.6,11.3a35.9,35.9,0,0,1,1.295,4.713l13.583-2.957L446.039,41.5c5.776-1.708,5.681-5.338,4.664-7.74s-10.023-11.94-13.259-12.772-15.154-.185-18.48,8.5" transform="translate(-209.595 -10.378)" fill="#ffd4d4"/>
        <path id="Trazado_878686" data-name="Trazado 878686" d="M449.055,56.83c.852-.952-.7-3-1.6-2.137s.906,2.92,1.6,2.137" transform="translate(-223.969 -27.287)"/>
        <path id="Trazado_878687" data-name="Trazado 878687" d="M430.034,59.33c.851-.953-.7-3-1.607-2.137s.908,2.92,1.607,2.137" transform="translate(-214.442 -28.539)"/>
        <path id="Trazado_878688" data-name="Trazado 878688" d="M433.537,60.236a5.39,5.39,0,0,1-2.615-.724c-1.207-.8-1.088-1.961-.814-2.987.587-2.537-.6-4.759-3.266-6.088a.249.249,0,1,1,.223-.446c2.844,1.419,4.163,3.907,3.528,6.655-.287,1.076-.288,1.855.587,2.44a4.891,4.891,0,0,0,2.358.651.25.25,0,0,1,0,.5" transform="translate(-213.702 -25.023)"/>
        <path id="Trazado_878689" data-name="Trazado 878689" d="M441.207,70.449a.25.25,0,0,1-.058-.492,9.1,9.1,0,0,0,5.135-3.292.25.25,0,0,1,.382.321,9.562,9.562,0,0,1-5.4,3.455.232.232,0,0,1-.058.007" transform="translate(-220.841 -33.343)"/>
        <path id="Trazado_878690" data-name="Trazado 878690" d="M452.591,74.742a.25.25,0,0,1-.09-.482,12.085,12.085,0,0,0,4.3-2.943l.21-.239a10.994,10.994,0,0,0,1.55-2.061,20.087,20.087,0,0,0,1.095-2.465,7.312,7.312,0,0,0,.586-2.41.25.25,0,0,1,.5,0,7.718,7.718,0,0,1-.617,2.583A20.563,20.563,0,0,1,459,69.25a11.379,11.379,0,0,1-1.617,2.158l-.217.246a12.588,12.588,0,0,1-4.487,3.07.25.25,0,0,1-.09.017" transform="translate(-226.542 -31.999)"/>
        <path id="Trazado_878691" data-name="Trazado 878691" d="M442.974,48.264c-.369-1.2,1.062-1.988,3.1-1.155s2.433,1.761,1.8,1.617c-3.649-.831-4.666.046-4.9-.462" transform="translate(-221.822 -23.42)" fill="#495edb"/>
        <path id="Trazado_878692" data-name="Trazado 878692" d="M442.983,47.946c-.408-1.745,2.268-1.072,3.052-.734a5.07,5.07,0,0,1,1.421.886l.1.11q.112.314.145.025c-.35-.053-.7-.146-1.05-.207a11.879,11.879,0,0,0-2.5-.169c-.168.006-1.1.2-1.2.028a.25.25,0,0,0-.431.252c.32.572,1.5.218,2,.208a18.656,18.656,0,0,1,3.146.382.4.4,0,0,0,.494-.358c0-.379-.417-.714-.688-.909a6.547,6.547,0,0,0-2.764-1.168c-1.177-.184-2.528.419-2.209,1.785.074.313.555.181.482-.133" transform="translate(-221.59 -23.169)" fill="#495edb"/>
        <path id="Trazado_878693" data-name="Trazado 878693" d="M424.771,49.981c-1.295-.739-3-1.155-3.558-.416s-.092,1.617.462,1.571a25.356,25.356,0,0,1,3.512-.323c.461,0,0-.508-.416-.832" transform="translate(-210.828 -24.629)" fill="#495edb"/>
        <path id="Trazado_878694" data-name="Trazado 878694" d="M424.646,49.475c-.9-.491-2.415-1.222-3.443-.693-.751.387-1.132,1.833-.159,2.23a2.438,2.438,0,0,0,1.24-.026c.683-.094,1.367-.184,2.057-.222.346-.019.794.121,1-.224s-.445-.858-.647-1.026c-.246-.2-.6.147-.353.353.122.1.631.4.322.391a7.612,7.612,0,0,0-.886.047c-.6.052-1.2.141-1.8.223-.186.025-.371.05-.558.068q-.573-.094-.44-.8c.07-.493.47-.614.859-.653a4.787,4.787,0,0,1,2.551.766c.282.155.534-.276.252-.431" transform="translate(-210.576 -24.339)" fill="#495edb"/>
        <path id="Trazado_878695" data-name="Trazado 878695" d="M429.858,13.922c-.647,3.327.184,9.933,3.418,13.4s2.772-2.726,2.4-3.742c1.847-2.125,5.349-2.522,6.69.9a9.516,9.516,0,0,1-.3,3.953,5.248,5.248,0,0,0,2.715-6.329c-.878-1.94-1.2-5.73-.97-8.687s-2.727-9.656-10.905-7.531c-2.315-4.025-4.7-4.787-8.883-4.16-3.8.569-8.058-2.008-11.246-.945-2.108.7-3.342,2.98-.154,6.168-4.944-1.386-9.379-1.2-11.319,3.7s.553,11.227,8.27,11.366a16.233,16.233,0,0,1,.669-3.107c.6,3.6,3.627,3.661,6.445,1.49a27.433,27.433,0,0,0,5.037-5.406c-1.11,3-.139,3.373,2.033,3.142s4.667-3.605,6.1-4.205" transform="translate(-200.667 -0.259)" fill="#495edb"/>
        <path id="Trazado_878696" data-name="Trazado 878696" d="M429.379,13.6a18.678,18.678,0,0,0,1.2,9.9c.37.942,3,6.271,4.694,4.627a3.435,3.435,0,0,0,.681-2.408,10.558,10.558,0,0,0-.084-1.522c-.065-.549-.248-.717.142-1.1a3.569,3.569,0,0,1,5.114-.1c1.311,1.367.918,3.462.466,5.112a.252.252,0,0,0,.366.282,5.586,5.586,0,0,0,3.123-5.284,15.259,15.259,0,0,0-.848-3.087,22.588,22.588,0,0,1-.476-5.325,10.957,10.957,0,0,0-.656-4.955,8.152,8.152,0,0,0-3.638-3.9,7.5,7.5,0,0,0-2.729-.808,11.432,11.432,0,0,0-1.9-.028c-.386.025-1.957.484-2.147.162a7.713,7.713,0,0,0-5.094-4.017,11.04,11.04,0,0,0-3.451.02,15.307,15.307,0,0,1-5.363-.421c-2.345-.524-5.214-1.41-7.389.084-2.374,1.63-.662,4.493.821,6.037l.243-.417c-2.532-.692-5.568-1.283-8.061-.118a7.684,7.684,0,0,0-4.112,6.072,8.517,8.517,0,0,0,1.727,6.477c1.749,2.212,4.623,3.036,7.331,3.121a.255.255,0,0,0,.25-.25,15.916,15.916,0,0,1,.66-3.041h-.482c.6,3.033,3.042,3.742,5.641,2.407,2.548-1.308,4.689-3.936,6.3-6.263l-.456-.192c-.309.876-.759,2.033-.236,2.917.42.709,1.554.616,2.233.568,2.815-.2,4.164-3.148,6.5-4.266.291-.138.037-.569-.252-.431-1.733.828-2.943,2.584-4.561,3.616a4.153,4.153,0,0,1-2.97.551c-1.256-.24-.491-2.094-.234-2.821.1-.283-.3-.412-.456-.193a26.21,26.21,0,0,1-4.359,4.838,6.91,6.91,0,0,1-3.882,1.9c-1.684.129-2.5-1.323-2.785-2.763-.051-.259-.409-.218-.482,0a16.634,16.634,0,0,0-.677,3.173l.25-.25a9.278,9.278,0,0,1-6.807-2.773,7.776,7.776,0,0,1-1.811-5.81,7.393,7.393,0,0,1,3.667-6.037c2.395-1.26,5.471-.625,7.933.048a.251.251,0,0,0,.243-.417c-1.677-1.745-2.985-4.644.043-5.751,2.479-.907,5.536.439,8,.858,2.306.391,4.554-.343,6.849.007,2.347.359,3.855,2.192,4.994,4.125a.253.253,0,0,0,.282.114c2.737-.671,5.6-.54,7.847,1.314a7.945,7.945,0,0,1,2.721,5.057c.146,1.2-.066,2.447-.04,3.653a22.14,22.14,0,0,0,.563,4.591c.338,1.432.938,2.45.624,3.983a4.843,4.843,0,0,1-2.747,3.494l.367.282c.586-2.141.8-4.388-1-5.993-1.771-1.573-4.381-.641-5.8.9a.252.252,0,0,0-.064.243,7.575,7.575,0,0,1,.182,3.238c-.351,2.547-2.406.089-3.119-.95a17.111,17.111,0,0,1-2.4-11.944c.056-.315-.424-.449-.482-.133" transform="translate(-200.428 0)" fill="#495edb"/>
        <path id="Trazado_878697" data-name="Trazado 878697" d="M419.655,32.4a.249.249,0,0,1-.247-.217l-.044-.318A6.945,6.945,0,0,1,419.269,30a6.69,6.69,0,0,1,1.535-3.224,6.109,6.109,0,0,1,1.25-1.245.25.25,0,1,1,.285.409,5.694,5.694,0,0,0-1.15,1.153,6.2,6.2,0,0,0-1.427,2.979,6.585,6.585,0,0,0,.094,1.73l.045.323a.25.25,0,0,1-.215.28l-.033,0" transform="translate(-209.963 -12.763)"/>
        <path id="Trazado_878698" data-name="Trazado 878698" d="M470.267,47.995l-.038,0a.242.242,0,0,1-.207-.279,4.959,4.959,0,0,0,.089-.79,3.367,3.367,0,0,0-.086-.683c-.085-.38-.181-.81-.317-1.225a8.628,8.628,0,0,0-.763-1.754.249.249,0,1,1,.431-.252,9.118,9.118,0,0,1,.808,1.854,12.924,12.924,0,0,1,.329,1.267,3.817,3.817,0,0,1,.1.793,5.234,5.234,0,0,1-.093.855.26.26,0,0,1-.25.217" transform="translate(-234.84 -21.478)"/>
        <path id="Trazado_878699" data-name="Trazado 878699" d="M332.237,96.123c2.911.832,9.287-.693,12.475-5.128,2.218,4.99,9.7,21.761,10.257,22.593s7.346-4.159,15.109-10.4,12.474-8.038,17.187-7.484,6.931-.139,6.515-2.772-.97-4.852-.97-4.852,5.405,2.217,13.861-2.772c1.8,5.268,1.663,6.238,2.357,7.069s6.931-1.8,12.891-.969,18.251,13.964,24.071,19.406c7.115,6.653,15.362,13.86,11.366,21.9-2.79,5.611-12.843,1.662-12.843,1.662s-.833-2.495-5.268-6.93-11.921-12.06-11.921-12.06,8.779,26.43,10.442,30.449c-8.871,7.485-34.877,11.277-41.926,8.073-2.307-6.921-10.1-30.9-13.564-37.412-10.534,7.346-17.881,14.416-24.117,16.633s-11.783,4.435-17.327-10.673c-3.174-8.651-8.594-26.336-8.594-26.336" transform="translate(-166.391 -42.726)" fill="#f2ac30"/>
        <path id="Trazado_878700" data-name="Trazado 878700" d="M331.917,96.113c4.554,1.193,10.086-1.653,12.758-5.243h-.431c3.253,7.316,6.408,14.7,9.9,21.9.314.647.493,1.064,1.291.8,1.845-.6,3.556-2.061,5.107-3.172,5.742-4.116,10.931-9.2,17.163-12.581a17.55,17.55,0,0,1,6.455-2.149c2.25-.24,4.475.37,6.728.146,1.358-.135,2.705-.713,2.915-2.195a10.2,10.2,0,0,0-.421-3.177c-.173-.9-.365-1.794-.585-2.681l-.307.307a9.949,9.949,0,0,0,3.826.494,21.694,21.694,0,0,0,10.227-3.291l-.366-.149c.705,2.078,1.187,4.242,1.929,6.3.4,1.112,1.032,1.183,2.146,1.032,3.1-.422,6.067-1.228,9.23-1.214a11.53,11.53,0,0,1,6.334,1.971c4.544,2.8,8.484,6.661,12.32,10.336,3.909,3.744,7.846,7.471,11.722,11.249,4.48,4.367,10.109,10.48,7.193,17.194-1.892,4.353-7.7,3.425-11.356,2.349q-.644-.189-1.273-.421c-.237-.088.111.222.062.092s-.119-.286-.185-.426a21.329,21.329,0,0,0-3.56-4.919c-3.683-4.122-7.794-7.917-11.671-11.859q-.91-.925-1.819-1.85a.251.251,0,0,0-.417.243q2.958,8.907,5.979,17.792c1.211,3.559,2.42,7.119,3.7,10.652.181.5.365,1,.556,1.49.076.2.166.357.1.409-.447.37-.923.7-1.4,1.029a32.059,32.059,0,0,1-6.048,3.047,72.034,72.034,0,0,1-15.011,3.951,60.536,60.536,0,0,1-14.222.867,22.367,22.367,0,0,1-2.62-.35c-.313-.061-1.971-.3-2.085-.637q-.789-2.366-1.57-4.736c-1.549-4.671-3.116-9.335-4.732-13.983-1.272-3.661-2.575-7.312-3.959-10.933a70.155,70.155,0,0,0-3.282-7.68.249.249,0,0,0-.341-.089c-5.753,4.025-11.136,8.543-16.876,12.581a32.012,32.012,0,0,1-11.426,5.356c-4.063.9-7.06-1.123-9.266-4.446-3.108-4.681-4.644-10.469-6.4-15.764q-2.96-8.941-5.708-17.953c-.093-.306-.576-.176-.481.133,2.389,7.793,4.838,15.575,7.506,23.277,1.637,4.726,3.336,10.214,7.234,13.611,2.413,2.1,5.384,2.171,8.332,1.35a35.343,35.343,0,0,0,11.022-5.532c5.535-3.928,10.747-8.288,16.311-12.181l-.341-.089a90.737,90.737,0,0,1,4.553,11.092c1.807,4.917,3.507,9.874,5.181,14.837,1.267,3.757,2.506,7.523,3.758,11.284.3.9,2.816,1.07,3.6,1.184a36.112,36.112,0,0,0,5.825.269,78.314,78.314,0,0,0,18.194-2.692c5.119-1.343,10.634-3.148,14.767-6.584a.242.242,0,0,0,.064-.243c-2.239-5.451-3.96-11.153-5.845-16.732q-2.316-6.852-4.6-13.716l-.417.243q4.237,4.316,8.492,8.613c2.117,2.136,4.325,4.206,6.233,6.535a13.57,13.57,0,0,1,2.4,3.726c.179.5,1.824.722,2.234.832a17.961,17.961,0,0,0,5.624.683,6.572,6.572,0,0,0,4.858-2.19,9.138,9.138,0,0,0,1.547-6.828c-.372-2.765-1.979-5.257-3.648-7.415a64.718,64.718,0,0,0-7.182-7.447c-3.764-3.519-7.39-7.18-11.153-10.7-3.578-3.346-7.343-6.9-11.718-9.189-4.7-2.461-9.905-.46-14.808.088-1.044.117-1.18-.641-1.425-1.5-.531-1.856-1.066-3.7-1.687-5.531a.253.253,0,0,0-.366-.149,21.655,21.655,0,0,1-9.976,3.223,9.254,9.254,0,0,1-3.693-.476c-.186-.075-.348.14-.307.306.22.889.407,1.785.585,2.682.246,1.237.922,3.035-.135,4.064-.825.8-2.382.747-3.432.737-1.332-.012-2.645-.264-3.976-.269-5.158-.021-9.833,3.173-13.781,6.144-5.087,3.829-9.865,8.4-15.484,11.468-.2.108-1.079.64-1.222.384-.211-.378-.389-.777-.575-1.169-.752-1.584-1.476-3.182-2.2-4.779q-3.752-8.253-7.421-16.544c-.084-.19-.333-.132-.431,0-2.533,3.4-7.873,6.145-12.193,5.014a.25.25,0,0,0-.133.481" transform="translate(-166.138 -42.475)" fill="#f2ac30"/>
        <path id="Trazado_878701" data-name="Trazado 878701" d="M317.717,76.068a2.273,2.273,0,0,1-1.749-.667,2.477,2.477,0,0,1-.044-2.9,7.186,7.186,0,0,1,5.15-3.518,1.547,1.547,0,0,0,1.1-.829c.479-.961.2-2.736-.782-5-1.238-2.849-2.308-5.309-3.33-5.628a1.08,1.08,0,0,0-.975.023c-.378.27-.588,1.052-.623,2.324-.072,2.7-.928,3.317-1.876,3.754a1.646,1.646,0,0,1-1.44.008,3.627,3.627,0,0,1-1.605-2.361,18.722,18.722,0,0,0-1.013,1.8c-.64,1.244-1.2,2.33-2.292,2.554a2.369,2.369,0,0,1-1.069,2.5,1.625,1.625,0,0,1-1.883-.539.25.25,0,1,1,.374-.33,1.144,1.144,0,0,0,1.307.413c.459-.2.9-.895.753-2.231a.25.25,0,0,1,.228-.276c.984-.079,1.493-1.068,2.137-2.32a16.02,16.02,0,0,1,1.355-2.294.247.247,0,0,1,.249-.1.25.25,0,0,1,.194.184c.431,1.727,1.043,2.339,1.48,2.548a1.167,1.167,0,0,0,1.015-.011c.859-.4,1.522-.893,1.586-3.314.04-1.477.305-2.34.832-2.717a1.576,1.576,0,0,1,1.414-.094c1.184.368,2.108,2.381,3.639,5.906.737,1.7,1.47,4.015.77,5.419a2.041,2.041,0,0,1-1.426,1.091,6.742,6.742,0,0,0-4.829,3.274,2.007,2.007,0,0,0-.024,2.322c.621.682,1.963.667,3.588-.037A9.023,9.023,0,0,0,324.576,71a.25.25,0,0,1,.458.2,9.338,9.338,0,0,1-4.911,4.288,6.207,6.207,0,0,1-2.406.583" transform="translate(-152.86 -28.512)"/>
        <path id="Trazado_878702" data-name="Trazado 878702" d="M338.714,117.175a6.213,6.213,0,0,1-2.379-.443.25.25,0,0,1,.189-.462,7.211,7.211,0,0,0,4.625.06,11.693,11.693,0,0,0,5.163-2.508c.094-.1.206-.2.322-.305a4.5,4.5,0,0,0,.945-1.087.249.249,0,1,1,.436.243,4.958,4.958,0,0,1-1.042,1.211c-.11.1-.218.2-.316.3a12.155,12.155,0,0,1-5.383,2.63,10.174,10.174,0,0,1-2.559.362" transform="translate(-168.366 -56.243)"/>
        <path id="Trazado_878703" data-name="Trazado 878703" d="M338.88,114.363a.251.251,0,0,1-.235-.164c-.153-.42-.3-.847-.445-1.279-.207-.608-.42-1.237-.662-1.857-.259-.644-.552-1.376-.79-2.091-.062-.186-.141-.367-.219-.547a3.623,3.623,0,0,1-.348-1.127.249.249,0,1,1,.5-.042,3.248,3.248,0,0,0,.309.971c.083.193.167.387.234.588.234.7.524,1.426.78,2.065s.463,1.267.671,1.881c.146.428.289.852.442,1.268a.25.25,0,0,1-.149.32.259.259,0,0,1-.086.015" transform="translate(-168.366 -53.601)"/>
        <path id="Trazado_878704" data-name="Trazado 878704" d="M343.739,113.669a.249.249,0,0,1-.212-.117,5.091,5.091,0,0,1-.418-.956c-.051-.142-.1-.285-.158-.423-.1-.292-.2-.568-.305-.845s-.208-.555-.3-.832c-.2-.557-.452-1.17-.775-1.868-.144-.336-.262-.679-.376-1.011s-.229-.665-.365-.981a.25.25,0,1,1,.458-.2c.144.333.263.68.379,1.016s.227.657.36.971c.326.706.585,1.332.79,1.909.093.276.195.548.3.819s.213.566.307.85c.053.13.106.278.159.426a4.646,4.646,0,0,0,.371.86.25.25,0,0,1-.079.344.246.246,0,0,1-.132.038" transform="translate(-170.685 -53.23)"/>
        <path id="Trazado_878705" data-name="Trazado 878705" d="M349.892,111.633a.249.249,0,0,1-.242-.189,5.644,5.644,0,0,0-.281-.752c-.063-.147-.124-.291-.173-.423-.115-.275-.221-.558-.327-.841s-.2-.543-.316-.815l-.026-.064c-.536-1.294-1.09-2.633-1.681-3.949a.25.25,0,0,1,.456-.2c.593,1.322,1.149,2.664,1.686,3.962l.026.064c.115.277.219.554.323.831s.208.555.323.832c.05.134.109.272.168.412a6.034,6.034,0,0,1,.305.825.25.25,0,0,1-.242.311" transform="translate(-173.697 -52.21)"/>
        <path id="Trazado_878706" data-name="Trazado 878706" d="M353.689,107.286a.249.249,0,0,1-.223-.137,4.374,4.374,0,0,1-.2-.494,4.231,4.231,0,0,0-.171-.432l-.707-1.716a12.653,12.653,0,0,1-.555-1.319c-.033-.076-.086-.179-.142-.287a2.793,2.793,0,0,1-.331-.87.25.25,0,0,1,.5-.063,2.458,2.458,0,0,0,.28.7c.061.119.12.234.164.338a12.619,12.619,0,0,0,.54,1.285l.151.326.559,1.4a4.25,4.25,0,0,1,.187.468,3.987,3.987,0,0,0,.174.437.25.25,0,0,1-.11.335.252.252,0,0,1-.112.026" transform="translate(-175.969 -50.959)"/>
        <path id="Trazado_878707" data-name="Trazado 878707" d="M459.113,98.491a.249.249,0,0,1-.248-.225,7.006,7.006,0,0,0-.311-1.377c-.051-.214-.09-.406-.13-.6a10.049,10.049,0,0,0-.286-1.159c-.226-.588-.412-1.193-.592-1.777-.082-.3-.14-.553-.2-.809s-.114-.5-.183-.754a.25.25,0,0,1,.482-.132c.07.258.129.517.188.775s.113.5.182.75c.185.6.368,1.2.593,1.779a10.653,10.653,0,0,1,.306,1.226c.038.187.077.374.121.562a7.171,7.171,0,0,1,.327,1.464.25.25,0,0,1-.223.273h-.025" transform="translate(-228.953 -45.814)"/>
        <path id="Trazado_878708" data-name="Trazado 878708" d="M464.113,98.953a.25.25,0,0,1-.25-.25,1.544,1.544,0,0,0-.085-.419c-.017-.058-.033-.114-.047-.167a5.965,5.965,0,0,0-.225-.86c-.155-.714-.354-1.389-.511-1.9-.1-.361-.179-.714-.262-1.067s-.158-.681-.249-1.021c-.034-.171-.082-.331-.131-.5a3.7,3.7,0,0,1-.2-1.046.25.25,0,1,1,.5,0,3.324,3.324,0,0,0,.181.9c.053.179.1.354.138.524.088.33.169.676.25,1.021s.162.7.255,1.043c.157.512.359,1.2.512,1.906a6.171,6.171,0,0,1,.232.89l.037.125a1.968,1.968,0,0,1,.106.562.25.25,0,0,1-.25.25" transform="translate(-231.456 -45.814)"/>
        <path id="Trazado_878709" data-name="Trazado 878709" d="M469.665,97.934a.25.25,0,0,1-.237-.171c-.023-.071-.047-.154-.07-.237s-.045-.157-.068-.225a3.547,3.547,0,0,1-.193-.677,10.782,10.782,0,0,0-.262-1.091c-.052-.187-.1-.374-.151-.561l-.171-.638c-.317-1.184-.618-2.3-.893-3.477a.25.25,0,0,1,.487-.114c.273,1.167.571,2.281.888,3.461l.173.643c.046.186.1.369.148.552a11.006,11.006,0,0,1,.273,1.136,3.092,3.092,0,0,0,.17.594c.03.088.055.174.079.261s.043.151.065.216a.249.249,0,0,1-.237.328" transform="translate(-234.191 -45.35)"/>
        <path id="Trazado_878710" data-name="Trazado 878710" d="M474.941,95.991a.25.25,0,0,1-.238-.174c-.338-1.064-.623-2.123-.881-3.108l-.131-.428c-.143-.471-.29-.958-.465-1.445-.079-.219-.142-.454-.206-.692a5.992,5.992,0,0,0-.294-.907.25.25,0,0,1,.456-.206,6.376,6.376,0,0,1,.32.984c.06.224.118.445.193.651.179.5.328.993.473,1.47l.133.436c.259.989.542,2.041.877,3.094a.25.25,0,0,1-.163.313.244.244,0,0,1-.075.011" transform="translate(-236.741 -44.515)"/>
        <path id="Trazado_878711" data-name="Trazado 878711" d="M460.058,103.2a5.169,5.169,0,0,1-.944-.081,10.448,10.448,0,0,1-1.253-.293,8.358,8.358,0,0,0-1.407-.305.25.25,0,0,1,.05-.5,8.855,8.855,0,0,1,1.49.32,10.161,10.161,0,0,0,1.2.282,5.593,5.593,0,0,0,1.512.045,5.937,5.937,0,0,1,.7-.01,4.734,4.734,0,0,0,.9-.034,14.008,14.008,0,0,0,3.176-1.091,20.769,20.769,0,0,0,2.645-1.369c.5-.32,1.013-.644,1.512-1.007.262-.219.549-.506.8-.76a.249.249,0,1,1,.353.352c-.261.261-.556.557-.848.8-.524.382-1.04.71-1.539,1.028a21.376,21.376,0,0,1-2.722,1.411,14.375,14.375,0,0,1-3.3,1.127,5.149,5.149,0,0,1-.992.041,5.581,5.581,0,0,0-.643.008c-.251.021-.48.031-.694.031" transform="translate(-228.489 -49.244)"/>
        <path id="Trazado_878712" data-name="Trazado 878712" d="M430.837,145.142a.249.249,0,0,1-.223-.138c-.109-.219-.2-.454-.287-.681s-.169-.439-.268-.636a9.884,9.884,0,0,0-.545-1.23c-.1-.23-.208-.425-.314-.62a4.755,4.755,0,0,1-.548-1.331.25.25,0,0,1,.49-.1,4.3,4.3,0,0,0,.5,1.192c.111.207.222.413.316.627a9.783,9.783,0,0,1,.563,1.269,6.945,6.945,0,0,1,.273.647c.087.226.17.44.268.637a.25.25,0,0,1-.223.361" transform="translate(-214.676 -70.218)"/>
        <path id="Trazado_878713" data-name="Trazado 878713" d="M513.775,138.783a.284.284,0,0,1-.129-.031,5.636,5.636,0,0,1-1.286-1.018c-.148-.143-.3-.287-.452-.424a10.083,10.083,0,0,0-1.475-1.04l-1.93-1.241a.3.3,0,0,1-.091-.409.284.284,0,0,1,.4-.095l1.92,1.236a10.548,10.548,0,0,1,1.551,1.1c.164.146.32.3.474.444a5.1,5.1,0,0,0,1.15.92.3.3,0,0,1,.129.4.288.288,0,0,1-.258.165" transform="translate(-254.602 -67.35)"/>
        <path id="Trazado_878714" data-name="Trazado 878714" d="M540.69,198.518a.25.25,0,0,1-.234-.162l-3.223-8.664a.25.25,0,0,1,.468-.174l3.223,8.663a.25.25,0,0,1-.147.321.256.256,0,0,1-.087.015" transform="translate(-269.05 -94.833)"/>
        <path id="Trazado_878715" data-name="Trazado 878715" d="M473.765,226.4a66.373,66.373,0,0,1-6.945-.357.248.248,0,0,1-.222-.275.244.244,0,0,1,.274-.222c13.471,1.418,28.607-1.494,38.565-7.417a.25.25,0,1,1,.256.429c-8.358,4.972-20.327,7.841-31.927,7.841" transform="translate(-233.682 -109.227)"/>
        <path id="Trazado_878716" data-name="Trazado 878716" d="M534.368,239.854a6.153,6.153,0,0,1-2.409-.509c-3.691-1.561-6.622-6.474-7.782-10.377a.25.25,0,0,1,.479-.142c1.164,3.916,4.113,8.628,7.5,10.06a5.513,5.513,0,0,0,4.9-.229.25.25,0,1,1,.231.442,6.252,6.252,0,0,1-2.916.755" transform="translate(-262.514 -114.511)"/>
        <path id="Trazado_878717" data-name="Trazado 878717" d="M547.036,242.44a.249.249,0,0,1-.248-.226c-.954-10.09-6.16-20.6-6.212-20.7a.25.25,0,1,1,.446-.223c.053.106,5.3,10.694,6.263,20.879a.25.25,0,0,1-.225.272h-.024" transform="translate(-270.719 -110.757)"/>
        <path id="Trazado_878718" data-name="Trazado 878718" d="M308.776,67.8a1.637,1.637,0,0,1-1.249-.6,3.871,3.871,0,0,1-.751-2.031,7.248,7.248,0,0,1,1.213-3.8.25.25,0,1,1,.428.257,6.784,6.784,0,0,0-1.143,3.531,3.372,3.372,0,0,0,.647,1.74,1.1,1.1,0,0,0,1.15.363.25.25,0,1,1,.146.477,1.5,1.5,0,0,1-.441.066" transform="translate(-153.637 -30.67)"/>
        <path id="Trazado_878719" data-name="Trazado 878719" d="M317.768,60.965a.25.25,0,0,1-.248-.223,25.221,25.221,0,0,1-.079-2.879c0-.267.005-.529.005-.78a.25.25,0,1,1,.5,0c0,.253,0,.516,0,.785a24.8,24.8,0,0,0,.077,2.82.25.25,0,0,1-.221.275h-.027" transform="translate(-158.978 -28.464)"/>
        <path id="Trazado_878720" data-name="Trazado 878720" d="M499.858,244.9a10.717,10.717,0,0,1-2.745-.411.249.249,0,0,1-.167-.165L490.93,224.9a.249.249,0,1,1,.477-.147l5.977,19.3a8.209,8.209,0,0,0,3.681.212c-1.225-4.247-4.091-15.3-4.121-15.411a.25.25,0,1,1,.484-.126c.029.115,3,11.579,4.185,15.63a.25.25,0,0,1-.154.3,4.69,4.69,0,0,1-1.6.244" transform="translate(-245.862 -112.471)"/>
        <path id="Trazado_878721" data-name="Trazado 878721" d="M138.416,140.5a15.29,15.29,0,0,1-3.828,1.406c-.329.051-1.531-9.168-1.531-9.168,5.579-2.045,8.316-3.974,9.794-8.224s-2.6-4.989-2.83-9.274c-.184-3.426.52-14.475-12.231-12.811s-23.01,19.683-17.836,25.136,9.888,6.19,9.8,7.578-4.99,8.963-5.267,9.332,3.511,7.854,7.392,9.426,25.412.832,16.54-13.4" transform="translate(-54.382 -51.214)" fill="#ffd4d4"/>
        <path id="Trazado_878722" data-name="Trazado 878722" d="M53.595,327.207c-.555-8.039-.555-34.237,14.831-45.6,1.247-.97,2.264-3.881,2.264-3.881,6.884,1.8,24.534,6.515,32.342,6.1a42.428,42.428,0,0,1-3.511,6.653l2.448,36.592-20.1.416-4.019-6.376.554,6.1Z" transform="translate(-26.76 -139.09)" fill="#f2ac30"/>
        <path id="Trazado_878723" data-name="Trazado 878723" d="M53.573,326.957a78.6,78.6,0,0,1,2.073-24.292A44.675,44.675,0,0,1,61.8,288.373a29.141,29.141,0,0,1,5.3-5.878,10.051,10.051,0,0,0,2.305-2.281,13.74,13.74,0,0,0,1.22-2.591c.01-.027.02-.054.029-.082l-.307.175c5.255,1.375,10.516,2.728,15.825,3.881,5.361,1.164,11.06,2.485,16.584,2.227l-.241-.316a34.776,34.776,0,0,1-3.408,6.47c-.2.315-.08.737-.056,1.094q.262,3.922.525,7.843.767,11.479,1.535,22.957l.331,4.947.25-.25-15.4.318-3.5.073-.949.019c-.427.008,0,.187-.123-.007l-3.933-6.24c-.123-.195-.489-.135-.465.126q.276,3.05.554,6.1l.25-.25H53.324a.25.25,0,0,0,0,.5H78.134a.25.25,0,0,0,.25-.25q-.277-3.049-.554-6.1l-.465.126,3.933,6.24c.227.36.557.255.947.247l3.426-.071,16.027-.332a.251.251,0,0,0,.25-.25q-1.193-17.832-2.386-35.663-.025-.376-.05-.751c-.02-.293-.071-.009.163-.382A34.645,34.645,0,0,0,103,283.64a.25.25,0,0,0-.241-.316c-5.488.257-11.121-1.061-16.451-2.209-5.311-1.144-10.57-2.5-15.824-3.881a.255.255,0,0,0-.307.174,15.468,15.468,0,0,1-1.048,2.3,11.121,11.121,0,0,1-2.851,2.84,29.665,29.665,0,0,0-4.907,5.576,44.155,44.155,0,0,0-6.055,13.821A77.96,77.96,0,0,0,53.039,326.4q.016.276.035.553c.022.319.521.321.5,0" transform="translate(-26.489 -138.84)" fill="#f2ac30"/>
        <path id="Trazado_878724" data-name="Trazado 878724" d="M98.378,290.856a.246.246,0,0,1-.042,0c-5.677-.977-10.917-3.181-13.35-5.614a.25.25,0,0,1,.353-.353c2.365,2.365,7.5,4.514,13.081,5.475a.25.25,0,0,1-.042.5" transform="translate(-42.526 -142.64)"/>
        <path id="Trazado_878725" data-name="Trazado 878725" d="M63.061,332.629a.249.249,0,0,1-.249-.239c-.236-5.3-.7-32.309,13.4-44a.25.25,0,1,1,.319.384c-13.915,11.545-13.451,38.343-13.217,43.6a.249.249,0,0,1-.238.261h-.011" transform="translate(-31.421 -144.401)"/>
        <path id="Trazado_878726" data-name="Trazado 878726" d="M159.07,169.659c4.118-1,5.885-2.374,8.612-2.651.924-2.958-2.171-8.039-4.342-8.964a17.608,17.608,0,0,1-5.914,2.634c.646,4.363,1.645,8.981,1.645,8.981" transform="translate(-78.842 -79.152)" fill="#32015c"/>
        <path id="Trazado_878727" data-name="Trazado 878727" d="M158.891,169.636c2.871-.72,5.6-2.295,8.545-2.642a.257.257,0,0,0,.241-.183c.718-2.658-.86-5.607-2.489-7.608-.25-.307-1.684-1.986-2.22-1.637a16.937,16.937,0,0,1-5.854,2.609.254.254,0,0,0-.174.307q.679,4.514,1.645,8.981c.068.315.549.182.481-.132q-.961-4.462-1.645-8.981l-.174.306a12.315,12.315,0,0,0,2.506-.8c.51-.219,1.009-.454,1.5-.7.258-.131,1.685-1.17,1.894-1.071,1.806.854,3.035,3.222,3.706,4.989a7.012,7.012,0,0,1,.48,2.893c-.051.888-1.5.808-2.224,1.037-2.142.676-4.166,1.6-6.355,2.153a.25.25,0,0,0,.133.482" transform="translate(-78.596 -78.888)" fill="#32015c"/>
        <path id="Trazado_878728" data-name="Trazado 878728" d="M143.921,161.974a16.471,16.471,0,0,1-7.645-1.878.25.25,0,0,1,.235-.44,15.824,15.824,0,0,0,10.152,1.563.25.25,0,0,1,.1.49,14.932,14.932,0,0,1-2.837.266" transform="translate(-68.184 -79.944)"/>
        <path id="Trazado_878729" data-name="Trazado 878729" d="M87.143,110.686c1.226,3.861,3.725,4.886,3.084-.882,10.881-6.514,11.261-15.474,9.737-18.592,6.722.9,11.229,3.951,10.188,11.574,7.138-1.87,6.654-13.93.484-16.147-.138-8.733-9.66-10.94-19.058-5.614-4.213,2.387-5.71,5.3-11.451,7.545C73.4,91.2,71.06,99.8,71.06,107.039c0,11.013-.064,16.4-8.727,23.122s-16.794,15.257-11.782,25.851a10.483,10.483,0,0,0,9.7,6.03c-1.871,8.662,3.465,13.791,8.594,13.445,0,0,1.455-18.019,3.327-25.92s5.543-11.159,11.713-14.277,7.749-4.218,7.138-10.188a66.712,66.712,0,0,0-1.316-8.109c-5.475,2.287-8.194-.886-8.8-3.188-.97-3.673,4.089-6.515,6.237-3.119" transform="translate(-24.548 -39.141)" fill="#32015c"/>
        <path id="Trazado_878730" data-name="Trazado 878730" d="M86.66,110.5c.287.863,1.915,4.764,3.273,2.871a2.881,2.881,0,0,0,.364-1.3,8.423,8.423,0,0,0,.033-1.279c-.021-.972.064-1.187.895-1.724a25.217,25.217,0,0,0,4.986-4.237c3.105-3.432,5.9-9.383,3.728-14l-.282.366c2.756.386,5.6,1.115,7.714,3.028,2.336,2.115,2.663,5.35,2.291,8.305a.25.25,0,0,0,.315.241c3.893-1.1,5.566-5.023,5.4-8.807a10.275,10.275,0,0,0-1.761-5.356,7.254,7.254,0,0,0-1.686-1.7,5.929,5.929,0,0,0-1.192-.655c-.23-.1-.2-1.23-.241-1.531-.7-4.729-4.986-7.045-9.43-7.069-5.792-.031-10.633,3.154-14.934,6.668a25.672,25.672,0,0,1-3.65,2.514c-1.439.81-3.031,1.284-4.45,2.127A13.49,13.49,0,0,0,73.167,94.5c-2.633,5.091-2.537,10.733-2.621,16.3-.074,4.933-.55,9.806-3.525,13.916a32.442,32.442,0,0,1-6.355,6.006,51.5,51.5,0,0,0-7.1,6.736A21.334,21.334,0,0,0,48.915,146a14.944,14.944,0,0,0,1.179,9.886,10.66,10.66,0,0,0,9.918,6.153l-.241-.316c-.722,3.541-.483,7.291,1.7,10.293a8.378,8.378,0,0,0,7.137,3.468.255.255,0,0,0,.25-.25,219.857,219.857,0,0,1,2.913-23.962c1.041-5.379,3.11-10.17,7.651-13.456a69.991,69.991,0,0,1,7.155-4.037,8.846,8.846,0,0,0,4.02-3.685c1-2.151.506-4.855.224-7.1a57.93,57.93,0,0,0-1.111-6.322.248.248,0,0,0-.306-.174c-3.132,1.245-6.875,1.028-8.317-2.47-1.416-3.435,3.319-6.791,5.6-3.471.181.263.614.014.431-.252-2.172-3.159-7.333-1.05-6.8,2.739a5.675,5.675,0,0,0,2.473,3.844c2.01,1.381,4.625.932,6.74.091l-.307-.174a60.738,60.738,0,0,1,1.149,6.638c.292,2.313.708,5.02-.6,7.11-1.244,1.991-3.909,3.071-5.907,4.089a30.9,30.9,0,0,0-6.352,4.045c-3.833,3.323-5.414,8.131-6.33,12.967-.933,4.928-1.487,9.935-2.013,14.919-.3,2.883-.585,5.77-.819,8.659l.25-.25a7.955,7.955,0,0,1-6.574-3.05c-2.3-2.786-2.469-6.694-1.779-10.079a.253.253,0,0,0-.241-.316,10.214,10.214,0,0,1-9.147-5.241c-3.556-6.207-1.4-13.009,2.813-18.2a48.012,48.012,0,0,1,7.032-6.777,40.176,40.176,0,0,0,6.355-5.849c2.853-3.576,3.7-7.914,3.913-12.379.269-5.534-.181-10.941,1.722-16.264a15.3,15.3,0,0,1,4.353-6.555,14.047,14.047,0,0,1,3.81-2.092,21.613,21.613,0,0,0,4.013-2.27c2.048-1.444,3.831-3.214,5.959-4.552a21,21,0,0,1,8.935-3.143,10.854,10.854,0,0,1,7.162,1.551,7.992,7.992,0,0,1,3.213,6.62.258.258,0,0,0,.183.241c6.312,2.413,6.126,13.8-.484,15.666l.316.241c.375-2.985.012-6.008-2.082-8.3-2.074-2.274-5.363-3.1-8.29-3.51a.253.253,0,0,0-.282.367c1.115,2.366.626,5.343-.2,7.709-1.6,4.6-5.391,8.074-9.45,10.542a.245.245,0,0,0-.123.216c.061.614.506,3.728-.593,3.8-1.022.068-1.785-2.336-2-2.987-.1-.3-.583-.174-.481.133" transform="translate(-24.305 -38.891)" fill="#32015c"/>
        <path id="Trazado_878731" data-name="Trazado 878731" d="M148.312,135.2c-1.267.168-1.422,2.737-.174,2.668s1.212-2.807.174-2.668" transform="translate(-73.76 -67.709)"/>
        <path id="Trazado_878732" data-name="Trazado 878732" d="M148.82,134.856a.25.25,0,0,1-.142-.455l.053-.037a3.175,3.175,0,0,0,.91-.779.25.25,0,0,1,.436.243,3.355,3.355,0,0,1-1.062.947l-.054.037a.25.25,0,0,1-.141.044" transform="translate(-74.407 -66.837)"/>
        <path id="Trazado_878733" data-name="Trazado 878733" d="M166.559,129.3c-1.259.215-1.32,2.787-.075,2.673s1.11-2.849.075-2.673" transform="translate(-82.927 -64.754)"/>
        <path id="Trazado_878734" data-name="Trazado 878734" d="M167.032,128.935a.25.25,0,0,1-.15-.449l.064-.048a3.142,3.142,0,0,0,.869-.8.25.25,0,1,1,.445.226,3.3,3.3,0,0,1-1.016.977l-.063.047a.246.246,0,0,1-.149.05" transform="translate(-83.528 -63.853)"/>
        <path id="Trazado_878735" data-name="Trazado 878735" d="M161.8,136.714a.25.25,0,0,1-.18-.423c.151-.158.3-.3.432-.443,1.431-1.457,1.816-1.848.4-3.993l-.072-.11c-1.654-2.515-1.886-3.011-.388-5.794a.249.249,0,1,1,.439.237c-1.4,2.6-1.23,2.854.367,5.284l.072.11c1.632,2.481,1.017,3.106-.466,4.617-.135.138-.279.284-.429.44a.247.247,0,0,1-.179.076" transform="translate(-80.632 -63.013)"/>
        <path id="Trazado_878736" data-name="Trazado 878736" d="M141.7,128.567c-.885,1.6-.728,2.425.416,1.421a17.494,17.494,0,0,1,3.708-2.461c.935-.415.032-1.587-1.456-1.316a4.717,4.717,0,0,0-2.668,2.357" transform="translate(-70.681 -63.189)"/>
        <path id="Trazado_878737" data-name="Trazado 878737" d="M141.1,130.426h0a.441.441,0,0,1-.39-.218c-.253-.429.142-1.331.519-2.012a4.888,4.888,0,0,1,2.842-2.482,2.718,2.718,0,0,1,.479-.044,1.571,1.571,0,0,1,1.635.974.758.758,0,0,1-.513.86,17.235,17.235,0,0,0-3.645,2.42,1.6,1.6,0,0,1-.927.5m0-.5,0,.25v-.25h0m3.452-3.757a2.188,2.188,0,0,0-.39.036,4.526,4.526,0,0,0-2.494,2.232,3.144,3.144,0,0,0-.535,1.485,1.528,1.528,0,0,0,.568-.372,17.84,17.84,0,0,1,3.771-2.5c.177-.078.253-.179.228-.3-.051-.242-.479-.578-1.147-.578" transform="translate(-70.43 -62.939)"/>
        <path id="Trazado_878738" data-name="Trazado 878738" d="M163.014,123.589c.9-1.628,2.39-3.257,3.153-3.049s1.109,1.248.658,1.56-.8-.555-2.287.45c-1.306.881-1.595,1.316-1.524,1.039" transform="translate(-81.636 -60.36)"/>
        <path id="Trazado_878739" data-name="Trazado 878739" d="M162.772,123.674h-.122l-.087-.1a.328.328,0,0,1-.04-.293l.023-.059c.921-1.666,2.506-3.425,3.437-3.169a1.488,1.488,0,0,1,1.025,1.158.735.735,0,0,1-1,.907,1.553,1.553,0,0,0-.413-.066,2.2,2.2,0,0,0-1.172.46c-.615.414-1,.728-1.229.915s-.307.25-.428.25m3.006-3.15c-.488,0-1.395.842-2.18,1.96.16-.117.343-.247.553-.388a2.655,2.655,0,0,1,1.451-.546,2.007,2.007,0,0,1,.54.083c.129.034.2.08.294.014a.351.351,0,0,0,.083-.353.986.986,0,0,0-.664-.761.291.291,0,0,0-.075-.009" transform="translate(-81.386 -60.112)"/>
        <path id="Trazado_878740" data-name="Trazado 878740" d="M153.945,150.935a3.154,3.154,0,0,1-2.062-.833,7.175,7.175,0,0,1-1.545-1.9.25.25,0,1,1,.432-.25,6.668,6.668,0,0,0,1.433,1.769,2.546,2.546,0,0,0,2.186.675,2.3,2.3,0,0,0,.99-.462.249.249,0,0,1,.331.373,2.775,2.775,0,0,1-1.214.576,2.945,2.945,0,0,1-.552.053" transform="translate(-75.276 -74.034)"/>
        <path id="Trazado_878741" data-name="Trazado 878741" d="M155.962,149.018c-.127,0-.255-.009-.382-.018-.4-.028-.8-.04-1.188-.093-.176-.024-.352-.049-.529-.062-.487-.08-.878-.147-1.319-.249-.132-.035-.255-.065-.377-.095a7.257,7.257,0,0,1-.8-.226,3.467,3.467,0,0,1-.452-.179c-.1-.045-.2-.092-.313-.134a.249.249,0,0,1,.177-.466c.119.045.232.1.341.145a3.078,3.078,0,0,0,.4.16,6.81,6.81,0,0,0,.759.215c.127.031.254.061.381.1.418.1.8.161,1.258.237.164.011.351.037.537.063.4.056.778.063,1.155.09a3.8,3.8,0,0,0,.919-.047l.092.491a4.069,4.069,0,0,1-.664.073" transform="translate(-75.346 -73.861)"/>
        <path id="Trazado_878742" data-name="Trazado 878742" d="M158.85,132.23a2.511,2.511,0,0,1,1.149-.946,1.446,1.446,0,0,1,1.337.3.25.25,0,0,0,.252-.431,1.965,1.965,0,0,0-1.722-.352,2.853,2.853,0,0,0-1.447,1.175c-.183.266.25.515.431.252" transform="translate(-79.318 -65.469)" fill="#495edb"/>
        <path id="Trazado_878743" data-name="Trazado 878743" d="M147.207,122.228c-6.174-3.842-10.318,7.017-5.41,10.615,2.577,1.888,5.683.326,6.949-2.288s.963-6.519-1.539-8.327c-.262-.189-.51.244-.252.431,2.2,1.59,2.37,4.839,1.546,7.192-.949,2.716-4.163,4.488-6.62,2.416-4.062-3.424-.467-13.057,5.074-9.608.274.171.525-.261.252-.431" transform="translate(-69.931 -60.808)" fill="#495edb"/>
        <path id="Trazado_878744" data-name="Trazado 878744" d="M131.469,141.4l4.817-1.421a.25.25,0,0,0-.133-.481l-4.817,1.421a.25.25,0,0,0,.133.481" transform="translate(-65.688 -69.86)" fill="#495edb"/>
        <path id="Trazado_878745" data-name="Trazado 878745" d="M171.055,123.436c.343-2.1.311-5.621-1.86-6.8a2.629,2.629,0,0,0-2.843.61c-1.236,1.036-1.739,2.881-2.018,4.391-.377,2.046-.595,6.37,2.357,6.715,2.72.318,3.94-2.726,4.364-4.913.061-.314-.42-.448-.481-.133-.351,1.814-1.169,4.351-3.323,4.571-2.762.282-2.7-3.6-2.536-5.375.166-1.846,1.591-6.871,4.421-5.331,1.8.98,1.715,4.441,1.438,6.135-.051.315.429.45.481.133" transform="translate(-82.194 -58.303)" fill="#495edb"/>
        <path id="Trazado_878746" data-name="Trazado 878746" d="M148.817,355.513c.567-.908-.405-2.316-.9-2.841-1.465-1.553-2.98-2.911-5.844-3.049-1.049-.05-3.4.419-4.435.185-1.676-.378-2.357-12.1-2.357-12.1-6.653.9-13.768,1.941-13.768,1.941s3.748,15.059,4.759,16.079a4.211,4.211,0,0,0,4.2,1.385,45.279,45.279,0,0,1,5.637-1.016,10.9,10.9,0,0,1,4.713.555c.67.226.759.793,2.034.324.514-.19,1.78.531,2.31.368a5.3,5.3,0,0,0,1.017-.693c.138-.208,1.663.413,2.632-1.132" transform="translate(-60.855 -169.128)" fill="#ffd4d4"/>
        <path id="Trazado_878747" data-name="Trazado 878747" d="M88.559,223.16,88,226.486a21.533,21.533,0,0,0,9.979,3.419c1.294,6.283,6.746,28.462,6.746,28.462,4.713,1.109,11.782-.093,14-1.571-.092-6.931-2.725-23.1-3.465-24.488a11.987,11.987,0,0,0,5.083.279c2.033-6.193,4.528-12.938,5.452-15.525s1.848-3.7,4.066-4.62,9.611-4.158,8.131-16.079c4.713.647,11.644,1.756,11.644,1.756l-.185-19.774s-11.921-5.915-22.086-.924c3.142,2.957,2.126,8.133-3.6,10.9s-13.492.369-18.019-5.175A19.727,19.727,0,0,0,91.609,198.58c-1.848,9.517-3.049,24.58-3.049,24.58" transform="translate(-44.075 -87.853)" fill="#495edb"/>
        <path id="Trazado_878748" data-name="Trazado 878748" d="M88.072,222.822l-.554,3.327a.265.265,0,0,0,.114.282,14.055,14.055,0,0,0,2.683,1.485A23.7,23.7,0,0,0,93.3,229c.415.124,4.215.766,4.229.836.714,3.451,1.548,6.88,2.361,10.308q2.138,9.017,4.357,18.015a.248.248,0,0,0,.175.174,23.984,23.984,0,0,0,12.484-.805,7.977,7.977,0,0,0,1.707-.792c.324-.205.094-1.249.079-1.572-.08-1.762-.252-3.521-.44-5.275-.411-3.824-.96-7.635-1.6-11.427-.249-1.477-.515-2.952-.827-4.418a9.147,9.147,0,0,0-.59-2.137l-.282.366a12.243,12.243,0,0,0,5.215.279c.221-.052.275-.48.314-.6q.422-1.28.858-2.555.779-2.294,1.591-4.576c.845-2.393,1.712-4.778,2.574-7.165.872-2.414,1.79-4.251,4.262-5.284a13.793,13.793,0,0,0,5.55-4.032c2.759-3.433,3.175-8.027,2.684-12.254l-.316.241c3.888.537,7.769,1.136,11.644,1.755a.254.254,0,0,0,.316-.241q-.092-9.887-.185-19.774a.247.247,0,0,0-.124-.216c-6.735-3.319-15.468-4.2-22.338-.924a.252.252,0,0,0-.05.392,5.35,5.35,0,0,1,1.032,6.367c-1.228,2.548-4.043,4.2-6.679,4.9-5.755,1.541-11.973-1.52-15.622-5.892a.245.245,0,0,0-.243-.064,21.042,21.042,0,0,0-9.3,5.631c-3.353,3.5-4.695,7.9-5.484,12.57-1.232,7.29-2,14.683-2.591,22.052-.025.321.474.318.5,0,.268-3.351.606-6.7.975-10.039.337-3.044.716-6.084,1.163-9.114a45.179,45.179,0,0,1,1.828-8.7,19.5,19.5,0,0,1,11.021-11.226c.447-.184.9-.345,1.361-.5.7-.233.929.346,1.395.837a17.944,17.944,0,0,0,3.444,2.766,16.688,16.688,0,0,0,7.67,2.51,11.946,11.946,0,0,0,10.2-4.248c1.933-2.565,2.052-5.883-.315-8.212q-.025.2-.05.392c5.614-2.676,12.012-2.327,17.846-.581a27.906,27.906,0,0,1,3.9,1.463c.028.014-.037-.313-.033.149q.007.728.013,1.456.085,9,.168,18l.316-.241c-3.876-.619-7.756-1.218-11.644-1.755-.142-.019-.336.062-.316.241.5,4.289.045,8.813-2.813,12.237a15.588,15.588,0,0,1-5.794,3.9,6.726,6.726,0,0,0-3.316,3.8c-.818,1.955-1.461,4-2.177,6q-1.526,4.251-2.975,8.528c-.056.167-.435,1.535-.445,1.537a5.776,5.776,0,0,1-.736.094,14.225,14.225,0,0,1-4.158-.384.252.252,0,0,0-.282.366,14.762,14.762,0,0,1,.87,3.657c.44,2.294.807,4.6,1.15,6.913.4,2.681.745,5.371,1.022,8.067q.173,1.681.288,3.367c.033.492.057.983.077,1.475.027.671.041.767-.572,1.063a21.2,21.2,0,0,1-8.546,1.573c-.737.016-1.474-.016-2.209-.068-.237-.017-2.172-.235-2.159-.182l-.158-.641q-1.209-4.932-2.4-9.868c-1.441-5.969-2.942-11.935-4.187-17.949a.255.255,0,0,0-.241-.184,23.309,23.309,0,0,1-9.173-2.936q-.3-.181-.589-.383c-.192-.134.061-.007.027.194.025-.151.05-.3.076-.454l.475-2.851c.052-.315-.429-.45-.481-.133" transform="translate(-43.828 -87.581)" fill="#495edb"/>
        <path id="Trazado_878749" data-name="Trazado 878749" d="M103.668,266.77a.25.25,0,0,1-.245-.2c-1.533-7.577-3.2-14.864-4.059-17.721a.25.25,0,0,1,.478-.143c.86,2.87,2.534,10.175,4.07,17.764a.25.25,0,0,1-.2.295.246.246,0,0,1-.05,0" transform="translate(-49.759 -124.468)"/>
        <path id="Trazado_878750" data-name="Trazado 878750" d="M139.118,265.555a.249.249,0,0,1-.245-.2,12.253,12.253,0,0,0-.9-2.411,34.818,34.818,0,0,1-1.683-4.4c-.635-2.139-.771-7.011-.891-11.31-.073-2.635-.143-5.124-.318-6.566a.249.249,0,0,1,.217-.278.246.246,0,0,1,.278.218c.179,1.466.249,3.965.322,6.612.119,4.267.254,9.106.871,11.182a34.277,34.277,0,0,0,1.66,4.342,12.51,12.51,0,0,1,.934,2.52.25.25,0,0,1-.2.291.243.243,0,0,1-.046,0" transform="translate(-67.651 -120.389)"/>
        <path id="Trazado_878751" data-name="Trazado 878751" d="M187.531,213.572a.25.25,0,0,1-.248-.224c0-.027-.28-2.7-.553-4.517a.25.25,0,0,1,.494-.074c.275,1.832.553,4.513.556,4.54a.249.249,0,0,1-.223.274h-.026" transform="translate(-93.517 -104.444)"/>
        <path id="Trazado_878752" data-name="Trazado 878752" d="M101.684,359.115a.25.25,0,0,1-.249-.237l-.323-6.329a.25.25,0,1,1,.5-.025l.323,6.33a.249.249,0,0,1-.237.262h-.013" transform="translate(-50.639 -176.432)"/>
        <path id="Trazado_878753" data-name="Trazado 878753" d="M101.636,356.394a.25.25,0,0,1-.053-.493l4.206-.925a.25.25,0,0,1,.107.488l-4.206.924a.246.246,0,0,1-.054.006" transform="translate(-50.776 -177.776)"/>
        <path id="Trazado_878754" data-name="Trazado 878754" d="M156.931,372.126a.25.25,0,0,1-.073-.488c.06-.018.074-.044.083-.069a1.759,1.759,0,0,0-.355-1.033,5.942,5.942,0,0,0-3.712-2.2,6.6,6.6,0,0,0-1.884-.043,7.082,7.082,0,0,0-.886.168c-.156.037-.312.073-.469.1a.249.249,0,1,1-.1-.489c.151-.03.3-.065.453-.1a7.584,7.584,0,0,1,.957-.18,7.1,7.1,0,0,1,2.018.05,6.458,6.458,0,0,1,4.03,2.407c.069.1.61.943.416,1.487a.6.6,0,0,1-.406.378.252.252,0,0,1-.073.011" transform="translate(-74.79 -184.175)"/>
        <path id="Trazado_878755" data-name="Trazado 878755" d="M161.881,370.428a.249.249,0,0,1-.112-.473c.37-.185.527-.364.557-.637a1.767,1.767,0,0,0-.032-1.039,4.818,4.818,0,0,0-1.507-1.983,6.905,6.905,0,0,0-2.231-1.245,4.228,4.228,0,0,0-2.318-.217c-.359.025-.707.082-1.042.138s-.7.117-1.061.141a.246.246,0,0,1-.266-.233.25.25,0,0,1,.233-.266c.333-.022.678-.079,1.012-.135s.707-.118,1.067-.141a4.661,4.661,0,0,1,2.556.247,7.345,7.345,0,0,1,2.389,1.344,5.187,5.187,0,0,1,1.642,2.2,2.2,2.2,0,0,1,.048,1.281,1.291,1.291,0,0,1-.824.995.248.248,0,0,1-.111.026" transform="translate(-77.061 -182.431)"/>
        <path id="Trazado_878756" data-name="Trazado 878756" d="M242.05,115.909l-1.247-4.99s3.233-8.408,4.989-8.686,3.79-1.387,3.143-4.529-2.219-2.4-2.219-2.4c-1.57-2.679-2.957-2.494-3.881-2.033-2.495-3.326-7.855-3.788-10.812,1.663s-1.94,15.893.093,28.091c3.142-2.125,9.934-7.115,9.934-7.115" transform="translate(-115.277 -45.472)" fill="#ffd4d4"/>
        <path id="Trazado_878757" data-name="Trazado 878757" d="M135.731,198.458a20.226,20.226,0,0,1-13.636-5.261.249.249,0,1,1,.333-.371,19.759,19.759,0,0,0,14.566,5.092c3.548-.236,6.761-1.465,8.187-3.131a12.251,12.251,0,0,0,2.539-7.026.26.26,0,0,1,.258-.241.249.249,0,0,1,.241.258,12.523,12.523,0,0,1-2.657,7.33c-1.51,1.766-4.859,3.063-8.534,3.308-.389.026-.824.042-1.3.042" transform="translate(-61.106 -93.914)"/>
        <path id="Trazado_878758" data-name="Trazado 878758" d="M237.98,115.581c-1.8-.662-2.07-2.209-.6-3.437l7.963-6.636c1.474-1.229,2.946-.687,3.272,1.2l1.767,10.212c.327,1.891-.879,2.9-2.68,2.234Z" transform="translate(-118.411 -52.511)" fill="#7db3db"/>
        <path id="Trazado_878759" data-name="Trazado 878759" d="M255.869,104.6c.093,1.654,1.057,2.021,1.746,1.608-.275,1.837,1.379,2.2,1.838,1.791s-.139-5.787-3.354-5.374a3.319,3.319,0,0,0-.23,1.975" transform="translate(-128.116 -51.383)" fill="#ffd4d4"/>
        <path id="Trazado_878760" data-name="Trazado 878760" d="M239.754,90.95c-4.2-1.171-8.131,2.136-9.372,8.407a38.771,38.771,0,0,0-.037,10.488,16.016,16.016,0,0,1,2.055.333l.256-4.9c1.172.345,6.34,1.034,7.1-1.791s-2.619-3.721-5.651-2.619c.344-1.516,1.1-4.066,3.032-4.755s3.1,4.273,5.306,3.033,1.516-7.028-2.687-8.2" transform="translate(-115.193 -45.433)" fill="#ffd4d4"/>
        <path id="Trazado_878761" data-name="Trazado 878761" d="M237.849,107.956a11.46,11.46,0,0,1-2.858-.343.249.249,0,0,1,.141-.479c.874.257,3.972.688,5.7-.279a2.154,2.154,0,0,0,1.091-1.337,1.878,1.878,0,0,0-.466-2.012c-.954-.875-2.952-1-4.859-.308a.246.246,0,0,1-.25-.047.249.249,0,0,1-.078-.242c.631-2.779,1.676-4.393,3.191-4.935,1.073-.383,1.886.631,2.675,1.611.969,1.2,1.673,1.956,2.593,1.439a2.234,2.234,0,0,0,.988-1.51,5.643,5.643,0,0,0-.877-4.233.25.25,0,1,1,.414-.279,6.162,6.162,0,0,1,.949,4.627,2.715,2.715,0,0,1-1.229,1.83c-1.355.764-2.351-.471-3.227-1.561-.71-.883-1.381-1.715-2.118-1.454-1.265.452-2.173,1.809-2.768,4.142,1.942-.583,3.924-.373,4.934.553a2.349,2.349,0,0,1,.611,2.509,2.634,2.634,0,0,1-1.329,1.643,6.8,6.8,0,0,1-3.223.665" transform="translate(-117.598 -47.524)"/>
        <path id="Trazado_878762" data-name="Trazado 878762" d="M256.66,104.7a1.268,1.268,0,0,1-.219-.018c-.367-.064-.992-.359-1.06-1.611a.25.25,0,1,1,.5-.027c.025.476.159,1.061.648,1.147.717.123,1.979-.816,2.593-2.264a3.486,3.486,0,0,0-.229-2.773.249.249,0,1,1,.45-.215,3.929,3.929,0,0,1,.238,3.183c-.62,1.462-1.909,2.579-2.92,2.579" transform="translate(-127.9 -49.48)"/>
        <path id="Trazado_878763" data-name="Trazado 878763" d="M260.46,111.663a1.409,1.409,0,0,1-.926-.324,1.975,1.975,0,0,1-.477-1.954.25.25,0,1,1,.49.093,1.515,1.515,0,0,0,.31,1.48,1.113,1.113,0,0,0,1.123.107.25.25,0,0,1,.171.469,2.009,2.009,0,0,1-.69.13" transform="translate(-129.711 -54.681)"/>
        <path id="Trazado_878764" data-name="Trazado 878764" d="M303.1,135.528,265.984,114.1a14.912,14.912,0,0,0-13.443,0l-37.113,21.427a14.912,14.912,0,0,0-6.722,11.643v42.855a14.914,14.914,0,0,0,6.722,11.643L252.54,223.1a14.909,14.909,0,0,0,13.443,0L303.1,201.67a14.915,14.915,0,0,0,6.721-11.643V147.171a14.913,14.913,0,0,0-6.721-11.643" transform="translate(-104.524 -56.342)" fill="#def2ff"/>
        <path id="Trazado_878765" data-name="Trazado 878765" d="M311.173,182.864a25.32,25.32,0,1,0-36.167,22.882c2.767,1.681,2.774,3.863,2.654,7.76-.1,3.281-.323,5.924,1.189,7.312,1.207,1.322,3.886,2.243,7,2.243s5.8-.92,7.005-2.243c1.512-1.388,1.29-4.031,1.188-7.312-.12-3.9-.113-6.08,2.653-7.76a25.322,25.322,0,0,0,14.473-22.882" transform="translate(-130.481 -78.902)" fill="#f2ac30"/>
        <path id="Trazado_878766" data-name="Trazado 878766" d="M311.229,182.612A25.565,25.565,0,1,0,271.9,204.166a34.059,34.059,0,0,1,3.726,2.231,5.167,5.167,0,0,1,1.582,3.687c.248,2.934-.5,5.973.225,8.861.586,2.331,3.111,3.349,5.221,3.816,3.563.788,9.9.411,11.223-3.816,1.309-4.185-1.991-10.944,3.069-13.391a25.792,25.792,0,0,0,14.277-22.943.25.25,0,0,0-.5,0,25.1,25.1,0,0,1-14.03,22.512,5.638,5.638,0,0,0-3.092,4.961c-.256,3.019.836,6.645-.494,9.477-1.415,3.015-6.426,3.175-9.181,2.9a9.13,9.13,0,0,1-4.717-1.707c-1.32-1.043-1.521-2.629-1.569-4.206-.085-2.77.56-5.755-.3-8.451-.761-2.392-3.266-3.151-5.191-4.365a25.074,25.074,0,0,1-11.415-23.9c1.222-11.933,11.322-21.34,23.17-22.229a25.073,25.073,0,0,1,26.818,25.01.25.25,0,0,0,.5,0" transform="translate(-130.288 -78.649)" fill="#f2ac30"/>
        <path id="Trazado_878767" data-name="Trazado 878767" d="M311.195,262.563a38.269,38.269,0,0,1-16.465,0,27.345,27.345,0,0,1,.039,3.539c-.1,3.281-.322,5.924,1.189,7.312,1.207,1.322,3.886,2.243,7,2.243s5.8-.921,7.006-2.243c1.512-1.388,1.29-4.031,1.189-7.312a27.451,27.451,0,0,1,.039-3.539" transform="translate(-147.59 -131.497)" fill="#32015c"/>
        <path id="Trazado_878768" data-name="Trazado 878768" d="M310.768,262.073a38.6,38.6,0,0,1-16.333,0,.252.252,0,0,0-.316.241c.29,3.229-.826,7.066.6,10.1,1.259,2.685,5.328,3.209,7.883,3.245,2.728.038,6.409-.651,7.885-3.245a8.244,8.244,0,0,0,.63-4.03c-.007-2.023-.214-4.048-.033-6.069.029-.32-.471-.318-.5,0-.269,3,.5,6.156-.242,9.1-.781,3.109-5.115,3.709-7.741,3.746-2.763.039-6.789-.707-7.74-3.746a13.217,13.217,0,0,1-.247-4.254,40.637,40.637,0,0,0,0-4.845l-.316.241a39.247,39.247,0,0,0,16.6,0c.314-.068.181-.55-.133-.482" transform="translate(-147.229 -131.249)" fill="#32015c"/>
        <path id="Trazado_878769" data-name="Trazado 878769" d="M291.988,229.909h-.017a.5.5,0,0,1-.482-.516,45.019,45.019,0,0,0-2.262-15.461,10.822,10.822,0,0,1-1.612.072c-4.867-.142-7.651-2.7-8.558-4.851a3.19,3.19,0,0,1,.281-3.459c.478-.52,1.645-1.274,4.086-.48,2.961.964,5.041,3.937,6.456,7.6a9.262,9.262,0,0,0,4.524-2.45,15.455,15.455,0,0,1-4.488-10.027c-.15-4.149,2.113-5.979,4.281-6.309a4.736,4.736,0,0,1,5.352,3.332c.8,2.971-.328,8.682-3.3,12.448q-.207.262-.421.508A10.166,10.166,0,0,0,297.4,211.4a8.657,8.657,0,0,0,1.824.759c1.82-5.48,4.47-7.854,5.967-8.805a4.124,4.124,0,0,1,4.206-.3,3.32,3.32,0,0,1,1.763,2.911c.018,1.219-.583,3.627-4.791,6.054a9.5,9.5,0,0,1-6.44,1.32,48.65,48.65,0,0,0-1.632,15.235.5.5,0,0,1-.486.513.509.509,0,0,1-.513-.486,50.235,50.235,0,0,1,1.628-15.492,9.7,9.7,0,0,1-2.009-.84,11.045,11.045,0,0,1-1.775-1.231,10.211,10.211,0,0,1-4.918,2.722,47.749,47.749,0,0,1,2.259,15.667.5.5,0,0,1-.5.482m-10.51-24.044a1.832,1.832,0,0,0-1.4.506,2.249,2.249,0,0,0-.1,2.4c.792,1.876,3.275,4.112,7.668,4.24a9.734,9.734,0,0,0,1.218-.039c-1.35-3.369-3.244-5.988-5.747-6.8a5.385,5.385,0,0,0-1.638-.3m18.763,6.507a8.655,8.655,0,0,0,5.633-1.219c2.751-1.587,4.315-3.473,4.291-5.174a2.3,2.3,0,0,0-1.239-2.047,3.143,3.143,0,0,0-3.2.261c-1.105.7-3.677,2.834-5.49,8.18m-5.312-17.4a3.833,3.833,0,0,0-.58.043c-1.743.264-3.56,1.792-3.433,5.285a14.391,14.391,0,0,0,4.175,9.344q.2-.23.378-.456c3.036-3.85,3.762-9.193,3.119-11.568a3.69,3.69,0,0,0-3.659-2.649" transform="translate(-139.575 -97.143)" fill="#32015c"/>
        <path id="Trazado_878770" data-name="Trazado 878770" d="M303.9,269.544a23.411,23.411,0,0,1-6.63-.869.249.249,0,1,1,.141-.479c4.35,1.279,8.927.86,12.877.366a.253.253,0,0,1,.278.217.249.249,0,0,1-.217.278,51.889,51.889,0,0,1-6.449.486" transform="translate(-148.791 -134.314)"/>
        <path id="Trazado_878771" data-name="Trazado 878771" d="M229.622,241.837c-1.506,1.179-2.957.6-3.225-1.3l-1.448-10.227c-.268-1.894.962-2.858,2.736-2.143l9.58,3.858c1.774.714,1.994,2.263.488,3.442Z" transform="translate(-112.641 -114.153)" fill="#d4336e"/>
        <path id="Trazado_878772" data-name="Trazado 878772" d="M294.937,310.455a2.006,2.006,0,0,1-.853-.18A2.091,2.091,0,0,1,293,308.11a3.811,3.811,0,0,1,2.286-3.257,6.865,6.865,0,0,1,.756-.341,6.3,6.3,0,0,0-3.59-1.521,3.948,3.948,0,0,0-4.052,2.194.249.249,0,1,1-.446-.223,4.435,4.435,0,0,1,4.537-2.468,6.792,6.792,0,0,1,4.082,1.837,9.893,9.893,0,0,1,7.8.956.25.25,0,1,1-.273.418,9.34,9.34,0,0,0-7.143-.968,4.67,4.67,0,0,1,.925,1.613,3.044,3.044,0,0,1-.93,3.283,3.136,3.136,0,0,1-2.018.823m1.5-5.558a6.729,6.729,0,0,0-.919.4,3.354,3.354,0,0,0-2.02,2.826,1.662,1.662,0,0,0,.794,1.7,2.294,2.294,0,0,0,2.33-.566,2.543,2.543,0,0,0,.783-2.757,4.3,4.3,0,0,0-.968-1.6" transform="translate(-144.201 -151.486)" fill="#495edb"/>
        <path id="Trazado_878773" data-name="Trazado 878773" d="M369.871,260.451a6.006,6.006,0,1,1-6.006-6.007,6.006,6.006,0,0,1,6.006,6.007" transform="translate(-179.223 -127.431)" fill="#7db3db"/>
        <path id="Trazado_878774" data-name="Trazado 878774" d="M373.1,169.538a2.91,2.91,0,0,1-4.078.555l-4.525-3.439a2.911,2.911,0,0,1,3.524-4.635l4.524,3.44a2.912,2.912,0,0,1,.555,4.079" transform="translate(-181.972 -80.845)" fill="#ffc4c4"/>
        <path id="Trazado_878775" data-name="Trazado 878775" d="M255.252,272.629a2.91,2.91,0,0,1,3.663,1.877l1.744,5.409a2.911,2.911,0,0,1-5.542,1.786l-1.743-5.409a2.911,2.911,0,0,1,1.878-3.663" transform="translate(-126.824 -136.468)" fill="#ffc4c4"/>
        <path id="Trazado_878776" data-name="Trazado 878776" d="M237.113,180.846a4.2,4.2,0,1,1,4.2-4.2,4.2,4.2,0,0,1-4.2,4.2m0-7.9a3.7,3.7,0,1,0,3.7,3.7,3.705,3.705,0,0,0-3.7-3.7" transform="translate(-116.648 -86.365)" fill="#495edb"/>
        <path id="Trazado_878777" data-name="Trazado 878777" d="M283.081,140.2a10.053,10.053,0,0,1-2.744-.433.25.25,0,0,1,.137-.48c2.628.748,4.421.507,6.186-.835a14.014,14.014,0,0,0,1.545-1.372,5.056,5.056,0,0,1-2.133-1.96,4.5,4.5,0,0,1-.363-3.761,2.427,2.427,0,0,1,1.705-1.5,3.037,3.037,0,0,1,3.2,1.679c.928,1.852-.272,3.88-1.547,5.335a4.434,4.434,0,0,0,1.863.116,5.118,5.118,0,0,0,4.2-3.764.249.249,0,1,1,.482.129,5.615,5.615,0,0,1-4.609,4.129,4.931,4.931,0,0,1-2.309-.2,15.4,15.4,0,0,1-1.736,1.567,6.153,6.153,0,0,1-3.881,1.351m4.732-9.87a2.472,2.472,0,0,0-.307.019,1.912,1.912,0,0,0-1.335,1.2,3.968,3.968,0,0,0,.326,3.312,4.53,4.53,0,0,0,2.069,1.834c1.334-1.489,2.385-3.378,1.6-4.956a2.5,2.5,0,0,0-2.349-1.407" transform="translate(-140.308 -65.026)" fill="#f2ac30"/>
        <path id="Trazado_878778" data-name="Trazado 878778" d="M405.56,226.517A41.32,41.32,0,0,0,403.594,219c-.554-1.435-.152-2.333-2.3-3.58s-4.782-3.466-5.268-3.673-1.247-3.187-4.089-.554-5.959,2.841-6.721.346c-1.456-.277-2.287-1.455-1.872-2.287s3.743-3.118,3.743-3.118c-1.663.9-4.574,1.108-4.99-.138s.97-2.219,3.327-2.911,11.783-4.921,14.345-3.327,6.655,5.059,9.565,7,3.951,5.059,5.337,8.732,2.495,7.555,2.495,7.555-3.635,6.387-11.6,3.476" transform="translate(-191.325 -99.863)" fill="#ffd4d4"/>
        <path id="Trazado_878779" data-name="Trazado 878779" d="M386.241,221.041a1.93,1.93,0,0,1-1.67-.908.25.25,0,0,1,.412-.283c.907,1.317,2.458.534,4.1-.463l.33-.2c.125-.065.241-.123.357-.18a4.476,4.476,0,0,0,1.116-.69.249.249,0,1,1,.342.363,4.9,4.9,0,0,1-1.237.774c-.112.055-.225.111-.334.169l-.315.19a6.735,6.735,0,0,1-3.1,1.226" transform="translate(-192.58 -109.305)"/>
        <path id="Trazado_878780" data-name="Trazado 878780" d="M384.79,212.609a3.292,3.292,0,0,1-.849-.107.25.25,0,1,1,.127-.483,4.4,4.4,0,0,0,1.952-.059c.159-.029.321-.058.485-.084a10.393,10.393,0,0,0,1.653-.538c.125-.064.255-.123.385-.182s.249-.113.384-.181c.093-.047.185-.1.28-.163a2.6,2.6,0,0,1,.641-.316.249.249,0,1,1,.137.48,2.208,2.208,0,0,0-.517.262c-.107.066-.213.131-.318.184-.141.071-.271.13-.4.189s-.249.113-.384.181a10.87,10.87,0,0,1-1.766.575c-.178.028-.335.057-.491.085a7.386,7.386,0,0,1-1.319.158" transform="translate(-192.192 -105.416)"/>
        <path id="Trazado_878781" data-name="Trazado 878781" d="M404.744,196.074a2.144,2.144,0,0,1,.6,2.959l-5.751,8.659a2.14,2.14,0,0,1-2.957.6l-8.66-5.75a2.142,2.142,0,0,1-.6-2.958l5.751-8.658a2.14,2.14,0,0,1,2.958-.6Z" transform="translate(-193.829 -95.142)" fill="#495edb"/>
        <path id="Trazado_878782" data-name="Trazado 878782" d="M503.564,152.211c-12.843.682-10.628,11.271-9.6,14.732.939,3.167-3.422,5.81-1.2,9.722s6.153,6.03,12.252,6.309c0,0-.3,6.793-.579,9.009l12.753-.832c-.535-3.929-1.686-12.076-.116-15.109.639-1.233,4.495,3.947,8.592-2.356s-9.262-22.157-22.1-21.476" transform="translate(-246.466 -76.22)" fill="#ffd4d4"/>
        <path id="Trazado_878783" data-name="Trazado 878783" d="M517.68,210.319a.25.25,0,0,1-.014-.5,16.068,16.068,0,0,0,8.747-3.358.25.25,0,0,1,.311.39,16.581,16.581,0,0,1-9.029,3.466h-.014" transform="translate(-259.14 -103.374)"/>
        <path id="Trazado_878784" data-name="Trazado 878784" d="M518.131,184.709c1.276-.064,1.894,2.434.655,2.592s-1.7-2.54-.655-2.592" transform="translate(-259.201 -92.506)"/>
        <path id="Trazado_878785" data-name="Trazado 878785" d="M517.647,184.505a.247.247,0,0,1-.1-.022l-.076-.034a3.314,3.314,0,0,1-1.2-.731.25.25,0,0,1,.385-.318,3.142,3.142,0,0,0,1.019.594l.077.034a.25.25,0,0,1-.1.477" transform="translate(-258.53 -91.805)"/>
        <path id="Trazado_878786" data-name="Trazado 878786" d="M499.138,182.22c1.277-.018,1.8,2.5.56,2.614s-1.609-2.6-.56-2.614" transform="translate(-249.671 -91.26)"/>
        <path id="Trazado_878787" data-name="Trazado 878787" d="M498.7,181.985a.256.256,0,0,1-.111-.026l-.084-.042a3.274,3.274,0,0,1-1.163-.77.249.249,0,0,1,.4-.3,3.118,3.118,0,0,0,.989.626l.085.042a.25.25,0,0,1-.111.473" transform="translate(-249.051 -90.521)"/>
        <path id="Trazado_878788" data-name="Trazado 878788" d="M505.049,187.034a3.246,3.246,0,0,1-2.331-.721c-.883-.789-.362-1.748-.017-2.382a6.63,6.63,0,0,0,.994-3.161,2.939,2.939,0,0,0-.926-2.05l-.228-.279a.249.249,0,1,1,.389-.312l.224.275a3.408,3.408,0,0,1,1.04,2.358,7.076,7.076,0,0,1-1.055,3.409c-.409.753-.635,1.282-.088,1.772a3.346,3.346,0,0,0,2.511.586c.142,0,.285-.007.426-.008h0a.25.25,0,0,1,0,.5c-.139,0-.279,0-.417.008-.175,0-.35.008-.526.008" transform="translate(-251.528 -89.163)"/>
        <path id="Trazado_878789" data-name="Trazado 878789" d="M508.683,199.672c-.749,0-1.432-.657-2.031-1.952a.251.251,0,0,1,.025-.251.255.255,0,0,1,.231-.1,7.087,7.087,0,0,0,4.048-1.654.249.249,0,0,1,.429.217c-.311,1.554-1.354,3.742-2.7,3.742m-1.406-1.814c.454.862.936,1.314,1.406,1.314.838,0,1.619-1.344,2.019-2.6a8.783,8.783,0,0,1-3.425,1.288" transform="translate(-253.731 -97.976)"/>
        <path id="Trazado_878790" data-name="Trazado 878790" d="M514.767,176.906c-.345-.866.5-1.843,2.059-1.186a6.33,6.33,0,0,1,2.854,2.643c.555,1.039-.105.434-.763-.085a4.541,4.541,0,0,0-3.183-1.092c-.571.012-.9.066-.967-.281" transform="translate(-257.768 -87.897)" fill="#d4336e"/>
        <path id="Trazado_878791" data-name="Trazado 878791" d="M519.586,178.939c-.189,0-.4-.163-.86-.532l-.219-.175a4.261,4.261,0,0,0-2.9-1.04l-.308.007c-.091,0-.175,0-.252,0-.222,0-.685,0-.784-.491a1.192,1.192,0,0,1,.125-1.117,1.814,1.814,0,0,1,2.275-.348A6.535,6.535,0,0,1,519.646,178c.239.447.286.64.193.795a.34.34,0,0,1-.253.141m-3.974-2.246a4.772,4.772,0,0,1,3.2,1.147l.222.177.078.062a6.121,6.121,0,0,0-2.642-2.372c-.74-.312-1.394-.235-1.669.169a.733.733,0,0,0-.061.694c.024.1.031.134.307.134.072,0,.151,0,.237,0Z" transform="translate(-257.514 -87.654)" fill="#d4336e"/>
        <path id="Trazado_878792" data-name="Trazado 878792" d="M487.738,142.867c1.109-1.894,5.544-6.654,11.736-9.288,0,5.822,3.094,14.878,10.257,15.108-.231,2.4-.508,4.159.091,4.39s2.588-1.062,2.911-3.927a4.245,4.245,0,0,1,6.746,1.664c.924,2.911-1.894,7.438-7.068,5.36-.832-.139-1.848,1.386-1.663,4.712a11.353,11.353,0,0,0,11.367-5.359,13.449,13.449,0,0,0-.557-13.907c-2.632-4.251-3.141-5.961-2.632-8.132,7.67,1.571,12.434-3.793,11.4-10.584s-7.567-10.981-14.913-9.11-9.422,10.545-2,15.6c-1.04,1.178-4.235.028-8.254-1.842s-15.991-4.6-21.9,4.644c-6.052,9.471,2.911,15.662,5.2,15.039a12.732,12.732,0,0,1-.716-4.366" transform="translate(-240.991 -56.766)" fill="#d4336e"/>
        <path id="Trazado_878793" data-name="Trazado 878793" d="M520.033,271.514c-4.713-10.9-6.284-17.372-10.811-28.645s-12.844-11.273-17.834-11.829-6.6-2.827-6.877-6.523c-10.257,3.789-12.251-1.054-12.436-.684-.879,5.452-2.588,5.452-8.5,4.62s-13.49,8.779-19.589,16.634c0,0-3.7-10.4-4.621-11.967-4.851,4.228-8.823,3.775-11.8,2.805,0,0,1.295,4.588,2.051,7.776-5.955,2.01,1.194,17.943,4.346,24.071,5.775,11.228,15.839,7.888,23.51-3.755,1.858,1.922,3.943,3.882,4.037,4.807a51.176,51.176,0,0,1-.425,8.513c-.461,2.772-2.771,10.719-2.771,11s2.956,7.485,2.956,7.485,29.015.555,28.924,4.713c4.435-.647,19.22.277,28-3.974s6.56-14.138,1.847-25.042M497.486,283.9l1.2-13.121,3.327,12.752Z" transform="translate(-214.008 -112.09)" fill="#7db3db"/>
        <path id="Trazado_878794" data-name="Trazado 878794" d="M519.98,271.142c-2.605-6.048-4.775-12.247-6.975-18.449q-1.729-4.874-3.63-9.683a22.354,22.354,0,0,0-4.4-7.258,17.16,17.16,0,0,0-10.52-4.847,32.568,32.568,0,0,1-5.992-.928c-2.638-.862-3.748-3.09-3.972-5.707a.252.252,0,0,0-.316-.241c-3.451,1.248-8.523,2.682-11.63-.151-.212-.193-.654-.839-.955-.418a5.708,5.708,0,0,0-.323,1.563,8.065,8.065,0,0,1-.521,1.529,2.921,2.921,0,0,1-1.956,1.66c-2.107.577-4.344-.347-6.46-.3-2.157.046-4.187,1.307-5.866,2.541-5.134,3.774-9.057,9.228-12.927,14.211l.417.11q-.985-2.768-2.011-5.52a44.687,44.687,0,0,0-2.636-6.507.254.254,0,0,0-.392-.051c-3.4,2.892-7.249,4.112-11.561,2.741a.251.251,0,0,0-.307.307c.727,2.58,1.427,5.168,2.051,7.775.059-.1.117-.2.175-.307-3.3,1.213-2.57,5.752-2.016,8.423a61.187,61.187,0,0,0,5,13.566c1.944,4.092,4.442,8.6,9.347,9.385,5.029.8,9.618-3.072,12.692-6.561a38.483,38.483,0,0,0,3.113-4.13l-.392.051c.806.83,1.625,1.648,2.418,2.491.6.635,1.509,1.446,1.563,2.374a42.746,42.746,0,0,1-.105,5.044,50.772,50.772,0,0,1-2.037,10.163c-.332,1.233-.683,2.462-1,3.7a2.567,2.567,0,0,0,.344,1.585c.817,2.124,1.683,4.228,2.546,6.333a.258.258,0,0,0,.241.183c4.549.088,9.1.337,13.638.722a82.8,82.8,0,0,1,10.032,1.334c1.079.226,4.977.8,5,2.408a.255.255,0,0,0,.316.241c4.1-.569,8.346-.344,12.477-.639,5.078-.362,10.307-1.036,15.007-3.093,10.7-4.68,5.965-17.619,2.511-25.651-.127-.3-.557-.04-.431.252,2.069,4.812,4.142,10.029,4.1,15.35a10.8,10.8,0,0,1-1.77,6.026c-1.431,2.111-3.784,3.308-6.107,4.175-4.761,1.778-9.984,2.256-15.02,2.554-3.614.214-7.311.047-10.9.545l.315.241c-.032-1.869-3.5-2.46-4.8-2.763A77.735,77.735,0,0,0,474.142,296c-3.493-.291-7-.477-10.5-.6q-1.238-.044-2.476-.074c-.358-.008.141.358-.025-.048q-.439-1.074-.875-2.15-.726-1.79-1.434-3.587c-.208-.531-.6-1.228-.489-1.689.635-2.581,1.4-5.13,2.045-7.71a40.481,40.481,0,0,0,1.119-8.968c.021-.878.26-2.241-.159-3.068-.886-1.748-2.631-3.129-3.974-4.512a.253.253,0,0,0-.392.05c-2.975,4.466-7.148,9.4-12.722,10.417-5.371.979-8.821-3.554-10.934-7.8a74.651,74.651,0,0,1-5.028-12.521c-.745-2.595-2.511-8.712,1.109-10.041a.256.256,0,0,0,.174-.307c-.624-2.606-1.324-5.2-2.051-7.775l-.307.307c4.492,1.427,8.511.139,12.046-2.87l-.392-.05a45.6,45.6,0,0,1,2.679,6.638q.976,2.627,1.917,5.269c.056.156.292.272.417.11,3.925-5.054,7.893-10.507,13.1-14.332a9.273,9.273,0,0,1,6.953-2.139c1.747.239,3.786.643,5.49-.016,1.4-.543,1.97-2.027,2.318-3.371.123-.477.389-1.033,0-1.36.079.066.149.146.221.22a6.735,6.735,0,0,0,.831.709c3.262,2.371,8.116,1.012,11.507-.214l-.316-.241a7.13,7.13,0,0,0,2.1,4.95c1.6,1.435,3.9,1.714,5.942,1.917,4.177.415,8.2,1.177,11.51,3.951a19.243,19.243,0,0,1,5.17,7.6c1.37,3.339,2.6,6.737,3.812,10.137,2.22,6.241,4.4,12.48,7.025,18.568.127.3.557.04.431-.252" transform="translate(-213.74 -111.844)" fill="#7db3db"/>
        <path id="Trazado_878795" data-name="Trazado 878795" d="M567.887,330.768l1.2-13.121-.49.066,3.327,12.752.241-.316-4.528.369c-.318.026-.321.526,0,.5l4.528-.369a.254.254,0,0,0,.241-.316q-1.664-6.377-3.326-12.752a.251.251,0,0,0-.491.066l-1.2,13.121c-.029.321.47.318.5,0" transform="translate(-284.159 -158.961)" fill="#7db3db"/>
        <path id="Trazado_878796" data-name="Trazado 878796" d="M456.262,352c2.034-1.941,6.93-5.36,8.132-3.6a4.234,4.234,0,0,1,3.141-1.016c1.386-1.479,3.05-1.849,4.713.092s6.653,6.1,7.485,6.93,7.3.646,21.809-2.495c2.956,1.2,3.116,9.568,3.116,9.568-5.386.341-45.057.152-45.057.152Z" transform="translate(-228.506 -173.355)" fill="#ffd4d4"/>
        <path id="Trazado_878797" data-name="Trazado 878797" d="M479.814,358.024a.249.249,0,0,1-.178-.075l-.068-.07a.244.244,0,0,1-.06-.1,4.4,4.4,0,0,1-.478-1.086c-.13-.259-.25-.517-.37-.774s-.244-.524-.384-.8c-.3-.47-.589-1-.864-1.519-.216-.406-.438-.822-.675-1.217-.357.417-.741.82-1.114,1.212a21.87,21.87,0,0,0-1.569,1.771l-.089.119c-.617.832-1.768,2.377-3.214,1.539a1.523,1.523,0,0,1-.788-.949,3.271,3.271,0,0,1,.489-2.3c.354-.568.745-1.118,1.122-1.649s.757-1.067,1.1-1.614c.186-.28.352-.568.519-.855a7.949,7.949,0,0,1,1.18-1.684.25.25,0,1,1,.353.353,7.464,7.464,0,0,0-1.1,1.581c-.172.3-.344.594-.532.876-.346.554-.735,1.1-1.112,1.633s-.759,1.07-1.1,1.618a2.86,2.86,0,0,0-.437,1.908,1.035,1.035,0,0,0,.55.649c.991.573,1.781-.335,2.572-1.4l.091-.123a22.278,22.278,0,0,1,1.606-1.815c.466-.49.906-.952,1.312-1.451a.247.247,0,0,1,.207-.091.25.25,0,0,1,.2.114c.318.494.6,1.027.877,1.542s.55,1.031.856,1.508c.156.307.28.573.4.839s.237.508.372.778a.4.4,0,0,1,.018.048,3.445,3.445,0,0,0,.507,1.086.25.25,0,0,1-.2.405" transform="translate(-235.332 -174.232)"/>
        <path id="Trazado_878798" data-name="Trazado 878798" d="M462.347,357.265a2.006,2.006,0,0,1-1.6-.715c-.915-1.276.411-2.6.847-3.038a23.989,23.989,0,0,1,4.975-3.367.25.25,0,1,1,.244.436,23.6,23.6,0,0,0-4.87,3.289c-.993.993-1.249,1.75-.8,2.378a1.855,1.855,0,0,0,2.25.268,10.52,10.52,0,0,0,2.087-1.413l.329.376a10.947,10.947,0,0,1-2.2,1.487,2.863,2.863,0,0,1-1.258.3" transform="translate(-230.593 -175.344)"/>
        <path id="Trazado_878799" data-name="Trazado 878799" d="M457.863,363.106a.25.25,0,0,1-.034-.5,2.862,2.862,0,0,0,1.383-.622.25.25,0,1,1,.353.353,3.33,3.33,0,0,1-1.666.764l-.035,0" transform="translate(-229.183 -181.254)"/>
        <path id="Trazado_878800" data-name="Trazado 878800" d="M486.56,286.676a.249.249,0,0,1-.17-.067,9.837,9.837,0,0,1-2.228-3.565c-1.465-4.585-.291-9.355,1.2-13.826.081-.243-.316-.688-.579-.982-.1-.115-.2-.224-.275-.321-.263-.445-.507-.864-.75-1.283a.25.25,0,1,1,.432-.251q.364.629.731,1.254c.051.063.14.163.235.268.379.426.852.956.68,1.473-1.462,4.391-2.618,9.067-1.2,13.516a9.433,9.433,0,0,0,2.093,3.352.25.25,0,0,1-.17.432" transform="translate(-242.142 -133.347)"/>
        <path id="Trazado_878801" data-name="Trazado 878801" d="M433.068,261.23a4.7,4.7,0,0,1-2.445-.5.25.25,0,1,1,.275-.417c1.5.988,6.775.366,10.994-2.514a.25.25,0,0,1,.282.412,17.154,17.154,0,0,1-9.105,3.023" transform="translate(-215.609 -129.088)"/>
        <path id="Trazado_878802" data-name="Trazado 878802" d="M462.4,271.8a.25.25,0,0,1-.245-.2A31.6,31.6,0,0,0,460,264.7a.25.25,0,1,1,.464-.184,32.012,32.012,0,0,1,2.181,6.993.25.25,0,0,1-.2.292.255.255,0,0,1-.047,0" transform="translate(-230.371 -132.394)"/>
        <path id="Trazado_878803" data-name="Trazado 878803" d="M568.572,314.118a.251.251,0,0,1-.24-.18c-.389-1.353-.806-2.9-1.246-4.548-.881-3.285-1.879-7.008-2.935-10.114-1.523-4.477-2.743-9.037-4.068-14.106a.249.249,0,0,1,.179-.3.247.247,0,0,1,.3.179c1.322,5.059,2.54,9.61,4.058,14.071,1.062,3.121,2.062,6.853,2.945,10.146.44,1.641.856,3.19,1.244,4.538a.25.25,0,0,1-.17.309.24.24,0,0,1-.069.01" transform="translate(-280.497 -142.663)"/>
        <path id="Trazado_878804" data-name="Trazado 878804" d="M546.288,350.114a.245.245,0,0,1-.174-.072.3.3,0,0,1-.073-.3.322.322,0,0,1,.275-.161.183.183,0,0,0,.069-.008.287.287,0,0,1,.051-.02c.11-.027.22-.067.335-.108a4.116,4.116,0,0,1,.576-.172,7.616,7.616,0,0,0,1.1-.265l.264-.076c.234-.041.441-.059.639-.076l.252-.023c-.013-.032-.027-.063-.041-.095a3.228,3.228,0,0,1-.4-1.9,3.767,3.767,0,0,1,1.776-2.314,10.856,10.856,0,0,1,4.19-1.224c.277-.042.551-.083.822-.128a33.221,33.221,0,0,1,3.506-.312c.571-.03,1.143-.06,1.714-.106,1.363-.069,2.766-.14,4.177-.14H568.4a.25.25,0,1,1,0,.5h-3.049c-1.4,0-2.795.07-4.145.139-.569.045-1.145.076-1.72.106a32.791,32.791,0,0,0-3.452.307c-.272.045-.549.087-.828.129a10.5,10.5,0,0,0-4,1.153,3.287,3.287,0,0,0-1.549,1.974,2.82,2.82,0,0,0,.368,1.614c.059.135.118.269.172.4a.249.249,0,0,1-.183.338,5.659,5.659,0,0,1-.613.075c-.187.016-.379.032-.573.065l-.234.069a7.913,7.913,0,0,1-1.159.278,3.584,3.584,0,0,0-.493.151c-.123.043-.241.085-.358.116a.577.577,0,0,1-.158.043.251.251,0,0,1-.136.04" transform="translate(-273.462 -171.589)"/>
        <path id="Trazado_878805" data-name="Trazado 878805" d="M557.543,365.034a.25.25,0,0,1-.25-.25,14.724,14.724,0,0,0-.885-5.179l-.121-.341a9.429,9.429,0,0,0-1.1-2.376,5.754,5.754,0,0,0-2.062-1.725.249.249,0,1,1,.239-.438,6.226,6.226,0,0,1,2.239,1.886,9.832,9.832,0,0,1,1.154,2.486l.119.336a15.131,15.131,0,0,1,.915,5.194c0,.006,0,.012,0,.018v.139a.25.25,0,0,1-.25.25" transform="translate(-276.952 -177.638)"/>
        <path id="Trazado_878806" data-name="Trazado 878806" d="M505.9,301.7h-.014a.249.249,0,0,1-.235-.264,26.43,26.43,0,0,1,1.271-4.685,20.2,20.2,0,0,0,.858-2.626c.107-.384.214-.771.333-1.161a44.91,44.91,0,0,0,2.02-8.817,14.079,14.079,0,0,0,.276-2.748,7.838,7.838,0,0,0-.541-2.507c-.168-.532-.342-1.058-.518-1.587-.406-1.224-.826-2.49-1.152-3.792a26.324,26.324,0,0,1-.93-5.4,9.593,9.593,0,0,1,.1-2.135c.029-.229.057-.458.08-.687l.023-.232c.088-.884.179-1.8.35-2.656.143-.478.256-.934.37-1.39s.235-.935.376-1.406a20.152,20.152,0,0,1,.693-2.012c.107-.279.217-.564.327-.866.309-.976.585-1.97.877-3.023.223-.8.447-1.608.689-2.416.087-.442.205-.913.319-1.367s.231-.924.322-1.383c.059-.211.105-.393.151-.573a8.33,8.33,0,0,1,.419-1.325.249.249,0,0,1,.458.2,7.961,7.961,0,0,0-.393,1.251c-.047.184-.094.371-.15.567-.089.451-.208.927-.323,1.387s-.228.913-.319,1.367c-.247.827-.471,1.631-.692,2.428-.281,1.01-.571,2.055-.885,3.049-.115.315-.225.6-.334.884a19.855,19.855,0,0,0-.68,1.971c-.14.465-.257.935-.371,1.389s-.232.927-.371,1.389c-.16.813-.25,1.713-.337,2.584l-.023.233c-.023.233-.052.466-.081.7a9.076,9.076,0,0,0-.1,2.024,26,26,0,0,0,.914,5.31c.325,1.3.743,2.555,1.146,3.77.177.532.352,1.06.519,1.589a8.316,8.316,0,0,1,.566,2.663,14.433,14.433,0,0,1-.282,2.821,45.267,45.267,0,0,1-2.036,8.89c-.118.386-.224.769-.329,1.15a21.127,21.127,0,0,1-.88,2.689,26.207,26.207,0,0,0-1.232,4.518.25.25,0,0,1-.249.235" transform="translate(-253.242 -123.448)"/>
        <path id="Trazado_878807" data-name="Trazado 878807" d="M522.189,237.768a2.41,2.41,0,0,1-1.976-1.172,8.185,8.185,0,0,1-1.371-4.053c-.043-.286-.087-.577-.137-.867-.383.651-.772,1.3-1.2,1.937l-.117.178c-.6.908-1.713,2.6-2.971,2.754a1.594,1.594,0,0,1-1.307-.46c-1-.928-.927-2.106-.857-3.244l.012-.213a.25.25,0,1,1,.5.029l-.013.214c-.066,1.07-.128,2.08.7,2.846a1.1,1.1,0,0,0,.907.331c1.029-.128,2.1-1.753,2.615-2.533l.119-.18c.543-.814,1.028-1.645,1.5-2.448a.278.278,0,0,1,.264-.138.245.245,0,0,1,.215.176c.114.511.192,1.036.268,1.543a7.709,7.709,0,0,0,1.28,3.832,1.834,1.834,0,0,0,2.275.823,16.648,16.648,0,0,0,2.943-1.367,9.67,9.67,0,0,0,2.364-2.026.25.25,0,0,1,.383.32,10.169,10.169,0,0,1-2.485,2.131,17.053,17.053,0,0,1-3.028,1.409,2.353,2.353,0,0,1-.877.177" transform="translate(-256.53 -115.564)"/>
        <path id="Trazado_878808" data-name="Trazado 878808" d="M522.315,243.52a1.009,1.009,0,0,1-.182-.016.837.837,0,0,1-.683-.687,1.256,1.256,0,0,1,.434-1.3,1.2,1.2,0,0,1,1.317-.073.25.25,0,0,1,.123.278.894.894,0,0,1,.128.281,1.244,1.244,0,0,1-.171.989,1.163,1.163,0,0,1-.966.534m.27-1.744a.654.654,0,0,0-.4.134.757.757,0,0,0-.247.8.341.341,0,0,0,.284.3.669.669,0,0,0,.647-.309.752.752,0,0,0,.1-.578.333.333,0,0,0-.194-.239.249.249,0,0,1-.12-.108.681.681,0,0,0-.071,0" transform="translate(-261.135 -120.837)"/>
        <path id="Trazado_878809" data-name="Trazado 878809" d="M517.56,269.436a1.071,1.071,0,0,1-.711-.31,1.2,1.2,0,0,1-.353-.959,1.621,1.621,0,0,1,.646-1.161.828.828,0,0,1,.96-.049.277.277,0,0,1,.113.084.671.671,0,0,1,.46.593,1.808,1.808,0,0,1-.71,1.7.841.841,0,0,1-.4.106m.054-2.111a.29.29,0,0,0-.174.081,1.13,1.13,0,0,0-.447.8.7.7,0,0,0,.2.561c.3.261.475.164.532.131a1.335,1.335,0,0,0,.459-1.179c-.007-.042-.034-.18-.1-.193a.25.25,0,0,1-.158-.1h0a.99.99,0,0,0-.3-.095" transform="translate(-258.67 -133.632)"/>
        <path id="Trazado_878810" data-name="Trazado 878810" d="M515.735,296.954a.87.87,0,0,1-.672-.376,1.684,1.684,0,0,1-.263-1.206.965.965,0,0,1,.386-.685.251.251,0,0,1,.237-.022.238.238,0,0,1,.261-.228,1,1,0,0,1,.972.85,1.534,1.534,0,0,1-.629,1.6.68.68,0,0,1-.292.066m-.162-2.038a.249.249,0,0,1-.11.186.5.5,0,0,0-.169.346,1.2,1.2,0,0,0,.157.815c.135.164.257.225.363.174a1.09,1.09,0,0,0,.354-1.052.5.5,0,0,0-.508-.449.261.261,0,0,1-.086-.02" transform="translate(-257.813 -147.46)"/>
        <path id="Trazado_878811" data-name="Trazado 878811" d="M517.531,336.734a.649.649,0,0,1-.356-.1,1.632,1.632,0,0,1-.445-1.581,2.772,2.772,0,0,0,.27-.376.437.437,0,0,0,.127-.128.99.99,0,0,1,.087-.1.231.231,0,0,1,.064-.046.889.889,0,0,1,1.051.254,1.321,1.321,0,0,1-.155,1.824,1.068,1.068,0,0,1-.643.262m-.308-1.615a.248.248,0,0,1-.006.037c-.078.351.013.917.226,1.052.114.075.291-.028.418-.126a.826.826,0,0,0,.1-1.1.444.444,0,0,0-.42-.159l-.017.023a.882.882,0,0,1-.3.27l0,0" transform="translate(-258.77 -167.431)"/>
        <path id="Trazado_878812" data-name="Trazado 878812" d="M424.875,213.237c-.97-1.063-3.419-2.357-5.59-3.42-1.842-.9-4.3.786-1.664,3.6s7.578,4.2,7.578,4.2" transform="translate(-208.576 -104.959)" fill="#ffd4d4"/>
        <path id="Trazado_878813" data-name="Trazado 878813" d="M424.945,217.624a.244.244,0,0,1-.067-.009c-.2-.057-5.042-1.437-7.693-4.273-1.746-1.869-1.2-3.062-.886-3.488a2.3,2.3,0,0,1,2.842-.511c2.1,1.028,4.639,2.352,5.665,3.476a.249.249,0,1,1-.368.336c-.98-1.074-3.618-2.434-5.516-3.363a1.82,1.82,0,0,0-2.221.359c-.5.678-.185,1.744.849,2.85,2.557,2.736,7.414,4.121,7.463,4.134a.25.25,0,0,1-.067.49" transform="translate(-208.323 -104.708)"/>
        <path id="Trazado_878814" data-name="Trazado 878814" d="M434.667,340.493H414.962l-7.929-23.159a5.825,5.825,0,0,0-5.139-3.671h-33.65a2.606,2.606,0,0,0-2.623,3.671l8.168,23.857c.894,2.316,1,4.223,3.321,4.223h57.558a2.46,2.46,0,0,0,0-4.92" transform="translate(-183.012 -157.089)" fill="#f2ac30"/>
        <path id="Trazado_878815" data-name="Trazado 878815" d="M434.446,339.91H414.938c-.386,0,.1.341-.007.032l-.9-2.629-3.653-10.67-3.066-8.956c-.9-2.616-2.959-4.608-5.875-4.608H371.913c-1.692,0-3.969-.349-5.554.389-2.546,1.187-.9,4.467-.267,6.326l3.633,10.612,3.214,9.388c.735,2.146,1.166,5.536,3.984,5.536h57.509c3.529,0,3.474-5.186.012-5.42-.322-.021-.319.478,0,.5a2.214,2.214,0,1,1-.238,4.421H376.979c-2.215,0-2.594-2.355-3.175-4.051l-.678-1.979q-3.447-10.071-6.9-20.142l-.59-1.724c-.745-2.177.894-3.356,2.841-3.356h29.943c2.852,0,5.534-.28,7.536,2.334a8.78,8.78,0,0,1,1.084,2.538q.709,2.07,1.418,4.141,3.018,8.818,6.038,17.636a.255.255,0,0,0,.241.183h19.705a.25.25,0,0,0,0-.5" transform="translate(-182.791 -156.755)" fill="#f2ac30"/>
        <path id="Trazado_878816" data-name="Trazado 878816" d="M421.669,369.1H382.534a.25.25,0,0,1,0-.5h39.136a.25.25,0,0,1,0,.5" transform="translate(-191.456 -184.604)"/>
        <path id="Trazado_878817" data-name="Trazado 878817" d="M409.739,345.337c-1.708,0-3.587-1.693-4.189-3.775a3.47,3.47,0,0,1,.344-3.057,2.151,2.151,0,0,1,1.768-.856c1.709,0,3.587,1.694,4.188,3.776a3.471,3.471,0,0,1-.345,3.057,2.15,2.15,0,0,1-1.766.855m-2.077-7.189a1.644,1.644,0,0,0-1.369.656,2.989,2.989,0,0,0-.264,2.62c.544,1.883,2.207,3.414,3.709,3.414a1.642,1.642,0,0,0,1.367-.656,2.986,2.986,0,0,0,.264-2.619c-.543-1.883-2.206-3.415-3.708-3.415" transform="translate(-203.012 -169.102)"/>
        <path id="Trazado_878818" data-name="Trazado 878818" d="M498.969,176.085c-1.182-1.438-2.941-2.686-3.652-2.342s-.865,1.428-.365,1.652.683-.691,2.331.028c1.444.629,1.8.922,1.686.662" transform="translate(-247.736 -86.985)" fill="#d4336e"/>
        <path id="Trazado_878819" data-name="Trazado 878819" d="M498.711,176.18h0a1.661,1.661,0,0,1-.6-.233c-.267-.129-.649-.314-1.179-.545a2.641,2.641,0,0,0-1.015-.26,1.314,1.314,0,0,0-.615.16.829.829,0,0,1-.7.071.82.82,0,0,1-.439-.78,1.487,1.487,0,0,1,.8-1.325.891.891,0,0,1,.389-.082c.985,0,2.572,1.283,3.565,2.491a.277.277,0,0,1,.034.054.335.335,0,0,1,0,.323.308.308,0,0,1-.236.125m-2.791-1.536a3.078,3.078,0,0,1,1.215.3c.29.126.537.239.745.337a4.968,4.968,0,0,0-2.531-1.6.4.4,0,0,0-.172.032.983.983,0,0,0-.516.87c0,.062.013.272.145.33a.134.134,0,0,0,.059.015.7.7,0,0,0,.227-.082,1.8,1.8,0,0,1,.828-.208" transform="translate(-247.486 -86.735)" fill="#d4336e"/>
        <path id="Trazado_878820" data-name="Trazado 878820" d="M549.778,144.034a.249.249,0,0,1-.22-.131,13.412,13.412,0,0,1-1.143-2.608,8.333,8.333,0,0,1-.571-2.814,1.583,1.583,0,0,1,.753-1.462,1.221,1.221,0,0,1,1.329.2c2.167,1.661,1.042,5.125.457,6.537a.248.248,0,0,1-.326.135.262.262,0,0,1-.043-.023.249.249,0,0,1-.117.137.255.255,0,0,1-.119.029m-.7-6.63a.551.551,0,0,0-.253.06,1.113,1.113,0,0,0-.479,1.016,7.923,7.923,0,0,0,.547,2.662,12.553,12.553,0,0,0,1.041,2.4c.543-1.319,1.572-4.484-.3-5.924a.979.979,0,0,0-.552-.214" transform="translate(-274.372 -68.565)"/>
        <path id="Trazado_878821" data-name="Trazado 878821" d="M556.912,151.53a7.12,7.12,0,0,1-2.573-.695L554,150.7c-.877-.375-1.827-.756-2.746-1.123a.249.249,0,0,1,.093-.481h.008a.249.249,0,0,1,.142-.166L552,148.7a13.863,13.863,0,0,1,2.659-.976c1.3-.258,3.07-.07,3.83,1.309a1.621,1.621,0,0,1-1.391,2.491c-.062,0-.124.006-.186.006m-5.017-2.237c.776.311,1.561.628,2.293.942l.34.139a6.1,6.1,0,0,0,2.54.653,1.125,1.125,0,0,0,.981-1.756c-.628-1.14-2.161-1.282-3.288-1.058a13.47,13.47,0,0,0-2.558.942Z" transform="translate(-276 -73.934)"/>
        <path id="Trazado_878822" data-name="Trazado 878822" d="M551.459,150.615a.249.249,0,0,1-.15-.05c-.225-.169-.439-.363-.646-.551a7.342,7.342,0,0,0-.84-.689,12.009,12.009,0,0,1-1.1-.768c-.21-.159-.424-.321-.656-.483a32.189,32.189,0,0,1-2.654-2.461.25.25,0,0,1,.353-.353,31.584,31.584,0,0,0,2.6,2.415c.224.157.443.322.659.486a11.867,11.867,0,0,0,1.061.743,7.726,7.726,0,0,1,.909.742c.136.123.267.243.4.353a.256.256,0,0,1,.31.242v.125a.25.25,0,0,1-.25.25" transform="translate(-273.12 -72.713)"/>
        <path id="Trazado_878823" data-name="Trazado 878823" d="M202.1,345.574H188.927a.25.25,0,0,1-.244-.2l-6.21-28.807a2.506,2.506,0,0,1,.349-2.13,2.246,2.246,0,0,1,2.544-.491l34.47,11.089a2.079,2.079,0,0,1,.822,3.818l-18.39,16.654a.249.249,0,0,1-.167.064m-12.972-.5H202l18.319-16.59a1.594,1.594,0,0,0-.64-2.973l-34.469-11.089a1.784,1.784,0,0,0-2,.329,2.029,2.029,0,0,0-.25,1.712Z" transform="translate(-91.344 -157.146)" fill="#ffd4d4"/>
        <path id="Trazado_878824" data-name="Trazado 878824" d="M194.454,26.285h-.064c-1.634-.029-3.177-1.157-4.234-3.093a9.866,9.866,0,0,1,.193-8.882,11.985,11.985,0,0,0-5.224.647c-3.773,1.4-5.592,4.485-4.866,8.259a.25.25,0,0,1-.49.094c-.776-4.034,1.161-7.332,5.182-8.821a12.491,12.491,0,0,1,5.64-.648,11.665,11.665,0,0,1,1.544-2.193c3.008-3.365,7.3-4.251,11.765-2.43a.25.25,0,0,1-.188.462c-4.263-1.736-8.346-.9-11.2,2.3a11.216,11.216,0,0,0-1.387,1.933,8.408,8.408,0,0,1,6.187,3.855c1.35,2.363,1.516,4.747.453,6.541a3.854,3.854,0,0,1-3.307,1.978m-3.58-11.913a9.4,9.4,0,0,0-.28,8.58c.982,1.8,2.334,2.807,3.8,2.833a3.388,3.388,0,0,0,2.933-1.733c.968-1.635.8-3.836-.457-6.039a7.975,7.975,0,0,0-6-3.642" transform="translate(-89.948 -4.151)" fill="#f2ac30"/>
        <path id="Trazado_878825" data-name="Trazado 878825" d="M12.89,175.337a7.08,7.08,0,0,1-3.115-.778.249.249,0,1,1,.219-.448,5.614,5.614,0,0,0,6.779-.944,8.317,8.317,0,0,0,1.615-2.234,5.717,5.717,0,0,1-4.123-3.108c-1.168-2.458-.769-4.5-.007-5.591a2.485,2.485,0,0,1,2.266-1.168c1.1.1,2.086.992,2.773,2.507a9.032,9.032,0,0,1-.188,6.974,6.925,6.925,0,0,0,2.79-.249,5.6,5.6,0,0,0,3.921-6.66.25.25,0,0,1,.494-.076c.637,4.156-1.787,6.451-4.268,7.213a7.436,7.436,0,0,1-3.15.246,8.831,8.831,0,0,1-1.775,2.5,5.985,5.985,0,0,1-4.231,1.812m3.431-13.781a2.044,2.044,0,0,0-1.654.964c-.682.976-1.027,2.826.049,5.091a5.252,5.252,0,0,0,3.889,2.859,8.537,8.537,0,0,0,.237-6.69c-.609-1.345-1.449-2.132-2.364-2.216-.052,0-.105-.008-.158-.008" transform="translate(-4.825 -80.661)" fill="#ffd4d4"/>
        <path id="Trazado_878826" data-name="Trazado 878826" d="M617.658,247.737a.251.251,0,0,1-.114-.027c-3.415-1.752-4.727-5.076-3.507-8.892a11.648,11.648,0,0,1,2.759-4.51,10.846,10.846,0,0,1-.72-2.386c-.745-4.148,1.071-7.812,4.982-10.05a.249.249,0,0,1,.248.433c-3.717,2.128-5.444,5.6-4.738,9.529a10.456,10.456,0,0,0,.612,2.1,7.848,7.848,0,0,1,6.378-2.316c2.516.367,4.366,1.619,5.075,3.435a3.6,3.6,0,0,1-.488,3.627c-.963,1.188-2.681,1.673-4.718,1.336a9.2,9.2,0,0,1-6.411-5.229,11.15,11.15,0,0,0-2.5,4.182c-1.139,3.564.08,6.664,3.26,8.295a.25.25,0,0,1-.114.472m-.269-13.323a8.733,8.733,0,0,0,6.12,5.112c1.882.314,3.389-.1,4.248-1.159a3.113,3.113,0,0,0,.41-3.131c-.642-1.644-2.349-2.782-4.682-3.122a7.405,7.405,0,0,0-6.1,2.3" transform="translate(-307.299 -111.101)" fill="#f2ac30"/>
        <path id="Trazado_878827" data-name="Trazado 878827" d="M554.536,69.581a2.8,2.8,0,0,1-2.323-1.224l-5-7.366a2.81,2.81,0,0,1,.743-3.89l7.367-5a2.808,2.808,0,0,1,3.89.745l5,7.365a2.807,2.807,0,0,1-.744,3.891l-7.365,5a2.782,2.782,0,0,1-1.568.481m2.35-17.465a2.281,2.281,0,0,0-1.285.394l-7.367,5a2.308,2.308,0,0,0-.611,3.2l5,7.366a2.309,2.309,0,0,0,3.2.61l7.365-5a2.306,2.306,0,0,0,.612-3.2l-5-7.365a2.3,2.3,0,0,0-1.91-1.006" transform="translate(-273.813 -25.851)" fill="#ffd4d4"/>
        <path id="Trazado_878828" data-name="Trazado 878828" d="M505.41,34.6a3.351,3.351,0,1,1,3.351-3.35,3.355,3.355,0,0,1-3.351,3.35m0-6.2a2.852,2.852,0,1,0,2.852,2.852A2.855,2.855,0,0,0,505.41,28.4" transform="translate(-251.442 -13.974)" fill="#7db3db"/>
        <path id="Trazado_878829" data-name="Trazado 878829" d="M52.914,100.443a2.4,2.4,0,1,1-2.4-2.4,2.4,2.4,0,0,1,2.4,2.4" transform="translate(-24.101 -49.104)" fill="#7db3db"/>
        <path id="Trazado_878830" data-name="Trazado 878830" d="M63.838,90.817a2.4,2.4,0,1,1-2.4-2.4,2.4,2.4,0,0,1,2.4,2.4" transform="translate(-29.571 -44.283)" fill="#7db3db"/>
        <path id="Trazado_878831" data-name="Trazado 878831" d="M65.688,104.887a2.4,2.4,0,1,1-2.4-2.4,2.395,2.395,0,0,1,2.4,2.4" transform="translate(-30.498 -51.329)" fill="#7db3db"/>
        <path id="Trazado_878832" data-name="Trazado 878832" d="M351.682,356.293a2.656,2.656,0,0,1-2.4-1.533,2.643,2.643,0,1,1,2.4,1.533m0-4.793a2.146,2.146,0,1,0,1.949,1.243,2.138,2.138,0,0,0-1.949-1.243" transform="translate(-174.804 -175.789)" fill="#7db3db"/>
        <path id="Trazado_878833" data-name="Trazado 878833" d="M338.355,350.434a2.646,2.646,0,0,1-1.115-5.047,2.619,2.619,0,0,1,1.111-.246,2.646,2.646,0,0,1,1.114,5.046,2.617,2.617,0,0,1-1.11.246m0-4.793a2.147,2.147,0,0,0-1.946,3.05,2.158,2.158,0,0,0,1.95,1.244,2.119,2.119,0,0,0,.9-.2,2.147,2.147,0,0,0-.9-4.094" transform="translate(-168.13 -172.854)" fill="#7db3db"/>
        <path id="Trazado_878834" data-name="Trazado 878834" d="M350.339,342.835a2.646,2.646,0,1,1,2.484-1.736,2.654,2.654,0,0,1-2.484,1.736m0-4.793a2.147,2.147,0,1,0,1.949,1.243,2.136,2.136,0,0,0-1.949-1.243" transform="translate(-174.133 -169.049)" fill="#7db3db"/>
        <path id="Trazado_878835" data-name="Trazado 878835" d="M605.891,183.982a2.646,2.646,0,0,1-2.486-3.556,2.645,2.645,0,0,1,2.481-1.736A2.645,2.645,0,0,1,607,183.736a2.618,2.618,0,0,1-1.11.246m-.005-4.793a2.147,2.147,0,0,0-1.945,3.049,2.155,2.155,0,0,0,1.95,1.244,2.147,2.147,0,0,0,1.945-3.05,2.157,2.157,0,0,0-1.95-1.243" transform="translate(-302.117 -89.492)" fill="#495edb"/>
        <path id="Trazado_878836" data-name="Trazado 878836" d="M592.561,178.122a2.655,2.655,0,0,1-2.4-1.533,2.647,2.647,0,0,1,2.4-3.759,2.646,2.646,0,0,1,1.114,5.046,2.619,2.619,0,0,1-1.111.246m0-4.793a2.146,2.146,0,0,0-1.945,3.049,2.154,2.154,0,0,0,1.949,1.244,2.148,2.148,0,0,0,1.945-3.051,2.156,2.156,0,0,0-1.949-1.243" transform="translate(-295.441 -86.557)" fill="#495edb"/>
        <path id="Trazado_878837" data-name="Trazado 878837" d="M604.547,170.524a2.644,2.644,0,1,1,2.484-1.736,2.653,2.653,0,0,1-2.484,1.736m0-4.793a2.147,2.147,0,1,0,1.948,1.243,2.136,2.136,0,0,0-1.948-1.243" transform="translate(-301.445 -82.752)" fill="#495edb"/>
        <path id="Trazado_878838" data-name="Trazado 878838" d="M319.856,377.128H.5a.5.5,0,1,1,0-1H319.856a.5.5,0,0,1,0,1" transform="translate(0 -188.374)" fill="#32015c"/>
      </g>
    </g>
  </g>
</svg>
