<svg xmlns="http://www.w3.org/2000/svg" width="67" height="67" viewBox="0 0 67 67">
  <g id="Grupo_1103004" data-name="Grupo 1103004" transform="translate(-618 -4825)">
    <rect id="Rectángulo_403198" data-name="Rectángulo 403198" width="67" height="67" rx="10" transform="translate(618 4825)" fill="#00ffdf"/>
    <path id="Trazado_878858" data-name="Trazado 878858" d="M58.614,10.959a.828.828,0,0,1,1.131-.3l2.892,1.67a.828.828,0,1,1-.828,1.434l-2.892-1.67A.828.828,0,0,1,58.614,10.959ZM56.773,21.746h3.34a.828.828,0,1,0,0-1.656h-3.34a.828.828,0,1,0,0,1.656Zm5.036,6.33-2.892,1.67a.828.828,0,1,0,.828,1.434l2.892-1.67a.828.828,0,0,0-.828-1.434ZM89.5,13.871a.824.824,0,0,0,.413-.111l2.892-1.67a.828.828,0,1,0-.828-1.434l-2.892,1.67a.828.828,0,0,0,.415,1.545Zm-6.18-5.876a.828.828,0,0,0,1.131-.3L86.125,4.8a.828.828,0,1,0-1.434-.828l-1.67,2.892a.828.828,0,0,0,.3,1.131ZM75.863,6a.828.828,0,0,0,.828-.828V1.828a.828.828,0,0,0-1.656,0v3.34A.828.828,0,0,0,75.863,6Zm-8.592,1.7A.828.828,0,1,0,68.7,6.864l-1.67-2.892A.828.828,0,0,0,65.6,4.8ZM90.785,20.918a.828.828,0,0,0,.828.828h3.34a.828.828,0,1,0,0-1.656h-3.34A.828.828,0,0,0,90.785,20.918Zm-1.7,8.592,2.892,1.67a.828.828,0,0,0,.828-1.434l-2.892-1.67a.828.828,0,1,0-.828,1.434Zm-21.062.927a15.525,15.525,0,0,1-4.1-10.035,11.044,11.044,0,0,1,3.506-8.046,12.37,12.37,0,0,1,8.423-3.378h.02A12.37,12.37,0,0,1,84.3,12.356,11.045,11.045,0,0,1,87.8,20.4a15.526,15.526,0,0,1-4.1,10.035,5.771,5.771,0,0,0-.92,1.691,2.454,2.454,0,0,1,.312,3.558,2.457,2.457,0,0,1-1.817,4.091A5.537,5.537,0,0,1,75.83,44a5.644,5.644,0,0,1-3.775-1.435,5.423,5.423,0,0,1-1.669-2.792,2.458,2.458,0,0,1-1.82-4.091,2.455,2.455,0,0,1,.365-3.6,5.72,5.72,0,0,0-.9-1.649Zm8.4,1.158,2.326-9.66-2.307,2.313a.828.828,0,0,1-1.173,0l-2.326-2.332,2.281,9.68ZM70.4,33.251a.8.8,0,0,0,0,1.607H81.253a.8.8,0,0,0,0-1.607Zm9.148,6.527h-7.44a3.957,3.957,0,0,0,3.717,2.57A3.906,3.906,0,0,0,79.552,39.777Zm2.5-2.46a.8.8,0,0,0-.8-.8H70.4a.8.8,0,0,0,0,1.607H81.253A.8.8,0,0,0,82.056,37.318ZM65.58,20.4a13.9,13.9,0,0,0,3.7,8.957,7.421,7.421,0,0,1,1.231,2.235h3.015L70.669,19.453a.828.828,0,0,1,1.392-.775l3.8,3.812,3.8-3.812a.828.828,0,0,1,1.391.779L78.134,31.595h3.077a7.427,7.427,0,0,1,1.231-2.235,13.9,13.9,0,0,0,3.7-8.957c0-5.313-4.612-9.693-10.283-9.768C70.192,10.71,65.58,15.089,65.58,20.4ZM98.217,34.948v2.544a2.148,2.148,0,0,1-2.146,2.146h-2.4a2.686,2.686,0,0,0-1.9,4.586l1.7,1.7a2.149,2.149,0,0,1,0,3.035l-3.6,3.6a2.148,2.148,0,0,1-3.035,0l-1.7-1.7a2.686,2.686,0,0,0-4.586,1.9v2.4A2.148,2.148,0,0,1,78.407,57.3H73.319a2.148,2.148,0,0,1-2.146-2.146v-2.4a2.687,2.687,0,0,0-4.586-1.9l-1.7,1.7a2.148,2.148,0,0,1-3.035,0l-3.6-3.6a2.15,2.15,0,0,1,0-3.035l1.7-1.7a2.686,2.686,0,0,0-1.9-4.586h-2.4a2.148,2.148,0,0,1-2.146-2.146V34.948a.828.828,0,0,1,.828-.828h9.9a.828.828,0,0,1,.828.828,10.8,10.8,0,1,0,21.6,0,.828.828,0,0,1,.828-.828h9.9a.828.828,0,0,1,.828.828Zm-1.656.828H88.29a12.455,12.455,0,0,1-24.854,0H55.165v1.716a.5.5,0,0,0,.49.49h2.4a4.343,4.343,0,0,1,3.071,7.413l-1.7,1.7a.494.494,0,0,0,0,.693l3.6,3.6a.5.5,0,0,0,.693,0l1.7-1.7A4.283,4.283,0,0,1,68.459,48.4a4.407,4.407,0,0,1,1.689.342,4.275,4.275,0,0,1,2.681,4.012v2.4a.5.5,0,0,0,.49.49h5.088a.5.5,0,0,0,.49-.49v-2.4a4.342,4.342,0,0,1,7.413-3.071l1.7,1.7a.5.5,0,0,0,.693,0l3.6-3.6a.5.5,0,0,0,0-.693l-1.7-1.7a4.343,4.343,0,0,1,3.071-7.413h2.4a.5.5,0,0,0,.49-.49V35.776Z" transform="translate(575.637 4828.849)" fill="#3a1d71"/>
  </g>
</svg>
