<svg xmlns="http://www.w3.org/2000/svg" width="1331.815" height="909.555" viewBox="0 0 1331.815 909.555">
  <g id="Grupo_1101977" data-name="Grupo 1101977" transform="translate(10878.499 10491.049)">
    <path id="Unión_4" data-name="Unión 4" d="M897.665,895.487c-56.83-10.25-241.177-47.548-310.481-63.257S410.7,805.04,341.848,803.372c-67.605-2.963-140.7,7.946-214.148,20.223C59.779,835.143,6.122,863.113,0,866.387v-97.12C.636,662.68,1.685,486.677,2.585,334.394H0V36.149c9.659-5.891,67.078-16.778,120.512-24.569,41.8-6.095,81.07-9.887,94.023-10.465,108.634-4.839,162.589,7.114,219.417,16.07,56.83,10.25,241.178,47.548,310.481,63.257S920.916,107.631,989.77,109.3c67.605,2.963,140.7-7.947,214.148-20.223,68.728-11.686,122.85-40.185,127.9-42.9V90.167c-.352,40.44-.908,104.445-1.51,174.1h1.51v612.15c-19.378,13.967-106.872,26.932-214.771,31.739-21.748.969-41.288,1.4-59.111,1.4C986.722,909.554,943.117,902.65,897.665,895.487Z" transform="translate(-10878.499 -10491.049)" fill="#f2f6ff"/>
  </g>
</svg>
