<svg xmlns="http://www.w3.org/2000/svg" width="60" height="60" viewBox="0 0 60 60">
  <g id="Grupo_1103108" data-name="Grupo 1103108" transform="translate(-405 -1662)">
    <circle id="Elipse_11666" data-name="Elipse 11666" cx="30" cy="30" r="30" transform="translate(405 1662)" fill="#debefb"/>
    <g id="Grupo_1103107" data-name="Grupo 1103107" transform="translate(413 1659.004)">
      <path id="Trazado_879081" data-name="Trazado 879081" d="M62.615,55.271A2.881,2.881,0,1,0,65.5,58.152,2.885,2.885,0,0,0,62.615,55.271Zm0,4.044a1.163,1.163,0,1,1,1.166-1.163A1.165,1.165,0,0,1,62.615,59.315Z" transform="translate(-54.644 -39.588)" fill="#3a1d71"/>
      <path id="Trazado_879082" data-name="Trazado 879082" d="M276.605,55.271h-7.618a2.881,2.881,0,1,0,0,5.762h7.618a2.881,2.881,0,1,0,0-5.762Zm0,4.044h-7.618a1.163,1.163,0,1,1,0-2.325h7.618a1.163,1.163,0,1,1,0,2.325Z" transform="translate(-243.436 -39.588)" fill="#3a1d71"/>
      <path id="Trazado_879083" data-name="Trazado 879083" d="M150.287,55.271a2.881,2.881,0,1,0,2.884,2.881A2.885,2.885,0,0,0,150.287,55.271Zm0,4.044a1.163,1.163,0,1,1,1.166-1.163A1.165,1.165,0,0,1,150.287,59.315Z" transform="translate(-134.848 -39.588)" fill="#3a1d71"/>
      <path id="Trazado_879084" data-name="Trazado 879084" d="M135.119,222.188a.859.859,0,0,0-1.035.636l-1.7,7.132a.859.859,0,1,0,1.671.4l1.7-7.132A.859.859,0,0,0,135.119,222.188Z" transform="translate(-121.081 -192.265)" fill="#3a1d71"/>
      <path id="Trazado_879085" data-name="Trazado 879085" d="M198.725,237.073a.859.859,0,0,0,1.213-.07l2.409-2.7a1.192,1.192,0,0,0,0-1.575l-2.411-2.707a.859.859,0,0,0-1.283,1.143l2.094,2.35-2.094,2.35A.859.859,0,0,0,198.725,237.073Z" transform="translate(-181.533 -199.185)" fill="#3a1d71"/>
      <path id="Trazado_879086" data-name="Trazado 879086" d="M60.975,229.948a.859.859,0,0,0-1.213.07l-2.409,2.7a1.191,1.191,0,0,0,0,1.575L59.763,237a.859.859,0,0,0,1.283-1.143l-2.094-2.35,2.094-2.35A.859.859,0,0,0,60.975,229.948Z" transform="translate(-52.195 -199.186)" fill="#3a1d71"/>
      <path id="Trazado_879087" data-name="Trazado 879087" d="M41.69,39.9h-.319a9.046,9.046,0,0,0-.648-1.563l.228-.228a1.925,1.925,0,0,0,0-2.723l-.443-.443v-18.3C40.51,14.081,38.7,12,36.479,12H4.031C1.808,12,0,14.081,0,16.643v24.01C0,43.216,1.808,45.3,4.031,45.3h5.04a.859.859,0,0,0,0-1.718H4.031c-1.254,0-2.313-1.341-2.313-2.929V25.068H38.791v8.681a1.953,1.953,0,0,0-.3-.025h0a1.9,1.9,0,0,0-1.356.562l-.232.231a9.069,9.069,0,0,0-1.588-.656v-.306a1.928,1.928,0,0,0-1.926-1.926H31.834a1.927,1.927,0,0,0-1.924,1.926v.327a9.119,9.119,0,0,0-1.551.65l-.223-.222a1.907,1.907,0,0,0-1.359-.564h0a1.913,1.913,0,0,0-1.361.563l-1.1,1.1a1.925,1.925,0,0,0,0,2.72l.237.238a9.072,9.072,0,0,0-.633,1.534h-.326a1.925,1.925,0,0,0-1.924,1.923v1.556a1.936,1.936,0,0,0,.011.2h-5a.859.859,0,1,0,0,1.718h7.241a9.019,9.019,0,0,0,.643,1.547l-.232.231a1.928,1.928,0,0,0,0,2.719l1.1,1.1a1.907,1.907,0,0,0,1.359.564h0a1.912,1.912,0,0,0,1.361-.563l.23-.23a9.077,9.077,0,0,0,1.553.643v.332a1.927,1.927,0,0,0,1.924,1.926H33.42a1.927,1.927,0,0,0,1.924-1.926v-.33a9.053,9.053,0,0,0,1.559-.645l.229.228a1.907,1.907,0,0,0,1.358.565h0a1.913,1.913,0,0,0,1.362-.563l1.1-1.1a1.925,1.925,0,0,0,0-2.723l-.229-.229a9.071,9.071,0,0,0,.642-1.547h.325a1.927,1.927,0,0,0,1.926-1.923V41.821A1.926,1.926,0,0,0,41.69,39.9ZM1.718,23.35V16.643c0-1.587,1.059-2.929,2.313-2.929H36.479c1.254,0,2.313,1.341,2.313,2.929V23.35H1.718ZM41.9,43.377a.212.212,0,0,1-.208.2h-.982a.859.859,0,0,0-.837.667,7.375,7.375,0,0,1-.947,2.283.859.859,0,0,0,.12,1.065l.7.695a.206.206,0,0,1,.06.146.2.2,0,0,1-.06.145l-1.1,1.1a.207.207,0,0,1-.147.06h0a.2.2,0,0,1-.146-.061l-.7-.695a.859.859,0,0,0-1.064-.119,7.361,7.361,0,0,1-2.292.949.859.859,0,0,0-.668.838v.989a.212.212,0,0,1-.205.207H31.863a.212.212,0,0,1-.205-.207v-.992a.859.859,0,0,0-.67-.838,7.371,7.371,0,0,1-2.288-.947.859.859,0,0,0-1.063.121l-.7.695a.207.207,0,0,1-.147.06h0a.2.2,0,0,1-.145-.06l-1.1-1.1a.212.212,0,0,1,0-.289l.7-.695a.859.859,0,0,0,.12-1.067,7.322,7.322,0,0,1-.949-2.281.859.859,0,0,0-.837-.667h-.987a.208.208,0,0,1-.205-.2V41.821a.208.208,0,0,1,.205-.2h.985a.859.859,0,0,0,.838-.668,7.369,7.369,0,0,1,.936-2.272.859.859,0,0,0-.121-1.061l-.7-.7a.2.2,0,0,1-.058-.142.206.206,0,0,1,.06-.146l1.1-1.1a.207.207,0,0,1,.147-.06h0a.2.2,0,0,1,.146.061l.693.69a.859.859,0,0,0,1.066.117,7.411,7.411,0,0,1,2.285-.958.859.859,0,0,0,.663-.836v-.982a.209.209,0,0,1,.205-.207h1.555a.21.21,0,0,1,.208.207v.967a.859.859,0,0,0,.672.839,7.365,7.365,0,0,1,2.318.956A.859.859,0,0,0,37.65,36.2l.7-.7a.2.2,0,0,1,.143-.058h0a.207.207,0,0,1,.147.06l1.1,1.1a.206.206,0,0,1,.06.146.2.2,0,0,1-.061.145l-.7.7a.859.859,0,0,0-.118,1.065,7.353,7.353,0,0,1,.951,2.295.859.859,0,0,0,.838.668h.978a.212.212,0,0,1,.208.2Z" fill="#3a1d71"/>
      <path id="Trazado_879088" data-name="Trazado 879088" d="M326.809,309.652a5.246,5.246,0,1,0,5.248,5.248A5.255,5.255,0,0,0,326.809,309.652Zm0,8.775a3.528,3.528,0,1,1,3.529-3.527A3.534,3.534,0,0,1,326.809,318.427Z" transform="translate(-294.166 -272.299)" fill="#3a1d71"/>
      <path id="Trazado_879089" data-name="Trazado 879089" d="M142.048,382.778h-.017a.859.859,0,1,0,0,1.718h.017a.859.859,0,1,0,0-1.718Z" transform="translate(-129.146 -339.196)" fill="#3a1d71"/>
    </g>
  </g>
</svg>
