<svg xmlns="http://www.w3.org/2000/svg" width="60" height="60" viewBox="0 0 60 60">
  <g id="Grupo_1103110" data-name="Grupo 1103110" transform="translate(-615 -1662)">
    <circle id="Elipse_11667" data-name="Elipse 11667" cx="30" cy="30" r="30" transform="translate(615 1662)" fill="#debefb"/>
    <g id="Grupo_1103109" data-name="Grupo 1103109" transform="translate(623.442 1669.156)">
      <path id="Trazado_879090" data-name="Trazado 879090" d="M40.589,8.338H29.45a2.535,2.535,0,0,0-1.288-1.724,2.529,2.529,0,0,0-.629-2.524l-.716-.716a2.528,2.528,0,0,0-2.524-.629,2.529,2.529,0,0,0-2.23-1.34H21.051a2.529,2.529,0,0,0-2.23,1.34,2.529,2.529,0,0,0-2.524.63l-.716.716a2.529,2.529,0,0,0-.63,2.524,2.535,2.535,0,0,0-1.288,1.724H2.526A2.529,2.529,0,0,0,0,10.864V33.626a2.529,2.529,0,0,0,2.526,2.526H17.479v3.086a4.215,4.215,0,0,0-3.967,4.2.842.842,0,0,0,.842.842H28.761a.842.842,0,0,0,.842-.842,4.215,4.215,0,0,0-3.967-4.2V36.153h4.242a.842.842,0,1,0,0-1.684H2.526a.843.843,0,0,1-.842-.842V31.909H41.431v1.718a.843.843,0,0,1-.842.842H37.551a.842.842,0,0,0,0,1.684h3.037a2.529,2.529,0,0,0,2.526-2.526V10.864a2.529,2.529,0,0,0-2.526-2.526ZM27.774,42.6H15.34a2.531,2.531,0,0,1,2.382-1.684h7.67A2.531,2.531,0,0,1,27.774,42.6Zm-3.823-3.368H19.163V36.153h4.788ZM15.3,8.843A.843.843,0,0,1,16.14,8h.131a.842.842,0,0,0,.6-1.437l-.093-.093a.843.843,0,0,1,0-1.191l.716-.716a.843.843,0,0,1,1.191,0l.092.092a.842.842,0,0,0,1.438-.6V3.931a.843.843,0,0,1,.842-.842h1.012a.843.843,0,0,1,.842.842v.131a.842.842,0,0,0,1.438.6l.092-.092a.843.843,0,0,1,1.191,0l.716.716a.843.843,0,0,1,0,1.191l-.092.092A.842.842,0,0,0,26.845,8h.131a.843.843,0,0,1,.842.842V9.855a.843.843,0,0,1-.842.842h-.131a.842.842,0,0,0-.6,1.438l.092.092a.843.843,0,0,1,0,1.191l-.716.716a.843.843,0,0,1-1.191,0l-.092-.092a.842.842,0,0,0-1.438.6v.131a.843.843,0,0,1-.842.842H21.052a.843.843,0,0,1-.842-.842v-.131a.842.842,0,0,0-1.438-.6l-.092.092a.843.843,0,0,1-1.191,0l-.716-.716a.843.843,0,0,1,0-1.191l.092-.092a.842.842,0,0,0-.6-1.437H16.14a.843.843,0,0,1-.842-.842ZM1.684,30.225V10.864a.843.843,0,0,1,.842-.842H13.619a2.53,2.53,0,0,0,1.334,2.063,2.529,2.529,0,0,0,.629,2.524l.716.716a2.528,2.528,0,0,0,2.524.629,2.528,2.528,0,0,0,2.23,1.34h1.012a2.529,2.529,0,0,0,2.23-1.34,2.529,2.529,0,0,0,2.524-.629l.716-.716a2.529,2.529,0,0,0,.629-2.524A2.53,2.53,0,0,0,29.5,10.022H40.589a.843.843,0,0,1,.842.842V30.224H1.684Z" fill="#3a1d71"/>
      <path id="Trazado_879091" data-name="Trazado 879091" d="M219.851,62.922a3.324,3.324,0,1,0-3.324-3.324A3.328,3.328,0,0,0,219.851,62.922Zm0-4.964a1.64,1.64,0,1,1-1.64,1.64A1.642,1.642,0,0,1,219.851,57.958Z" transform="translate(-198.294 -50.249)" fill="#3a1d71"/>
      <path id="Trazado_879092" data-name="Trazado 879092" d="M271.272,198.424a5.272,5.272,0,1,0,5.272,5.272A5.278,5.278,0,0,0,271.272,198.424Zm0,8.86a3.588,3.588,0,1,1,3.588-3.588A3.592,3.592,0,0,1,271.272,207.284Z" transform="translate(-243.6 -180.428)" fill="#3a1d71"/>
      <path id="Trazado_879093" data-name="Trazado 879093" d="M126.054,198.424a5.272,5.272,0,1,0,5.272,5.272A5.278,5.278,0,0,0,126.054,198.424Zm0,8.86a3.588,3.588,0,1,1,3.588-3.588,3.592,3.592,0,0,1-3.588,3.588Z" transform="translate(-110.611 -180.428)" fill="#3a1d71"/>
      <path id="Trazado_879094" data-name="Trazado 879094" d="M307.777,238.039a.842.842,0,0,0-1.191,0l-.52.52-.52-.52a.842.842,0,1,0-1.191,1.191l.52.52-.52.52a.842.842,0,1,0,1.191,1.191l.52-.52.52.52a.842.842,0,1,0,1.191-1.191l-.52-.52.52-.52a.842.842,0,0,0,0-1.191Z" transform="translate(-278.501 -216.481)" fill="#3a1d71"/>
      <path id="Trazado_879095" data-name="Trazado 879095" d="M160.236,239.048a.842.842,0,0,0-1.173.2l-.868,1.232-.41-.367a.842.842,0,0,0-1.123,1.255l1.115,1a.842.842,0,0,0,1.25-.142l1.413-2.005A.842.842,0,0,0,160.236,239.048Z" transform="translate(-143.213 -217.491)" fill="#3a1d71"/>
      <circle id="Elipse_11670" data-name="Elipse 11670" cx="0.842" cy="0.842" r="0.842" transform="translate(32.865 34.468)" fill="#3a1d71"/>
    </g>
  </g>
</svg>
