<svg xmlns="http://www.w3.org/2000/svg" width="130" height="130" viewBox="0 0 130 130">
  <g id="Grupo_1102308" data-name="Grupo 1102308" transform="translate(-390 -8162)">
    <rect id="Rectángulo_402592" data-name="Rectángulo 402592" width="130" height="130" rx="21" transform="translate(390 8162)" fill="#f7eefe"/>
    <g id="Grupo_1103093" data-name="Grupo 1103093" transform="translate(414.375 8186.854)">
      <g id="Grupo_1103080" data-name="Grupo 1103080" transform="translate(0.573 12.95)">
        <g id="Grupo_1103079" data-name="Grupo 1103079">
          <path id="Trazado_879017" data-name="Trazado 879017" d="M65.646,136.981l-3-9a9.065,9.065,0,0,0-6.979-6.052l-8.655-1.575v-.671a13.033,13.033,0,0,0,3.86-3.428h2.615a3.89,3.89,0,0,0,3.885-3.885V96.835a16.835,16.835,0,1,0-33.67,0V105.9a5.189,5.189,0,0,0,4.13,5.073,12.974,12.974,0,0,0,6.23,8.715v.671l-8.656,1.575a9.064,9.064,0,0,0-6.978,6.052l-.518,1.555L13.5,125.13a1.3,1.3,0,0,1,0-1.832l5.115-5.114-9.6-9.6-5.781,5.781a9.065,9.065,0,0,0,0,12.819l17.5,17.5a9.061,9.061,0,0,0,12.779.039l6.308-5.78-1.967-1.963ZM54.784,112.375a1.3,1.3,0,0,1-1.3,1.3H52.4a12.863,12.863,0,0,0,.844-2.7,5.13,5.13,0,0,0,1.54-.613Zm-1.3-4.245v-4.46a2.568,2.568,0,0,1,0,4.46Zm-25.9,0a2.568,2.568,0,0,1,0-4.46Zm0-8.705V100.9a5.136,5.136,0,0,0-1.3.536V96.835a14.245,14.245,0,1,1,28.49,0v4.605a5.089,5.089,0,0,0-1.3-.536V99.425h-1.3a14.248,14.248,0,0,1-10.139-4.2l-1.516-1.516-1.516,1.516a14.248,14.248,0,0,1-10.139,4.2Zm2.59,9.065v-6.524a16.79,16.79,0,0,0,10.36-4.6,16.783,16.783,0,0,0,10.36,4.6v6.524a10.282,10.282,0,0,1-1.4,5.18H40.539v2.59h6.83a10.344,10.344,0,0,1-17.19-7.77Zm14.245,12.353v.061l-3.885,3.885L36.654,120.9v-.061a12.94,12.94,0,0,0,7.77,0ZM20.886,128.8a6.477,6.477,0,0,1,4.985-4.324l9.052-1.645,5.616,5.616,5.615-5.615,9.051,1.645a6.475,6.475,0,0,1,4.985,4.324l1.864,5.585H35.267l-5.044-5.044-5.6,5.07a1.323,1.323,0,0,1-1.831,0l-2.828-2.828ZM9.014,112.245l5.939,5.939-1.406,1.406-5.939-5.939Zm22.708,30.612a6.476,6.476,0,0,1-9.157,0l-17.5-17.5a6.476,6.476,0,0,1,0-9.157l.712-.712,5.939,5.939-.047.047a3.892,3.892,0,0,0,0,5.495l9.287,9.287a3.865,3.865,0,0,0,2.748,1.138,3.813,3.813,0,0,0,2.7-1.093l.1-.087,5.966,5.966Zm2.655-2.435-5.953-5.953,1.711-1.546,5.943,5.943Z" transform="translate(-0.58 -80)" fill="#a854f3"/>
        </g>
      </g>
      <g id="Grupo_1103082" data-name="Grupo 1103082" transform="translate(54.778)">
        <g id="Grupo_1103081" data-name="Grupo 1103081">
          <path id="Trazado_879018" data-name="Trazado 879018" d="M357.443,0h-18.13a3.89,3.89,0,0,0-3.885,3.885v10.36a3.89,3.89,0,0,0,3.885,3.885h3.459l-1.339,7.81,12.5-7.81h3.513a3.89,3.89,0,0,0,3.885-3.885V3.885A3.89,3.89,0,0,0,357.443,0Zm1.3,14.245a1.3,1.3,0,0,1-1.3,1.3h-4.257l-8.225,5.14.882-5.14h-6.531a1.3,1.3,0,0,1-1.3-1.3V3.885a1.3,1.3,0,0,1,1.3-1.3h18.13a1.3,1.3,0,0,1,1.3,1.3Z" transform="translate(-335.428)" fill="#a854f3"/>
        </g>
      </g>
      <g id="Grupo_1103084" data-name="Grupo 1103084" transform="translate(59.958 5.18)">
        <g id="Grupo_1103083" data-name="Grupo 1103083">
          <rect id="Rectángulo_403412" data-name="Rectángulo 403412" width="15.54" height="2.59" fill="#a854f3"/>
        </g>
      </g>
      <g id="Grupo_1103086" data-name="Grupo 1103086" transform="translate(59.958 10.36)">
        <g id="Grupo_1103085" data-name="Grupo 1103085">
          <rect id="Rectángulo_403413" data-name="Rectángulo 403413" width="10.36" height="2.59" fill="#a854f3"/>
        </g>
      </g>
      <g id="Grupo_1103088" data-name="Grupo 1103088" transform="translate(72.908 10.36)">
        <g id="Grupo_1103087" data-name="Grupo 1103087">
          <rect id="Rectángulo_403414" data-name="Rectángulo 403414" width="2.59" height="2.59" fill="#a854f3"/>
        </g>
      </g>
      <g id="Grupo_1103090" data-name="Grupo 1103090" transform="translate(0.572 3.885)">
        <g id="Grupo_1103089" data-name="Grupo 1103089">
          <path id="Trazado_879019" data-name="Trazado 879019" d="M40.532,24A36.237,36.237,0,0,0,5.247,52.031L2.793,47.94.572,49.272l4.552,7.585,7.585-4.552-1.333-2.221L7.867,52.19a33.679,33.679,0,0,1,42.642-24.1l.767-2.473A36.237,36.237,0,0,0,40.532,24Z" transform="translate(-0.572 -24)" fill="#a854f3"/>
        </g>
      </g>
      <g id="Grupo_1103092" data-name="Grupo 1103092" transform="translate(66.693 24.122)">
        <g id="Grupo_1103091" data-name="Grupo 1103091">
          <path id="Trazado_879020" data-name="Trazado 879020" d="M422.391,153.568l-7.585-4.552-4.551,7.586,2.221,1.333,2.266-3.778a33.7,33.7,0,0,1-5.707,32.081l2.011,1.632a36.265,36.265,0,0,0,6.206-34.365l3.806,2.283Z" transform="translate(-409.036 -149.016)" fill="#a854f3"/>
        </g>
      </g>
    </g>
  </g>
</svg>
