<svg xmlns="http://www.w3.org/2000/svg" width="61.215" height="61.223" viewBox="0 0 61.215 61.223">
  <g id="Grupo_1102933" data-name="Grupo 1102933" transform="translate(-8 -7.938)">
    <path id="Trazado_878595" data-name="Trazado 878595" d="M65.265,22.756H63.983a8.886,8.886,0,1,0-13.233,0H38.607V12.882a.987.987,0,0,0-.987-.987H33.671a.987.987,0,0,0-.987.987v9.873H31.7V8.933a.987.987,0,0,0-.987-.987H26.759a.987.987,0,0,0-.987.987V22.756h-.987V15.844a.987.987,0,0,0-.987-.987H19.848a.987.987,0,0,0-.987.987v6.911H11.949A3.954,3.954,0,0,0,8,26.7v29.62a3.954,3.954,0,0,0,3.949,3.949H32.3l-1.317,3.949H27.747a.987.987,0,0,0-.987.987v1.975H16.886a.987.987,0,0,0,0,1.975H60.329a.987.987,0,0,0,0-1.975H50.455V65.211a.987.987,0,0,0-.987-.987H46.231l-1.317-3.949H65.265a3.954,3.954,0,0,0,3.949-3.949V26.7A3.954,3.954,0,0,0,65.265,22.756ZM58.354,9.992a6.925,6.925,0,0,1,5.852,5.852H58.354Zm-.579,7.827h6.431A6.907,6.907,0,0,1,53.23,22.364Zm-7.32-.987a6.922,6.922,0,0,1,5.924-6.84v6.431l-4.545,4.545a6.875,6.875,0,0,1-1.379-4.137Zm-15.8-2.962h1.975V32.629H34.658ZM31.7,24.73h.987v7.9H31.7ZM27.747,9.92h1.975V32.629H27.747ZM24.785,24.73h.987v7.9h-.987Zm-3.949-7.9H22.81v15.8H20.835ZM48.481,66.2v.987H28.734V66.2ZM33.066,64.224l1.317-3.949h8.449l1.317,3.949Zm34.174-7.9A1.977,1.977,0,0,1,65.265,58.3H11.949a1.977,1.977,0,0,1-1.975-1.975V54.35H67.24Zm0-3.949H9.975V26.7a1.977,1.977,0,0,1,1.975-1.975h6.911v7.9h-.987V26.7a.987.987,0,0,0-.987-.987H12.937a.987.987,0,0,0-.987.987v6.911a.987.987,0,0,0,.987.987H44.531a.987.987,0,0,0,.987-.987V26.7a.987.987,0,0,0-.987-.987H40.582a.987.987,0,0,0-.987.987v5.924h-.987v-7.9H53.3a8.853,8.853,0,0,0,8.126,0h3.836A1.977,1.977,0,0,1,67.24,26.7ZM15.9,27.692v4.937H13.924V27.692Zm25.671,4.937V27.692h1.975v4.937Z" fill="#fff"/>
    <path id="Trazado_878596" data-name="Trazado 878596" d="M46.911,392H40.987a.987.987,0,0,0,0,1.975h5.924a.987.987,0,0,0,0-1.975Z" transform="translate(-28.051 -336.662)" fill="#fff"/>
    <path id="Trazado_878597" data-name="Trazado 878597" d="M113.975,392h-.987a.987.987,0,0,0,0,1.975h.987a.987.987,0,0,0,0-1.975Z" transform="translate(-91.165 -336.662)" fill="#fff"/>
    <path id="Trazado_878598" data-name="Trazado 878598" d="M336.987,165.924a.984.984,0,0,0,.7-.289l3.66-3.66h8.477a.987.987,0,1,0,0-1.975h-8.886a.987.987,0,0,0-.7.289l-3.949,3.949a.987.987,0,0,0,.7,1.686Z" transform="translate(-287.519 -133.295)" fill="#fff"/>
    <path id="Trazado_878599" data-name="Trazado 878599" d="M90.328,246.911a2.962,2.962,0,0,0-2.561,1.477l-10.336-6.03a2.962,2.962,0,0,0-5.814.074l-10.4,7.8a2.959,2.959,0,0,0-5.119.269l-10.281-4.284a2.963,2.963,0,1,0-.242,2.038l10.281,4.284a2.961,2.961,0,0,0,5.793-.163l10.4-7.8a2.959,2.959,0,0,0,5.043-.13l10.336,6.03a2.962,2.962,0,1,0,2.9-3.566Zm-46.4,0a.99.99,0,1,1-.991-.992.99.99,0,0,1,.991.992Zm14.81,5.919a.989.989,0,0,1-.987-.987v0a.987.987,0,1,1,.987.992Zm15.8-8.886a.987.987,0,1,1,.987-.987A.987.987,0,0,1,74.531,243.949Zm15.8,6.911a.987.987,0,1,1,.987-.987A.987.987,0,0,1,90.328,250.861Z" transform="translate(-28.025 -203.422)" fill="#fff"/>
    <path id="Trazado_878600" data-name="Trazado 878600" d="M327.9,344h-6.911a.987.987,0,1,0,0,1.975H327.9a.987.987,0,1,0,0-1.975Z" transform="translate(-273.494 -294.586)" fill="#fff"/>
    <path id="Trazado_878601" data-name="Trazado 878601" d="M355.949,320h-2.962a.987.987,0,0,0,0,1.975h2.962a.987.987,0,1,0,0-1.975Z" transform="translate(-301.545 -273.548)" fill="#fff"/>
    <path id="Trazado_878602" data-name="Trazado 878602" d="M40.987,233.975H51.848a.987.987,0,0,0,0-1.975H40.987a.987.987,0,0,0,0,1.975Z" transform="translate(-28.051 -196.409)" fill="#fff"/>
    <path id="Trazado_878603" data-name="Trazado 878603" d="M152.987,233.975h.987a.987.987,0,1,0,0-1.975h-.987a.987.987,0,0,0,0,1.975Z" transform="translate(-126.228 -196.409)" fill="#fff"/>
  </g>
</svg>
