<svg xmlns="http://www.w3.org/2000/svg" width="55.209" height="69" viewBox="0 0 55.209 69">
  <g id="Grupo_1102935" data-name="Grupo 1102935" transform="translate(-69.971 -25)">
    <path id="Trazado_878613" data-name="Trazado 878613" d="M114.7,155.7H74.17a4.2,4.2,0,0,1-4.2-4.2V102.068a4.2,4.2,0,0,1,4.2-4.2h8.987A1.235,1.235,0,0,1,84.392,99.1v7.111h20.084V99.1a1.235,1.235,0,0,1,1.235-1.235H114.7a4.2,4.2,0,0,1,4.2,4.2v19.765a1.235,1.235,0,1,1-2.47,0V102.068a1.731,1.731,0,0,0-1.729-1.729h-7.752v7.111a1.235,1.235,0,0,1-1.235,1.235H83.157a1.235,1.235,0,0,1-1.235-1.235v-7.111H74.17a1.731,1.731,0,0,0-1.729,1.729V151.5a1.731,1.731,0,0,0,1.729,1.729H114.7a1.731,1.731,0,0,0,1.729-1.729v-7.746a1.235,1.235,0,1,1,2.47,0V151.5A4.2,4.2,0,0,1,114.7,155.7Z" transform="translate(0 -61.696)" fill="#fff"/>
    <path id="Trazado_878614" data-name="Trazado 878614" d="M144.417,150.041H109.8a1.235,1.235,0,0,1-1.235-1.235V99.1a1.235,1.235,0,0,1,1.235-1.235h6.034a1.235,1.235,0,0,1,1.235,1.235v7.111h20.084V99.1a1.235,1.235,0,0,1,1.235-1.235h6.034a1.235,1.235,0,0,1,1.235,1.235v17.525a1.235,1.235,0,1,1-2.47,0v-16.29h-3.564v7.111a1.235,1.235,0,0,1-1.235,1.235H115.83a1.235,1.235,0,0,1-1.235-1.235v-7.111h-3.564v47.232h32.151v-7.865a1.235,1.235,0,1,1,2.47,0v9.1A1.235,1.235,0,0,1,144.417,150.041Z" transform="translate(-32.673 -61.696)" fill="#fff"/>
    <path id="Trazado_878615" data-name="Trazado 878615" d="M171.7,46.989H149.146a1.235,1.235,0,0,1-1.235-1.235V34.162a1.235,1.235,0,0,1,1.235-1.235h2.2a9.164,9.164,0,0,1,18.16,0h2.2a1.235,1.235,0,0,1,1.235,1.235V45.754A1.235,1.235,0,0,1,171.7,46.989Zm-21.319-2.47h20.084V35.4h-2.114a1.235,1.235,0,0,1-1.235-1.235,6.693,6.693,0,0,0-13.386,0,1.235,1.235,0,0,1-1.235,1.235h-2.114Z" transform="translate(-65.989)" fill="#fff"/>
    <path id="Trazado_878616" data-name="Trazado 878616" d="M200.755,61.209A5.208,5.208,0,1,1,205.962,56,5.214,5.214,0,0,1,200.755,61.209Zm0-7.947A2.738,2.738,0,1,0,203.492,56,2.741,2.741,0,0,0,200.755,53.262Z" transform="translate(-106.321 -21.838)" fill="#fff"/>
    <path id="Trazado_878617" data-name="Trazado 878617" d="M167.764,202.539H143.47a1.235,1.235,0,1,1,0-2.47h24.294a1.235,1.235,0,1,1,0,2.47Z" transform="translate(-61.183 -148.225)" fill="#fff"/>
    <path id="Trazado_878618" data-name="Trazado 878618" d="M167.764,237.612H143.47a1.235,1.235,0,1,1,0-2.47h24.294a1.235,1.235,0,1,1,0,2.47Z" transform="translate(-61.183 -177.92)" fill="#fff"/>
    <path id="Trazado_878619" data-name="Trazado 878619" d="M162.552,272.685H143.47a1.235,1.235,0,1,1,0-2.47h19.082a1.235,1.235,0,0,1,0,2.47Z" transform="translate(-61.183 -207.615)" fill="#fff"/>
    <path id="Trazado_878620" data-name="Trazado 878620" d="M161.578,307.759H143.47a1.235,1.235,0,1,1,0-2.47h18.108a1.235,1.235,0,0,1,0,2.47Z" transform="translate(-61.184 -237.311)" fill="#fff"/>
    <path id="Trazado_878621" data-name="Trazado 878621" d="M162.552,342.832H143.47a1.235,1.235,0,1,1,0-2.47h19.082a1.235,1.235,0,0,1,0,2.47Z" transform="translate(-61.183 -267.007)" fill="#fff"/>
    <path id="Trazado_878622" data-name="Trazado 878622" d="M167.764,377.912H143.47a1.235,1.235,0,1,1,0-2.47h24.294a1.235,1.235,0,0,1,0,2.47Z" transform="translate(-61.183 -296.708)" fill="#fff"/>
    <path id="Trazado_878623" data-name="Trazado 878623" d="M301.774,263.91a10.649,10.649,0,1,1,10.649-10.649A10.661,10.661,0,0,1,301.774,263.91Zm0-18.829a8.179,8.179,0,1,0,8.179,8.18A8.189,8.189,0,0,0,301.774,245.081Z" transform="translate(-187.244 -184.244)" fill="#fff"/>
    <path id="Trazado_878624" data-name="Trazado 878624" d="M327.391,294.733a1.237,1.237,0,0,1-.836-.325l-3.987-3.663a1.235,1.235,0,0,1,1.671-1.82l2.869,2.636,3.395-5.7a1.235,1.235,0,1,1,2.122,1.264l-4.172,7a1.237,1.237,0,0,1-.882.59A1.249,1.249,0,0,1,327.391,294.733Z" transform="translate(-213.527 -220.356)" fill="#fff"/>
  </g>
</svg>
