<svg xmlns="http://www.w3.org/2000/svg" width="130" height="130" viewBox="0 0 130 130">
  <g id="Grupo_1102309" data-name="Grupo 1102309" transform="translate(-390 -8162)">
    <rect id="Rectángulo_402592" data-name="Rectángulo 402592" width="130" height="130" rx="21" transform="translate(390 8162)" fill="#f7eefe"/>
    <g id="Grupo_1103094" data-name="Grupo 1103094" transform="translate(387.81 8185.348)">
      <path id="Trazado_879021" data-name="Trazado 879021" d="M102.661,13.83H96.966V8.135a1.22,1.22,0,0,0-1.22-1.22H90.051V1.22A1.22,1.22,0,0,0,88.831,0h-50.6a1.22,1.22,0,0,0-1.22,1.22V55.971H31.72a1.22,1.22,0,0,0-1.22,1.22V60.12a9.366,9.366,0,0,0,9.356,9.356h4.068v5.695a1.22,1.22,0,0,0,1.22,1.22h5.695v5.695a1.22,1.22,0,0,0,1.22,1.22H76.546a1.22,1.22,0,0,0,0-2.441H53.279V76.391H95.746a1.22,1.22,0,0,0,1.22-1.22v-19.2a1.22,1.22,0,1,0-2.441,0V73.95H46.364V69.476H88.831a1.22,1.22,0,0,0,1.22-1.22V9.356h4.474V50.439a1.22,1.22,0,1,0,2.441,0V16.271h4.474V80.865H82.078a1.22,1.22,0,0,0,0,2.441h20.582a1.22,1.22,0,0,0,1.22-1.22V15.05A1.22,1.22,0,0,0,102.661,13.83ZM87.61,67.035H80.858a6.923,6.923,0,0,1-6.915-6.915V57.192a1.22,1.22,0,0,0-1.22-1.22H64.262a1.22,1.22,0,0,0,0,2.441H71.5V60.12a9.334,9.334,0,0,0,3.061,6.915H39.856a6.923,6.923,0,0,1-6.915-6.915V58.412H58.567a1.22,1.22,0,0,0,0-2.441H39.449V2.441H87.61Z" fill="#a854f3"/>
      <path id="Trazado_879022" data-name="Trazado 879022" d="M106.72,67.061h15.62a1.22,1.22,0,0,0,1.22-1.22V50.22A1.22,1.22,0,0,0,122.34,49H106.72a1.22,1.22,0,0,0-1.22,1.22V65.84A1.22,1.22,0,0,0,106.72,67.061Zm1.22-15.62H121.12V64.62H107.941Z" transform="translate(-62.797 -41.027)" fill="#a854f3"/>
      <path id="Trazado_879023" data-name="Trazado 879023" d="M255.618,132h-17.9a1.22,1.22,0,1,0,0,2.441h17.9a1.22,1.22,0,1,0,0-2.441Z" transform="translate(-172.482 -110.523)" fill="#a854f3"/>
      <path id="Trazado_879024" data-name="Trazado 879024" d="M170.5,201.22a1.22,1.22,0,0,0,1.22,1.22h18.06a1.22,1.22,0,1,0,0-2.441H171.72A1.22,1.22,0,0,0,170.5,201.22Z" transform="translate(-117.221 -167.459)" fill="#a854f3"/>
      <path id="Trazado_879025" data-name="Trazado 879025" d="M255.618,97h-17.9a1.22,1.22,0,1,0,0,2.441h17.9a1.22,1.22,0,1,0,0-2.441Z" transform="translate(-172.482 -81.217)" fill="#a854f3"/>
      <path id="Trazado_879026" data-name="Trazado 879026" d="M255.618,62h-17.9a1.22,1.22,0,1,0,0,2.441h17.9a1.22,1.22,0,0,0,0-2.441Z" transform="translate(-172.482 -51.912)" fill="#a854f3"/>
      <path id="Trazado_879027" data-name="Trazado 879027" d="M145.933,289H106.72a1.22,1.22,0,1,0,0,2.441h39.212a1.22,1.22,0,1,0,0-2.441Z" transform="translate(-62.797 -241.978)" fill="#a854f3"/>
      <path id="Trazado_879028" data-name="Trazado 879028" d="M238.035,244H216.72a1.22,1.22,0,1,0,0,2.441h21.315a1.22,1.22,0,1,0,0-2.441Z" transform="translate(-154.899 -204.299)" fill="#a854f3"/>
      <path id="Trazado_879029" data-name="Trazado 879029" d="M106.22,246.441H118.5a1.22,1.22,0,1,0,0-2.441H106.22a1.22,1.22,0,1,0,0,2.441Z" transform="translate(-62.378 -204.299)" fill="#a854f3"/>
    </g>
  </g>
</svg>
