<svg xmlns="http://www.w3.org/2000/svg" width="60" height="60" viewBox="0 0 60 60">
  <g id="Grupo_1103112" data-name="Grupo 1103112" transform="translate(-826 -1662)">
    <circle id="Elipse_11669" data-name="Elipse 11669" cx="30" cy="30" r="30" transform="translate(826 1662)" fill="#debefb"/>
    <g id="Grupo_1103111" data-name="Grupo 1103111" transform="translate(833 1635.852)">
      <path id="Trazado_879096" data-name="Trazado 879096" d="M181.831,94.361h5.819a.894.894,0,1,0,0-1.789h-5.819a.894.894,0,0,0,0,1.789Z" transform="translate(-164.754 -51.378)" fill="#3a1d71"/>
      <path id="Trazado_879097" data-name="Trazado 879097" d="M187.651,139.258c-3.336,0-6.714,1.117-6.714,3.251v7.834c0,2.134,3.377,3.251,6.714,3.251s6.714-1.117,6.714-3.251v-7.834C194.364,140.375,190.987,139.258,187.651,139.258Zm4.925,7.085c0,.376-1.693,1.462-4.925,1.462s-4.925-1.087-4.925-1.462v-1.556a12.94,12.94,0,0,0,9.85,0Zm-4.925-5.3c3.232,0,4.925,1.087,4.925,1.462s-1.693,1.462-4.925,1.462-4.925-1.087-4.925-1.462S184.419,141.047,187.651,141.047Zm0,10.759c-3.232,0-4.925-1.087-4.925-1.462V148.62a12.939,12.939,0,0,0,9.85,0v1.723C192.576,150.719,190.882,151.806,187.651,151.806Z" transform="translate(-164.754 -93.889)" fill="#3a1d71"/>
      <path id="Trazado_879098" data-name="Trazado 879098" d="M44.342,68.692h-.865V49.381A3.582,3.582,0,0,0,39.9,45.8H33.764V41a.894.894,0,0,0-.262-.632l-3.959-3.959a.9.9,0,0,0-.632-.262H12.923a.894.894,0,0,0-.894.894V45.8H5.893a3.582,3.582,0,0,0-3.578,3.578V68.692H1.451A1.453,1.453,0,0,0,0,70.143v.834a4.5,4.5,0,0,0,4.5,4.5H6.973a.894.894,0,1,0,0-1.789H4.5a2.711,2.711,0,0,1-2.708-2.708v-.5H44v.5A2.712,2.712,0,0,1,41.3,73.685H15.023a.894.894,0,1,0,0,1.789H41.3a4.5,4.5,0,0,0,4.5-4.5v-.834A1.453,1.453,0,0,0,44.342,68.692ZM31.8,41.194H28.718V38.113ZM13.818,37.936H26.929v4.152a.894.894,0,0,0,.894.894h4.152v19.3H13.818ZM4.1,68.692V49.381a1.791,1.791,0,0,1,1.789-1.789h6.136V63.18a.894.894,0,0,0,.894.894H32.87a.894.894,0,0,0,.894-.894V47.592H39.9a1.791,1.791,0,0,1,1.789,1.789V68.692H4.1Z" fill="#3a1d71"/>
      <circle id="Elipse_11671" data-name="Elipse 11671" cx="0.894" cy="0.894" r="0.894" transform="translate(10.104 73.685)" fill="#3a1d71"/>
    </g>
  </g>
</svg>
