<svg xmlns="http://www.w3.org/2000/svg" width="62.715" height="59.776" viewBox="0 0 62.715 59.776">
  <g id="Grupo_1102934" data-name="Grupo 1102934" transform="translate(0 -11.996)">
    <path id="Trazado_878604" data-name="Trazado 878604" d="M63.877,55.271a4.142,4.142,0,1,0,4.147,4.142A4.148,4.148,0,0,0,63.877,55.271Zm0,5.814a1.672,1.672,0,1,1,1.677-1.672A1.674,1.674,0,0,1,63.877,61.085Z" transform="translate(-52.416 -37.974)" fill="#fff"/>
    <path id="Trazado_878605" data-name="Trazado 878605" d="M281.2,55.271H270.249a4.142,4.142,0,1,0,0,8.285H281.2a4.142,4.142,0,1,0,0-8.285Zm0,5.814H270.249a1.672,1.672,0,1,1,0-3.344H281.2a1.672,1.672,0,1,1,0,3.344Z" transform="translate(-233.509 -37.974)" fill="#fff"/>
    <path id="Trazado_878606" data-name="Trazado 878606" d="M151.549,55.271a4.142,4.142,0,1,0,4.147,4.142A4.148,4.148,0,0,0,151.549,55.271Zm0,5.814a1.672,1.672,0,1,1,1.677-1.672A1.675,1.675,0,0,1,151.549,61.085Z" transform="translate(-129.349 -37.974)" fill="#fff"/>
    <path id="Trazado_878607" data-name="Trazado 878607" d="M136.329,222.2a1.235,1.235,0,0,0-1.489.914l-2.451,10.255a1.235,1.235,0,1,0,2.4.574l2.451-10.255A1.235,1.235,0,0,0,136.329,222.2Z" transform="translate(-116.143 -184.425)" fill="#fff"/>
    <path id="Trazado_878608" data-name="Trazado 878608" d="M198.851,240.289a1.235,1.235,0,0,0,1.744-.1l3.464-3.888a1.714,1.714,0,0,0,0-2.265l-3.467-3.892a1.235,1.235,0,1,0-1.845,1.643l3.01,3.379-3.01,3.38A1.235,1.235,0,0,0,198.851,240.289Z" transform="translate(-174.13 -191.063)" fill="#fff"/>
    <path id="Trazado_878609" data-name="Trazado 878609" d="M62.692,230.043a1.235,1.235,0,0,0-1.744.1l-3.463,3.888a1.713,1.713,0,0,0,0,2.265l3.467,3.892a1.235,1.235,0,1,0,1.845-1.643l-3.01-3.379,3.01-3.38A1.235,1.235,0,0,0,62.692,230.043Z" transform="translate(-50.066 -191.064)" fill="#fff"/>
    <path id="Trazado_878610" data-name="Trazado 878610" d="M59.946,52.116h-.459a13.006,13.006,0,0,0-.931-2.247l.327-.328a2.768,2.768,0,0,0,0-3.915l-.638-.637V18.678c0-3.684-2.6-6.682-5.8-6.682H5.8c-3.2,0-5.8,3-5.8,6.682V53.2c0,3.684,2.6,6.682,5.8,6.682h7.247a1.235,1.235,0,1,0,0-2.47H5.8c-1.8,0-3.326-1.929-3.326-4.211V30.792H55.778V43.275a2.809,2.809,0,0,0-.428-.036h0a2.738,2.738,0,0,0-1.949.808l-.334.332a13.041,13.041,0,0,0-2.283-.943V43a2.772,2.772,0,0,0-2.769-2.769H45.774A2.77,2.77,0,0,0,43.008,43v.47a13.112,13.112,0,0,0-2.23.934l-.32-.319A2.742,2.742,0,0,0,38.5,43.27h0a2.75,2.75,0,0,0-1.957.809l-1.579,1.579a2.767,2.767,0,0,0,0,3.911l.341.342a13.044,13.044,0,0,0-.91,2.206h-.469a2.769,2.769,0,0,0-2.766,2.765v2.238a2.784,2.784,0,0,0,.016.294H23.987a1.235,1.235,0,1,0,0,2.47H34.4a12.968,12.968,0,0,0,.924,2.224l-.334.332a2.772,2.772,0,0,0,0,3.91l1.58,1.58a2.742,2.742,0,0,0,1.953.812h0a2.75,2.75,0,0,0,1.958-.809l.331-.331a13.052,13.052,0,0,0,2.232.925V69a2.77,2.77,0,0,0,2.766,2.769h2.239A2.77,2.77,0,0,0,50.82,69v-.475a13.017,13.017,0,0,0,2.242-.928l.329.328a2.742,2.742,0,0,0,1.953.812h0a2.751,2.751,0,0,0,1.958-.81l1.576-1.579a2.767,2.767,0,0,0,0-3.915l-.33-.33a13.043,13.043,0,0,0,.923-2.224h.467a2.77,2.77,0,0,0,2.769-2.765V54.881a2.77,2.77,0,0,0-2.769-2.765ZM2.471,28.322V18.678c0-2.283,1.523-4.211,3.326-4.211H52.453c1.8,0,3.326,1.929,3.326,4.211v9.644H2.471Zm57.774,28.8a.3.3,0,0,1-.3.294H58.533a1.235,1.235,0,0,0-1.2.959,10.6,10.6,0,0,1-1.362,3.282,1.235,1.235,0,0,0,.173,1.531l1,1a.3.3,0,0,1,.086.21.286.286,0,0,1-.087.208L55.56,66.184a.3.3,0,0,1-.211.086h0a.288.288,0,0,1-.209-.087l-1-1a1.236,1.236,0,0,0-1.529-.171,10.584,10.584,0,0,1-3.3,1.364,1.236,1.236,0,0,0-.961,1.2V69a.3.3,0,0,1-.3.3H45.816a.3.3,0,0,1-.3-.3V67.578a1.235,1.235,0,0,0-.963-1.2,10.6,10.6,0,0,1-3.29-1.362,1.235,1.235,0,0,0-1.529.173l-1,1a.3.3,0,0,1-.211.086h0a.287.287,0,0,1-.208-.086L36.738,64.6a.3.3,0,0,1,0-.416l1-1a1.235,1.235,0,0,0,.173-1.535,10.528,10.528,0,0,1-1.364-3.28,1.235,1.235,0,0,0-1.2-.959h-1.42a.3.3,0,0,1-.3-.294V54.882a.3.3,0,0,1,.3-.295h1.416a1.236,1.236,0,0,0,1.2-.961,10.6,10.6,0,0,1,1.346-3.266,1.235,1.235,0,0,0-.173-1.526L36.708,47.82a.283.283,0,0,1-.083-.2.3.3,0,0,1,.086-.21l1.579-1.578a.3.3,0,0,1,.211-.086h0a.288.288,0,0,1,.209.087l1,.992a1.235,1.235,0,0,0,1.533.168,10.656,10.656,0,0,1,3.286-1.377,1.235,1.235,0,0,0,.954-1.2V43a.3.3,0,0,1,.3-.3h2.235a.3.3,0,0,1,.3.3v1.391a1.235,1.235,0,0,0,.967,1.206,10.59,10.59,0,0,1,3.333,1.374,1.236,1.236,0,0,0,1.528-.171l1.007-1a.285.285,0,0,1,.205-.083h0a.3.3,0,0,1,.211.086l1.579,1.578a.3.3,0,0,1,.086.21.287.287,0,0,1-.087.208l-1,1a1.235,1.235,0,0,0-.17,1.531,10.573,10.573,0,0,1,1.368,3.3,1.235,1.235,0,0,0,1.2.961h1.406a.3.3,0,0,1,.3.295Z" fill="#fff"/>
    <path id="Trazado_878611" data-name="Trazado 878611" d="M329.108,309.652a7.544,7.544,0,1,0,7.545,7.546A7.556,7.556,0,0,0,329.108,309.652Zm0,12.617a5.073,5.073,0,1,1,5.075-5.072A5.081,5.081,0,0,1,329.108,322.269Z" transform="translate(-282.171 -261.196)" fill="#fff"/>
    <path id="Trazado_878612" data-name="Trazado 878612" d="M142.431,382.778h-.024a1.235,1.235,0,0,0,0,2.47h.024a1.235,1.235,0,0,0,0-2.47Z" transform="translate(-123.88 -325.364)" fill="#fff"/>
  </g>
</svg>
