<svg xmlns="http://www.w3.org/2000/svg" width="60" height="60" viewBox="0 0 60 60">
  <g id="Grupo_1103114" data-name="Grupo 1103114" transform="translate(-1036 -1662)">
    <circle id="Elipse_11668" data-name="Elipse 11668" cx="30" cy="30" r="30" transform="translate(1036 1662)" fill="#debefb"/>
    <g id="Grupo_1103113" data-name="Grupo 1103113" transform="translate(1044.145 1673.429)">
      <path id="Trazado_879099" data-name="Trazado 879099" d="M37.617,0H6.094A2.556,2.556,0,0,0,3.541,2.553V34.589a2.556,2.556,0,0,0,2.553,2.553H22.117a.725.725,0,0,0,0-1.451H6.094a1.1,1.1,0,0,1-1.1-1.1V7.171H38.72V34.589a1.1,1.1,0,0,1-1.1,1.1H28.633a.725.725,0,0,0,0,1.451h8.984a2.556,2.556,0,0,0,2.553-2.553V2.553A2.556,2.556,0,0,0,37.617,0ZM4.992,5.72V2.553a1.1,1.1,0,0,1,1.1-1.1H37.617a1.1,1.1,0,0,1,1.1,1.1V5.72Z" transform="translate(0 0)" fill="#3a1d71"/>
      <path id="Trazado_879100" data-name="Trazado 879100" d="M129.562,314.184a4.549,4.549,0,0,0,4.407-3.446h3.567l-.208.215a.725.725,0,1,0,1.044,1.007l1.392-1.444a.725.725,0,0,0,0-1.007l-1.392-1.444a.725.725,0,0,0-1.045,1.007l.208.215h-3.448a4.541,4.541,0,0,0-9.054,0h-3.868a.725.725,0,0,0,0,1.451h3.988A4.55,4.55,0,0,0,129.562,314.184Zm0-7.633a3.091,3.091,0,1,1-3.091,3.091A3.095,3.095,0,0,1,129.562,306.551Z" transform="translate(-108.419 -282.966)" fill="#3a1d71"/>
      <path id="Trazado_879101" data-name="Trazado 879101" d="M223.138,203.668a.725.725,0,0,0,1.026,0l.448-.448.448.448a.725.725,0,1,0,1.026-1.026l-.448-.448.448-.448a.725.725,0,0,0-1.026-1.026l-.448.448-.448-.448a.725.725,0,0,0-1.026,1.026l.448.448-.448.448A.725.725,0,0,0,223.138,203.668Z" transform="translate(-203.469 -185.962)" fill="#3a1d71"/>
      <path id="Trazado_879102" data-name="Trazado 879102" d="M221.167,349.937l.961.86a.725.725,0,0,0,1.077-.123l1.217-1.727a.725.725,0,0,0-1.186-.836l-.748,1.061-.353-.316a.725.725,0,1,0-.968,1.081Z" transform="translate(-201.615 -322.571)" fill="#3a1d71"/>
      <path id="Trazado_879103" data-name="Trazado 879103" d="M120.443,164.515a.726.726,0,0,0,.725.725H125.1a4.541,4.541,0,1,0-.03-1.451h-3.9A.726.726,0,0,0,120.443,164.515Zm9.121-3.182a3.091,3.091,0,1,1-3.091,3.091A3.095,3.095,0,0,1,129.564,161.333Z" transform="translate(-108.421 -148.283)" fill="#3a1d71"/>
      <path id="Trazado_879104" data-name="Trazado 879104" d="M48.459,161.405H49.8a.725.725,0,1,0,0-1.451H48.459a1.946,1.946,0,0,1-1.944-1.944v-3.993a3.413,3.413,0,0,0-1.032-2.437l-1.6-1.548,1.6-1.548a3.413,3.413,0,0,0,1.032-2.437v-3.993a1.946,1.946,0,0,1,1.944-1.944H49.8a.725.725,0,0,0,0-1.451H48.459a3.4,3.4,0,0,0-3.395,3.395v3.993a1.954,1.954,0,0,1-.591,1.4l-1.756,1.7a1.235,1.235,0,0,0,0,1.773l1.756,1.7a1.954,1.954,0,0,1,.591,1.4v3.993A3.4,3.4,0,0,0,48.459,161.405Z" transform="translate(-35.986 -128.602)" fill="#3a1d71"/>
      <path id="Trazado_879105" data-name="Trazado 879105" d="M358.861,138.663h-1.346a.725.725,0,1,0,0,1.451h1.346a1.946,1.946,0,0,1,1.944,1.944v3.993a3.413,3.413,0,0,0,1.031,2.437l1.6,1.548-1.6,1.548a3.413,3.413,0,0,0-1.032,2.437v3.993a1.946,1.946,0,0,1-1.944,1.944h-1.346a.725.725,0,1,0,0,1.451h1.346a3.4,3.4,0,0,0,3.395-3.395V154.02a1.954,1.954,0,0,1,.591-1.4l1.756-1.7a1.235,1.235,0,0,0,0-1.773l-1.756-1.7a1.954,1.954,0,0,1-.591-1.4v-3.993A3.4,3.4,0,0,0,358.861,138.663Z" transform="translate(-327.622 -128.604)" fill="#3a1d71"/>
      <circle id="Elipse_11672" data-name="Elipse 11672" cx="0.725" cy="0.725" r="0.725" transform="translate(6.759 2.86)" fill="#3a1d71"/>
      <circle id="Elipse_11673" data-name="Elipse 11673" cx="0.725" cy="0.725" r="0.725" transform="translate(9.976 2.86)" fill="#3a1d71"/>
      <circle id="Elipse_11674" data-name="Elipse 11674" cx="0.725" cy="0.725" r="0.725" transform="translate(13.193 2.86)" fill="#3a1d71"/>
      <circle id="Elipse_11675" data-name="Elipse 11675" cx="0.725" cy="0.725" r="0.725" transform="translate(24.644 35.692)" fill="#3a1d71"/>
    </g>
  </g>
</svg>
