<svg xmlns="http://www.w3.org/2000/svg" width="130" height="130" viewBox="0 0 130 130">
  <g id="Grupo_1102310" data-name="Grupo 1102310" transform="translate(-390 -8162)">
    <rect id="Rectángulo_402592" data-name="Rectángulo 402592" width="130" height="130" rx="21" transform="translate(390 8162)" fill="#f7eefe"/>
    <g id="Grupo_1103096" data-name="Grupo 1103096" transform="translate(405.61 8181.728)">
      <path id="Trazado_879035" data-name="Trazado 879035" d="M332.832,253h-24.87a.963.963,0,0,0-.963.963v5.616a.963.963,0,0,0,.963.963h24.87a.963.963,0,0,0,.963-.963v-5.616A.963.963,0,0,0,332.832,253Zm-1.123,5.616H308.925v-3.69h22.784Z" transform="translate(-249.347 -208.209)" fill="#a854f3"/>
      <path id="Trazado_879036" data-name="Trazado 879036" d="M313.409,442.091a3.852,3.852,0,1,0-3.852-3.852A3.852,3.852,0,0,0,313.409,442.091Zm0-5.778a1.926,1.926,0,1,1-1.926,1.926,1.926,1.926,0,0,1,1.926-1.926Z" transform="translate(-251.493 -360.493)" fill="#a854f3"/>
      <path id="Trazado_879037" data-name="Trazado 879037" d="M370.359,442.091a3.852,3.852,0,1,0-3.852-3.852A3.852,3.852,0,0,0,370.359,442.091Zm0-5.778a1.926,1.926,0,1,1-1.926,1.926,1.926,1.926,0,0,1,1.926-1.926Z" transform="translate(-299.306 -360.493)" fill="#a854f3"/>
      <path id="Trazado_879038" data-name="Trazado 879038" d="M427.31,442.091a3.852,3.852,0,1,0-3.852-3.852A3.852,3.852,0,0,0,427.31,442.091Zm0-5.778a1.926,1.926,0,1,1-1.926,1.926,1.926,1.926,0,0,1,1.926-1.926Z" transform="translate(-347.119 -360.493)" fill="#a854f3"/>
      <path id="Trazado_879039" data-name="Trazado 879039" d="M313.409,389.116a3.852,3.852,0,1,0-3.852-3.852,3.852,3.852,0,0,0,3.852,3.852Zm0-5.778a1.926,1.926,0,1,1-1.926,1.925,1.926,1.926,0,0,1,1.926-1.925Z" transform="translate(-251.493 -316.018)" fill="#a854f3"/>
      <path id="Trazado_879040" data-name="Trazado 879040" d="M370.359,389.116a3.852,3.852,0,1,0-3.852-3.852,3.852,3.852,0,0,0,3.852,3.852Zm0-5.778a1.926,1.926,0,1,1-1.926,1.925,1.926,1.926,0,0,1,1.926-1.925Z" transform="translate(-299.306 -316.018)" fill="#a854f3"/>
      <path id="Trazado_879041" data-name="Trazado 879041" d="M427.31,389.116a3.852,3.852,0,1,0-3.852-3.852,3.852,3.852,0,0,0,3.852,3.852Zm0-5.778a1.926,1.926,0,1,1-1.926,1.925A1.926,1.926,0,0,1,427.31,383.339Z" transform="translate(-347.119 -316.018)" fill="#a854f3"/>
      <path id="Trazado_879042" data-name="Trazado 879042" d="M313.409,336.144a3.852,3.852,0,1,0-3.852-3.852A3.852,3.852,0,0,0,313.409,336.144Zm0-5.778a1.926,1.926,0,1,1-1.926,1.926A1.926,1.926,0,0,1,313.409,330.366Z" transform="translate(-251.493 -271.545)" fill="#a854f3"/>
      <path id="Trazado_879043" data-name="Trazado 879043" d="M370.359,336.144a3.852,3.852,0,1,0-3.852-3.852A3.852,3.852,0,0,0,370.359,336.144Zm0-5.778a1.926,1.926,0,1,1-1.926,1.926A1.926,1.926,0,0,1,370.359,330.366Z" transform="translate(-299.306 -271.545)" fill="#a854f3"/>
      <path id="Trazado_879044" data-name="Trazado 879044" d="M427.31,336.144a3.852,3.852,0,1,0-3.852-3.852A3.852,3.852,0,0,0,427.31,336.144Zm0-5.778a1.926,1.926,0,1,1-1.926,1.926A1.926,1.926,0,0,1,427.31,330.366Z" transform="translate(-347.119 -271.545)" fill="#a854f3"/>
      <path id="Trazado_879045" data-name="Trazado 879045" d="M164.542,309H154.514a.963.963,0,0,0,0,1.925h10.028a.963.963,0,0,0,0-1.925Z" transform="translate(-120.518 -255.224)" fill="#a854f3"/>
      <path id="Trazado_879046" data-name="Trazado 879046" d="M125.948,310.925h.979a.963.963,0,0,0,0-1.925h-.979a.963.963,0,0,0,0,1.925Z" transform="translate(-96.536 -255.224)" fill="#a854f3"/>
      <path id="Trazado_879047" data-name="Trazado 879047" d="M180.707,360h-5.237a.963.963,0,1,0,0,1.925h5.237a.963.963,0,1,0,0-1.925Z" transform="translate(-138.113 -298.041)" fill="#a854f3"/>
      <path id="Trazado_879048" data-name="Trazado 879048" d="M130.132,360h-4.185a.963.963,0,1,0,0,1.925h4.185a.963.963,0,1,0,0-1.925Z" transform="translate(-96.536 -298.041)" fill="#a854f3"/>
      <path id="Trazado_879049" data-name="Trazado 879049" d="M101.963,46.806a.963.963,0,0,0-.963.963v.387a.963.963,0,0,0,1.925,0v-.387A.963.963,0,0,0,101.963,46.806Z" transform="translate(-76.399 -35.098)" fill="#a854f3"/>
      <path id="Trazado_879050" data-name="Trazado 879050" d="M101.963,72.649a.963.963,0,0,0-.963.963V86.364a.963.963,0,0,0,1.925,0V73.612A.963.963,0,0,0,101.963,72.649Z" transform="translate(-76.399 -56.795)" fill="#a854f3"/>
      <path id="Trazado_879051" data-name="Trazado 879051" d="M156.269,64.854a14.205,14.205,0,1,0,14.205,14.205A14.205,14.205,0,0,0,156.269,64.854Zm12.258,13.5H158.335L165.6,71.09a12.222,12.222,0,0,1,2.927,7.265ZM156.269,66.779a12.224,12.224,0,0,1,7.97,2.949l-7.965,7.965-6.268-9.19a12.2,12.2,0,0,1,6.264-1.724Zm0,24.56a12.274,12.274,0,0,1-7.837-21.726l6.989,10.247a.963.963,0,0,0,.8.42h12.272a12.3,12.3,0,0,1-12.219,11.059Z" transform="translate(-110.875 -50.251)" fill="#a854f3"/>
      <path id="Trazado_879052" data-name="Trazado 879052" d="M83.9,40.78H70.97V20.04a2.676,2.676,0,0,0-.758-1.885L58.176,5.814A2.7,2.7,0,0,0,56.252,5H22.581a2.649,2.649,0,0,0-2.633,2.7v2.6H17.387a2.689,2.689,0,0,0-1.925.756,2.619,2.619,0,0,0-.808,1.87v1.546H12.712a2.666,2.666,0,0,0-1.915.759A2.615,2.615,0,0,0,10,17.1V81.05a2.74,2.74,0,0,0,2.714,2.73H54.122a4.866,4.866,0,0,0,3.754,1.765H83.9a4.876,4.876,0,0,0,4.876-4.876V45.656A4.876,4.876,0,0,0,83.9,40.78ZM57.653,8.034,67.776,18.478h-5.25a4.876,4.876,0,0,1-3.447-1.466,4.932,4.932,0,0,1-1.426-3.485ZM16.578,12.92a.707.707,0,0,1,.246-.509.782.782,0,0,1,.564-.19h2.559v59.6a2.607,2.607,0,0,0,2.635,2.652H53v3.049H17.389a.855.855,0,0,1-.811-.826ZM12.714,81.855a.8.8,0,0,1-.554-.242.814.814,0,0,1-.235-.563V17.1a.7.7,0,0,1,.234-.512.759.759,0,0,1,.554-.193h1.94V76.7a2.78,2.78,0,0,0,2.735,2.751H53v1.221a4.882,4.882,0,0,0,.146,1.187ZM53,45.656v8.562a.961.961,0,0,0-.809-.442h-3.6a.963.963,0,0,0,0,1.925h3.6A.961.961,0,0,0,53,55.26v6.7H46.3a.963.963,0,0,0,0,1.925H53v8.664H22.584a.678.678,0,0,1-.515-.2.69.69,0,0,1-.2-.524V7.7a.723.723,0,0,1,.71-.77H55.728v6.6a6.864,6.864,0,0,0,6.8,6.877h6.519V40.78H57.876A4.876,4.876,0,0,0,53,45.656ZM87.015,80.669a2.971,2.971,0,0,1-2.97,2.951H57.954a3.021,3.021,0,0,1-3.028-2.951V55.7h32.09Zm0-26.893H54.926V45.66a3.024,3.024,0,0,1,3.028-2.954H84.045a2.974,2.974,0,0,1,2.97,2.954Z" fill="#a854f3"/>
    </g>
  </g>
</svg>
