<svg xmlns="http://www.w3.org/2000/svg" width="190" height="90" viewBox="0 0 190 90">
  <g id="Grupo_1102906" data-name="Grupo 1102906" transform="translate(-1125 -9230)">
    <rect id="Rectángulo_402908" data-name="Rectángulo 402908" width="190" height="68" rx="10" transform="translate(1125 9252)" fill="#d6e1fd"/>
    <circle id="Elipse_11622" data-name="Elipse 11622" cx="11" cy="11" r="11" transform="translate(1162 9265.34) rotate(-180)" fill="#3a1d71"/>
    <circle id="Elipse_11663" data-name="Elipse 11663" cx="22" cy="22" r="22" transform="translate(1214.617 9306.935) rotate(-180)" fill="#e8eefe"/>
    <g id="Elipse_11623" data-name="Elipse 11623" transform="translate(1304.333 9302.098) rotate(-180)" fill="none" stroke="#3a1d71" stroke-width="4">
      <circle cx="15" cy="15" r="15" stroke="none"/>
      <circle cx="15" cy="15" r="13" fill="none"/>
    </g>
    <circle id="Elipse_11624" data-name="Elipse 11624" cx="5" cy="5" r="5" transform="translate(1162 9240) rotate(-180)" fill="#3a1d71"/>
    <g id="Grupo_1103097" data-name="Grupo 1103097" transform="translate(1181.053 9230)">
      <path id="Trazado_879053" data-name="Trazado 879053" d="M195.1,151.4H204.5a3.669,3.669,0,1,0,0-7.338H195.1a3.669,3.669,0,1,0,0,7.338Zm0-5.084H204.5a1.415,1.415,0,1,1,0,2.83H195.1a1.415,1.415,0,1,1,0-2.83Z" transform="translate(-162.19 -122.417)" fill="#a854f3"/>
      <path id="Trazado_879054" data-name="Trazado 879054" d="M75.643,60.228v-.371A3.785,3.785,0,0,0,78.195,56.9a3.345,3.345,0,0,0-2.272-3.787,9.284,9.284,0,0,1-2.343-1.085.662.662,0,0,1-.126-.609.94.94,0,0,1,.612-.742,1.754,1.754,0,0,1,1.631.251l.241.191a1.124,1.124,0,1,0,1.372-1.78,4.414,4.414,0,0,0-1.667-.881v-.222a1.158,1.158,0,0,0-1.092-1.174,1.127,1.127,0,0,0-1.162,1.127v.339a3.171,3.171,0,0,0-2.15,2.473,2.845,2.845,0,0,0,.95,2.8,10.852,10.852,0,0,0,2.983,1.437,1.086,1.086,0,0,1,.8,1.288,1.475,1.475,0,0,1-1.464,1.244,2.559,2.559,0,0,1-1.829-.465,1.155,1.155,0,0,0-1.566.273,1.127,1.127,0,0,0,.3,1.594,4.5,4.5,0,0,0,1.973.8v.3A1.127,1.127,0,0,0,74.551,61.4a1.158,1.158,0,0,0,1.092-1.173Z" transform="translate(-59.772 -39.995)" fill="#a854f3"/>
      <path id="Trazado_879055" data-name="Trazado 879055" d="M154.17,226.56H119.191a1.127,1.127,0,1,0,0,2.254H154.17a1.127,1.127,0,0,0,0-2.254Z" transform="translate(-99.844 -192.516)" fill="#a854f3"/>
      <path id="Trazado_879056" data-name="Trazado 879056" d="M155.3,259.808a1.127,1.127,0,0,0-1.127-1.127H119.191a1.127,1.127,0,1,0,0,2.254H154.17A1.127,1.127,0,0,0,155.3,259.808Z" transform="translate(-99.844 -219.811)" fill="#a854f3"/>
      <path id="Trazado_879057" data-name="Trazado 879057" d="M150.683,292.432a1.127,1.127,0,0,0-1.127-1.127H119.191a1.127,1.127,0,1,0,0,2.254h30.365A1.127,1.127,0,0,0,150.683,292.432Z" transform="translate(-99.844 -247.533)" fill="#a854f3"/>
      <path id="Trazado_879058" data-name="Trazado 879058" d="M146.76,324.553a1.127,1.127,0,0,0-1.127-1.127H119.191a1.127,1.127,0,1,0,0,2.254h26.442A1.127,1.127,0,0,0,146.76,324.553Z" transform="translate(-99.844 -274.827)" fill="#a854f3"/>
      <path id="Trazado_879059" data-name="Trazado 879059" d="M141.557,357.177a1.127,1.127,0,0,0-1.127-1.127H119.191a1.127,1.127,0,1,0,0,2.254H140.43A1.127,1.127,0,0,0,141.557,357.177Z" transform="translate(-99.844 -302.549)" fill="#a854f3"/>
      <path id="Trazado_879060" data-name="Trazado 879060" d="M76.4,39.42l-.778-.778a3.164,3.164,0,0,0-.649-3.539L72.728,32.86a3.169,3.169,0,0,0-4.483,0L63.4,37.7V15.376A3.577,3.577,0,0,0,59.83,11.8H33.142a1.127,1.127,0,0,0,0,2.254H59.829a1.321,1.321,0,0,1,1.319,1.319v24.58l-17.3,17.3a6.174,6.174,0,0,0-1.8,4.028l-.171,3.076-2.629,2.63a1.127,1.127,0,0,0,1.594,1.594l2.629-2.63,3.077-.171a6.173,6.173,0,0,0,4.028-1.8L54.954,59.6A1.127,1.127,0,1,0,53.36,58.01l-4.383,4.383a3.922,3.922,0,0,1-2.559,1.144l-2.249.125.125-2.249a3.922,3.922,0,0,1,1.144-2.559l7.331-7.331,4.336,4.336a1.15,1.15,0,0,0,.086.077,1.127,1.127,0,0,0,1.423,0,1.146,1.146,0,0,0,.086-.077l2.45-2.45V73.361a1.321,1.321,0,0,1-1.319,1.319H13.843a1.321,1.321,0,0,1-1.319-1.319V28.3a14.236,14.236,0,1,0-2.254-.557V73.361a3.577,3.577,0,0,0,3.573,3.573H59.829A3.577,3.577,0,0,0,63.4,73.361V51.155L74.174,40.384l.63.631a.93.93,0,0,1,0,1.314L67.08,50.053a1.127,1.127,0,0,0,1.594,1.594L76.4,43.922a3.187,3.187,0,0,0,0-4.5ZM2.818,14.24A11.986,11.986,0,1,1,14.8,26.226,12,12,0,0,1,2.818,14.24Zm67.02,20.214a.916.916,0,0,1,1.3,0L73.377,36.7a.916.916,0,0,1,0,1.3L57.9,53.468l-3.539-3.539Z" transform="translate(0)" fill="#a854f3"/>
      <path id="Trazado_879061" data-name="Trazado 879061" d="M133.32,410.538a1.127,1.127,0,0,0,1.392-.175l3.244-3.323a1.127,1.127,0,0,0-1.613-1.574l-1.248,1.278a3.244,3.244,0,0,0-.283-.66,2.993,2.993,0,0,0-2.045-1.44c-1.653-.355-3.359.7-4.665,1.872a5.888,5.888,0,0,0-.961-3,3.131,3.131,0,0,0-2.207-1.273c-1.744-.2-3.442.974-5.045,3.487a21.612,21.612,0,0,0-1.753,3.439,1.127,1.127,0,0,0,2.1.812c.9-2.319,2.93-5.673,4.439-5.5a.872.872,0,0,1,.653.377c.705.947.617,3.272.4,4.514a1.127,1.127,0,0,0,2.014.872c1.13-1.522,3.36-3.656,4.555-3.4a.748.748,0,0,1,.559.353,3.129,3.129,0,0,1-.018,2.02A1.127,1.127,0,0,0,133.32,410.538Z" transform="translate(-99.842 -341.783)" fill="#a854f3"/>
    </g>
  </g>
</svg>
