<svg xmlns="http://www.w3.org/2000/svg" width="70" height="70" viewBox="0 0 70 70">
  <g id="Grupo_1102962" data-name="Grupo 1102962" transform="translate(-300 -1304)">
    <g id="Grupo_1102556" data-name="Grupo 1102556" transform="translate(77.5 -617.5)">
      <circle id="Elipse_11549" data-name="Elipse 11549" cx="35" cy="35" r="35" transform="translate(222.5 1921.5)" fill="#3a1d71"/>
    </g>
    <g id="Grupo_1102961" data-name="Grupo 1102961" transform="translate(260.809 1311)">
      <g id="Grupo_1102940" data-name="Grupo 1102940" transform="translate(61.788 10.596)">
        <g id="Grupo_1102939" data-name="Grupo 1102939">
          <path id="Trazado_878637" data-name="Trazado 878637" d="M169.772,104.97h-2.52a8.765,8.765,0,0,0-.586-1.415l1.782-1.782a1.18,1.18,0,0,0,0-1.668l-2.1-2.1a1.181,1.181,0,0,0-1.668,0L162.9,99.79a8.761,8.761,0,0,0-1.415-.586v-2.52a1.181,1.181,0,0,0-1.179-1.179h-2.966a1.181,1.181,0,0,0-1.179,1.179V99.2a8.771,8.771,0,0,0-1.415.586l-1.782-1.782a1.181,1.181,0,0,0-1.668,0l-2.1,2.1a1.179,1.179,0,0,0,0,1.668l1.782,1.782a8.761,8.761,0,0,0-.586,1.415h-2.52a1.181,1.181,0,0,0-1.179,1.179v2.966a1.181,1.181,0,0,0,1.179,1.179h2.52a8.767,8.767,0,0,0,.586,1.415l-1.782,1.782a1.181,1.181,0,0,0,0,1.668l2.1,2.1a1.18,1.18,0,0,0,1.668,0l1.782-1.782a8.759,8.759,0,0,0,1.415.586v2.52a1.181,1.181,0,0,0,1.179,1.179h2.966a1.181,1.181,0,0,0,1.179-1.179v-2.52a8.764,8.764,0,0,0,1.415-.586l1.782,1.782a1.181,1.181,0,0,0,1.668,0l2.1-2.1a1.18,1.18,0,0,0,0-1.668l-1.782-1.782a8.762,8.762,0,0,0,.586-1.415h2.52a1.181,1.181,0,0,0,1.179-1.179v-2.966A1.18,1.18,0,0,0,169.772,104.97Zm-.485,3.66h-2.669a.832.832,0,0,0-.81.643,7.115,7.115,0,0,1-.885,2.138.832.832,0,0,0,.118,1.028l1.887,1.887-1.411,1.411-1.887-1.887a.832.832,0,0,0-1.028-.118,7.121,7.121,0,0,1-2.138.885.832.832,0,0,0-.643.81V118.1h-2v-2.669a.832.832,0,0,0-.643-.81,7.111,7.111,0,0,1-2.138-.885.833.833,0,0,0-1.028.118l-1.887,1.887-1.411-1.411,1.887-1.887a.832.832,0,0,0,.118-1.028,7.118,7.118,0,0,1-.885-2.138.832.832,0,0,0-.81-.643h-2.669v-2h2.669a.832.832,0,0,0,.81-.643,7.118,7.118,0,0,1,.885-2.138.832.832,0,0,0-.118-1.028l-1.887-1.887,1.411-1.411,1.887,1.887a.832.832,0,0,0,1.028.118,7.115,7.115,0,0,1,2.138-.885.832.832,0,0,0,.643-.81V97.169h2v2.669a.832.832,0,0,0,.643.81,7.119,7.119,0,0,1,2.138.885.833.833,0,0,0,1.027-.118l1.887-1.887,1.411,1.411-1.887,1.887a.832.832,0,0,0-.118,1.028,7.118,7.118,0,0,1,.885,2.138.832.832,0,0,0,.81.643h2.669Z" transform="translate(-146.697 -95.505)" fill="#00ffdf"/>
        </g>
      </g>
      <g id="Grupo_1102942" data-name="Grupo 1102942" transform="translate(69.458 18.266)">
        <g id="Grupo_1102941" data-name="Grupo 1102941" transform="translate(0)">
          <path id="Trazado_878638" data-name="Trazado 878638" d="M220.278,164.628a4.458,4.458,0,1,0,4.458,4.458A4.463,4.463,0,0,0,220.278,164.628Zm0,7.252a2.794,2.794,0,1,1,2.794-2.794A2.8,2.8,0,0,1,220.278,171.88Z" transform="translate(-215.82 -164.628)" fill="#00ffdf"/>
        </g>
      </g>
      <g id="Grupo_1102944" data-name="Grupo 1102944" transform="translate(51.192 21.891)">
        <g id="Grupo_1102943" data-name="Grupo 1102943">
          <path id="Trazado_878639" data-name="Trazado 878639" d="M54.785,197.308H52.024a.832.832,0,1,0,0,1.664h2.761a.832.832,0,1,0,0-1.664Z" transform="translate(-51.192 -197.308)" fill="#00ffdf"/>
        </g>
      </g>
      <g id="Grupo_1102946" data-name="Grupo 1102946" transform="translate(92.214 21.891)">
        <g id="Grupo_1102945" data-name="Grupo 1102945">
          <path id="Trazado_878640" data-name="Trazado 878640" d="M424.52,197.308h-2.761a.832.832,0,1,0,0,1.664h2.761a.832.832,0,0,0,0-1.664Z" transform="translate(-420.927 -197.308)" fill="#00ffdf"/>
        </g>
      </g>
      <g id="Grupo_1102948" data-name="Grupo 1102948" transform="translate(57.604 35.419)">
        <g id="Grupo_1102947" data-name="Grupo 1102947" transform="translate(0)">
          <path id="Trazado_878641" data-name="Trazado 878641" d="M112.354,319.476a.832.832,0,0,0-1.177,0l-1.952,1.952A.832.832,0,1,0,110.4,322.6l1.952-1.952A.832.832,0,0,0,112.354,319.476Z" transform="translate(-108.981 -319.232)" fill="#00ffdf"/>
        </g>
      </g>
      <g id="Grupo_1102950" data-name="Grupo 1102950" transform="translate(86.611 6.412)">
        <g id="Grupo_1102949" data-name="Grupo 1102949">
          <path id="Trazado_878642" data-name="Trazado 878642" d="M373.8,58.035a.832.832,0,0,0-1.177,0l-1.952,1.952a.832.832,0,1,0,1.177,1.177l1.952-1.952A.832.832,0,0,0,373.8,58.035Z" transform="translate(-370.423 -57.791)" fill="#00ffdf"/>
        </g>
      </g>
      <g id="Grupo_1102952" data-name="Grupo 1102952" transform="translate(73.083)">
        <g id="Grupo_1102951" data-name="Grupo 1102951">
          <path id="Trazado_878643" data-name="Trazado 878643" d="M249.333,0a.832.832,0,0,0-.832.832V3.593a.832.832,0,0,0,1.664,0V.832A.832.832,0,0,0,249.333,0Z" transform="translate(-248.501)" fill="#00ffdf"/>
        </g>
      </g>
      <g id="Grupo_1102954" data-name="Grupo 1102954" transform="translate(86.611 35.419)">
        <g id="Grupo_1102953" data-name="Grupo 1102953">
          <path id="Trazado_878644" data-name="Trazado 878644" d="M373.8,321.428l-1.952-1.952a.832.832,0,1,0-1.177,1.177l1.952,1.952a.832.832,0,0,0,1.177-1.177Z" transform="translate(-370.423 -319.232)" fill="#00ffdf"/>
        </g>
      </g>
      <g id="Grupo_1102956" data-name="Grupo 1102956" transform="translate(57.604 6.412)">
        <g id="Grupo_1102955" data-name="Grupo 1102955" transform="translate(0)">
          <path id="Trazado_878645" data-name="Trazado 878645" d="M112.354,59.987,110.4,58.035a.832.832,0,1,0-1.177,1.177l1.952,1.952a.832.832,0,0,0,1.177-1.177Z" transform="translate(-108.981 -57.791)" fill="#00ffdf"/>
        </g>
      </g>
      <g id="Grupo_1102958" data-name="Grupo 1102958" transform="translate(75.025 6.052)">
        <g id="Grupo_1102957" data-name="Grupo 1102957" transform="translate(0)">
          <path id="Trazado_878646" data-name="Trazado 878646" d="M281.491,69.179a16.735,16.735,0,0,0-14.559-14.627.832.832,0,1,0-.2,1.652,14.988,14.988,0,0,1,13.107,13.168.832.832,0,0,0,.825.735.859.859,0,0,0,.1-.006A.832.832,0,0,0,281.491,69.179Z" transform="translate(-265.999 -54.545)" fill="#00ffdf"/>
        </g>
      </g>
      <g id="Grupo_1102960" data-name="Grupo 1102960" transform="translate(57.198 6.053)">
        <g id="Grupo_1102959" data-name="Grupo 1102959" transform="translate(0)">
          <path id="Trazado_878647" data-name="Trazado 878647" d="M137.907,72.343a.831.831,0,0,0-.93.721,15,15,0,0,1-6.939,10.848,5.6,5.6,0,0,0-2.646,4.762V92.1H116.7V88.6a5.48,5.48,0,0,0-2.564-4.635,15.054,15.054,0,0,1,6.071-27.748.832.832,0,0,0-.2-1.652,16.717,16.717,0,0,0-6.743,30.815,3.8,3.8,0,0,1,1.775,3.22v3.622a2.166,2.166,0,0,0-1.456,2.042v1.186a2.151,2.151,0,0,0,.462,1.332,2.15,2.15,0,0,0-.462,1.332V99.3a2.166,2.166,0,0,0,2.164,2.164h2.616v1.881a1.97,1.97,0,0,0,1.968,1.968h3.439a1.97,1.97,0,0,0,1.968-1.968V101.46h2.616a2.166,2.166,0,0,0,2.164-2.164V98.111a2.151,2.151,0,0,0-.462-1.332,2.15,2.15,0,0,0,.462-1.332V94.261a2.166,2.166,0,0,0-1.456-2.042V88.673a3.943,3.943,0,0,1,1.866-3.352,16.653,16.653,0,0,0,7.705-12.048A.831.831,0,0,0,137.907,72.343Zm-13.839,31a.308.308,0,0,1-.3.3h-3.439a.308.308,0,0,1-.3-.3V101.46h4.046Zm4.78-4.045a.506.506,0,0,1-.5.5H115.741a.506.506,0,0,1-.5-.5V98.111a.506.506,0,0,1,.5-.5h12.608a.506.506,0,0,1,.5.5Zm0-3.849a.506.506,0,0,1-.5.5H115.741a.506.506,0,0,1-.5-.5V94.261a.506.506,0,0,1,.5-.5h12.608a.506.506,0,0,1,.5.5Z" transform="translate(-105.328 -54.556)" fill="#00ffdf"/>
        </g>
      </g>
    </g>
  </g>
</svg>
