<svg xmlns="http://www.w3.org/2000/svg" width="50" height="50" viewBox="0 0 50 50">
  <g id="Grupo_1103017" data-name="Grupo 1103017" transform="translate(-315 -2819)">
    <g id="Elipse_11633" data-name="Elipse 11633" transform="translate(315 2819)" fill="#3a1d71" stroke="#00ffdf" stroke-width="1">
      <circle cx="25" cy="25" r="25" stroke="none"/>
      <circle cx="25" cy="25" r="24.5" fill="none"/>
    </g>
    <g id="Page-1" transform="translate(325.491 2829.492)">
      <g id="_059---Money-Bag" data-name="059---Money-Bag" transform="translate(0 -0.001)">
        <path id="Shape" d="M49.467,44.181a4.591,4.591,0,0,0,.878-2.681.478.478,0,0,0-.455-.5.483.483,0,0,0-.5.455,3.662,3.662,0,0,1-.673,2.133,4.115,4.115,0,0,1-3.049,1.238.478.478,0,0,0,0,.956A5.088,5.088,0,0,0,49.467,44.181Z" transform="translate(-23.581 -21.872)" fill="#00ffdf"/>
        <path id="Shape-2" data-name="Shape" d="M32.956,28.738a.478.478,0,1,0-.956,0,1.913,1.913,0,0,0,1.913,1.913v.478a.478.478,0,0,0,.956,0v-.478a1.913,1.913,0,1,0,0-3.825V24.913a.956.956,0,0,1,.956.956.478.478,0,1,0,.956,0,1.913,1.913,0,0,0-1.913-1.913v-.478a.478.478,0,1,0-.956,0v.478a1.913,1.913,0,1,0,0,3.825v1.913A.956.956,0,0,1,32.956,28.738Zm0-2.869a.956.956,0,0,1,.956-.956v1.913A.956.956,0,0,1,32.956,25.869Zm1.913,1.913a.956.956,0,1,1,0,1.913Z" transform="translate(-16.698 -12.48)" fill="#00ffdf"/>
        <path id="Shape-3" data-name="Shape" d="M28.291,17.148A16.671,16.671,0,0,0,22.6,7.725c2.372.179,3.136,1.166,3.158,1.2a.478.478,0,0,0,.792-.536,4.27,4.27,0,0,0-2.63-1.435,2.193,2.193,0,0,0,.8-1.646,2.455,2.455,0,0,0-1.829-2.227,8.722,8.722,0,0,0,.064-1.041.956.956,0,0,0-1.33-.879,2.732,2.732,0,0,0-.666.427,1.257,1.257,0,0,1-1.787,0,2.2,2.2,0,0,0-2.985,0,1.257,1.257,0,0,1-1.787,0,2.736,2.736,0,0,0-.664-.427.956.956,0,0,0-1.328.879,6.6,6.6,0,0,0,1.725,4.737,13.192,13.192,0,0,0-2.181,1.66V4.825c0-1.09-1.542-1.913-3.586-1.913s-3.586.822-3.586,1.913V9.643c-1.677.167-2.869.92-2.869,1.877V23.682c-1.155.31-1.913.94-1.913,1.7v2.391c0,1.09,1.542,1.913,3.586,1.913,1.828,0,3.252-.658,3.532-1.578a5.371,5.371,0,0,0,2.684.622c2.044,0,3.586-.822,3.586-1.913V20.6c0-1.09-1.542-1.913-3.586-1.913a7.1,7.1,0,0,0-.717.036V11.52c0-1.047-1.424-1.845-3.347-1.906V6.149a5.445,5.445,0,0,0,2.63.589A5.445,5.445,0,0,0,11,6.149V9.41c-.315.352-.632.736-.944,1.162a.478.478,0,0,0,.771.565,14.5,14.5,0,0,1,.986-1.2l.011-.012A12.57,12.57,0,0,1,15,7.386a3.035,3.035,0,0,0,.738.245L14.5,8.781a.478.478,0,1,0,.653.7L17.067,7.7h.153V9.131a.478.478,0,1,0,.956,0V7.694h.153l1.913,1.784a.478.478,0,0,0,.653-.7L19.653,7.624a3.013,3.013,0,0,0,.733-.246c1.264.684,5.418,3.385,6.974,9.99.677,2.875.433,5.074-.724,6.535a6.07,6.07,0,0,1-4.549,1.963H15.3a.478.478,0,1,0,0,.956h6.785a6.91,6.91,0,0,0,5.3-2.325c1.348-1.7,1.653-4.174.906-7.348ZM3.586,24.43c1.581,0,2.63.574,2.63.956s-1.049.956-2.63.956-2.63-.574-2.63-.956S2,24.43,3.586,24.43Zm0,4.3c-1.581,0-2.63-.574-2.63-.956V26.711a5.445,5.445,0,0,0,2.63.589,5.445,5.445,0,0,0,2.63-.589v1.067C6.216,28.16,5.168,28.734,3.586,28.734ZM9.8,27.778c-1.581,0-2.63-.574-2.63-.956V21.929a5.445,5.445,0,0,0,2.63.589,5.446,5.446,0,0,0,2.63-.589v4.892C12.433,27.2,11.384,27.778,9.8,27.778Zm2.63-7.173c0,.383-1.049.956-2.63.956s-2.63-.574-2.63-.956,1.049-.956,2.63-.956S12.433,20.222,12.433,20.6Zm-6.216,0v3.458a5.445,5.445,0,0,0-2.63-.589,7.1,7.1,0,0,0-.717.036V12.844a5.445,5.445,0,0,0,2.63.589,5.445,5.445,0,0,0,2.63-.589V18.9C6.974,19.211,6.216,19.84,6.216,20.6ZM8.129,11.52c0,.383-1.049.956-2.63.956s-2.63-.574-2.63-.956,1.049-.956,2.63-.956S8.129,11.137,8.129,11.52Zm.239-5.738c-1.581,0-2.63-.574-2.63-.956s1.049-.956,2.63-.956S11,4.442,11,4.825,9.949,5.781,8.368,5.781Zm15.4-.478c0,.784-.849,1.427-1.913,1.435a2.469,2.469,0,0,1-.529-.061,5.665,5.665,0,0,0,1.4-2.644A1.465,1.465,0,0,1,23.765,5.3ZM13.8,2.329a2.2,2.2,0,0,0,2.983,0,1.259,1.259,0,0,1,1.788,0,2.2,2.2,0,0,0,2.985,0A2,2,0,0,1,22,2.034c0,.888-.165,3.083-1.706,4.287a2.051,2.051,0,0,1-1.2.411,10.343,10.343,0,0,0,.976-2.257.478.478,0,0,0-.922-.256,8.772,8.772,0,0,1-1.206,2.52h-.492a8.855,8.855,0,0,1-1.206-2.52.478.478,0,1,0-.921.257A10.35,10.35,0,0,0,16.3,6.734a2.056,2.056,0,0,1-1.225-.413c-1.541-1.2-1.706-3.4-1.706-4.284a1.87,1.87,0,0,1,.437.291Z" transform="translate(0 -0.999)" fill="#00ffdf"/>
        <path id="Shape-4" data-name="Shape" d="M49.467,44.181a4.591,4.591,0,0,0,.878-2.681.478.478,0,0,0-.455-.5.484.484,0,0,0-.5.455,3.662,3.662,0,0,1-.673,2.133,4.115,4.115,0,0,1-3.049,1.238.478.478,0,1,0,0,.956A5.088,5.088,0,0,0,49.467,44.181Z" transform="translate(-23.581 -21.872)" fill="#00ffdf"/>
      </g>
    </g>
  </g>
</svg>
