<svg xmlns="http://www.w3.org/2000/svg" width="30" height="30" viewBox="0 0 30 30">
  <g id="Grupo_1103126" data-name="Grupo 1103126" transform="translate(-495 -4121)">
    <circle id="Elipse_11640" data-name="Elipse 11640" cx="15" cy="15" r="15" transform="translate(495 4121)" fill="#3a1d71"/>
    <path id="Trazado_879109" data-name="Trazado 879109" d="M9.642,17H.87V15.26l4.14-4.412A10.213,10.213,0,0,0,6.271,9.222,2.612,2.612,0,0,0,6.68,7.9a1.955,1.955,0,0,0-.431-1.34,1.555,1.555,0,0,0-1.23-.488,1.677,1.677,0,0,0-1.358.593,2.35,2.35,0,0,0-.5,1.56H.615a4.2,4.2,0,0,1,.558-2.136A3.934,3.934,0,0,1,2.751,4.577a4.8,4.8,0,0,1,2.312-.549,4.54,4.54,0,0,1,3.072.949A3.358,3.358,0,0,1,9.229,7.657a4.3,4.3,0,0,1-.492,1.934,10.745,10.745,0,0,1-1.687,2.294L4.14,14.952h5.5Z" transform="translate(505 4125)" fill="#fff"/>
  </g>
</svg>
